<svg width="60" height="60" viewBox="0 0 60 60" fill="none" xmlns="http://www.w3.org/2000/svg">
<path d="M53.9672 17.9867L55.0001 16.9775L35.4169 23.3159L33.8989 27.8343L53.9672 17.9867Z" fill="#201A1A"/>
<path d="M28.2691 25.0102L15.7824 25.4716C15.667 25.3172 15.5432 25.168 15.4092 25.0289C13.6656 23.2158 10.6127 22.9698 8.15163 24.4403C6.78458 25.2562 5.77031 26.4858 5.29201 27.9021C4.79845 29.3624 4.93413 30.8465 5.67194 32.0779C5.85342 32.3849 6.07052 32.6681 6.31645 32.9225C7.65128 34.3082 9.75105 34.7781 11.766 34.2607C11.8237 34.371 11.8932 34.4795 11.9848 34.5745C12.5004 35.1088 13.3519 35.1258 13.8878 34.6118C14.3068 34.2082 14.4034 33.5993 14.1813 33.0972C15.2413 32.3018 16.03 31.2417 16.4337 30.0459C16.7101 29.2318 16.7814 28.4109 16.6694 27.629L26.7477 27.9496L28.2691 25.0102ZM14.9038 29.5354C14.5493 30.5887 13.7827 31.5097 12.7447 32.1287C10.9214 33.2193 8.70626 33.082 7.47658 31.8082C7.31546 31.6386 7.17298 31.4537 7.05426 31.257C6.56239 30.436 6.47928 29.4286 6.8185 28.4228C7.17298 27.3695 7.93962 26.4485 8.97594 25.8277C10.7992 24.7372 13.016 24.8728 14.244 26.15C14.4051 26.3179 14.5476 26.5045 14.6663 26.7029C15.1616 27.5221 15.243 28.5296 14.9038 29.5354Z" fill="#201A1A"/>
<path d="M30.7779 56.9783C30.8627 56.6306 29.4329 52.7432 30.8169 51.2489C31.4038 50.791 31.9228 50.2279 32.3434 49.5816C33.9072 47.1766 33.7783 44.1168 32.0347 42.3054C31.9872 42.2562 31.933 42.2138 31.8838 42.1646L32.7352 28.009L41.1292 3L39.8402 4.65709L27.9675 27.6324L29.9485 29.7848L29.1955 40.8993C28.5052 40.8179 27.7826 40.879 27.0584 41.091C25.6252 41.515 24.3582 42.4801 23.4898 43.8149C21.926 46.22 22.0549 49.2797 23.7985 51.0929C24.0444 51.3439 24.3209 51.5729 24.6177 51.7645C25.2877 52.2021 26.0424 52.4464 26.8345 52.5091C28.7833 53.3809 28.9088 56.0811 29.1429 56.6374C29.3803 57.2005 30.6863 57.3447 30.7779 56.9783ZM30.0791 27.6647C29.7569 27.3271 29.7671 26.7929 30.1029 26.4689C30.4387 26.1483 30.973 26.1568 31.2969 26.4944C31.6192 26.8285 31.609 27.3645 31.2732 27.6867C30.9357 28.0107 30.4014 28.0005 30.0791 27.6647ZM28.3203 50.757C27.3009 51.0589 26.2985 50.9334 25.4963 50.4144C25.3012 50.2872 25.1214 50.1397 24.9603 49.9701C23.7306 48.6946 23.6814 46.4727 24.8399 44.6952C25.498 43.6792 26.4478 42.9516 27.5146 42.6361C28.534 42.3342 29.5347 42.458 30.3369 42.977C30.532 43.1059 30.7118 43.2552 30.8729 43.4248C32.1026 44.7003 32.1501 46.9205 30.9933 48.7014C30.3335 49.7122 29.3837 50.445 28.3203 50.757Z" fill="#201A1A"/>
</svg>
