<svg width="120" height="120" viewBox="0 0 120 120" fill="none" xmlns="http://www.w3.org/2000/svg">
<path d="M65.425 60.1768C65.9623 59.62 66.6745 59.4659 67.2911 59.1398C68.1184 58.7022 68.9512 58.2666 69.8135 57.9063C70.6675 57.5495 71.3187 57.834 71.7627 58.6617C71.9006 58.9187 72.0333 59.1865 72.1132 59.4652C72.2815 60.0515 72.5923 60.119 73.1095 59.8573C74.4853 59.1613 75.8775 58.4979 77.2611 57.8172C77.8039 57.5502 78.3375 57.2644 78.8824 57.0018C79.1803 56.8583 79.3087 56.6779 79.2752 56.3167C79.1236 54.6847 79.752 53.6547 81.3057 53.2195C82.2907 52.9435 83.1229 52.4341 83.9731 51.9221C86.5984 50.3413 89.225 48.7626 91.852 47.1847C91.9974 47.0973 92.1301 46.9613 92.3871 47.0342C92.4172 47.6448 92.1011 48.2118 92.0482 48.898C92.7636 48.728 93.3374 48.3573 93.9391 48.0711C95.1903 47.4761 96.4201 46.8361 97.6642 46.2258C98.012 46.0551 98.1824 45.8912 97.9538 45.4701C97.47 44.5788 97.0689 43.6438 96.5271 42.7816C96.1746 42.2205 95.7065 41.9436 95.0223 41.9656C93.9883 41.9987 92.9522 41.9867 91.9175 41.967C91.3891 41.957 90.9291 42.0883 90.4853 42.3788C86.9389 44.6994 83.5317 47.216 80.1235 49.7307C78.9929 50.5649 77.8893 51.4357 76.7764 52.2938C75.6996 53.1241 75.5762 53.87 76.3359 55.0085C76.5959 55.398 76.8875 55.7662 77.1599 56.1475C77.3661 56.4362 77.3707 56.6484 76.9933 56.8341C75.5747 57.5321 74.1675 58.2535 72.76 58.9741C72.344 59.187 72.1766 59.0283 72.1619 58.6113C72.1502 58.2796 72.1498 57.9474 72.1472 57.6154C72.1257 54.8639 72.04 52.1105 72.1181 49.3618C72.1463 48.3698 71.841 47.6377 71.2761 46.9106C70.8934 46.4181 70.6058 45.8478 70.1996 45.3781C69.4483 44.5094 69.232 43.5126 69.2514 42.3999C69.2837 40.5451 69.2743 38.6893 69.2564 36.8342C69.2521 36.3856 69.4064 36.1358 69.8075 35.9206C72.4198 34.5191 74.8691 32.8955 76.8058 30.6018C76.8812 30.5125 76.9533 30.4152 77.1494 30.4561C77.4687 31.0809 77.5003 31.8086 77.5908 32.5065C78.0284 35.8807 77.817 39.2428 77.3002 42.5909C77.0444 44.2481 76.7416 45.8981 76.4663 47.5524C76.3136 48.4703 76.4582 48.6739 77.2006 48.6536C77.4381 48.6471 77.6029 48.5075 77.7681 48.3787C80.4632 46.2772 83.2254 44.2676 86.0474 42.3406C87.1755 41.5703 88.3239 40.8295 89.4606 40.0716C89.9137 39.7695 90.4134 39.6242 90.9523 39.6248C92.6306 39.6266 94.3096 39.5485 95.9869 39.6818C96.957 39.7589 97.7023 40.2016 98.1706 41.048C98.8696 42.3115 99.518 43.6027 100.085 44.9312C100.184 45.1629 100.302 45.2591 100.533 45.3154C101.925 45.6556 102.669 46.475 102.844 47.837C102.982 48.9075 102.389 50.0159 101.229 50.586C98.4609 51.9458 95.6689 53.256 92.8836 54.5796C92.4017 54.8086 91.8889 54.8884 91.3488 54.8859C88.6147 54.8732 85.8805 54.8806 83.1463 54.8822C82.9317 54.8823 82.714 54.871 82.503 54.9013C81.7392 55.011 81.3428 55.6728 81.5906 56.4032C82.1253 57.9793 83.4898 58.8936 85.3681 58.9014C88.0241 58.9125 90.6802 58.9047 93.3362 58.9063C95.2282 58.9076 95.7145 59.2681 96.3168 61.0546C96.8905 62.7565 97.7356 64.3068 98.9554 65.6387C100.483 67.3067 102.391 68.1655 104.638 68.2853C105.183 68.3144 105.731 68.3102 106.277 68.3042C106.643 68.3002 106.828 68.3993 106.744 68.819C106.264 71.219 105.507 73.5341 104.63 75.8138C104.547 76.0301 104.45 76.1638 104.164 76.1382C101.726 75.9206 99.3407 75.4557 97.0287 74.6415C96.8697 74.5855 96.6788 74.5602 96.5937 74.3601C96.6719 74.0969 96.9342 74.0074 97.1164 73.8424C97.8232 73.2021 98.44 72.5116 98.5292 71.499C98.5889 70.8224 98.3654 70.2351 97.8305 69.8462C96.7003 69.0242 95.909 67.9152 95.1102 66.806C94.6343 66.1451 94.0691 65.5941 93.3006 65.2789C92.426 64.9201 91.5566 64.9556 90.7772 65.4667C90.3772 65.7289 90.0957 65.6638 89.7135 65.5016C87.4159 64.5263 85.0568 63.8004 82.5195 63.91C81.5125 63.9535 80.526 64.1211 79.5459 64.4904C79.7575 64.8361 80.0649 64.9436 80.3178 65.1093C83.8439 67.4186 87.5238 69.412 91.6214 70.5281C92.4295 70.7482 93.2625 70.8821 94.0619 71.1276C95.4527 71.5547 96.0504 72.9157 95.4267 74.13C95.0066 74.9481 93.7835 75.4832 92.7612 75.338C90.8029 75.0599 89.0134 74.2739 87.2208 73.5081C84.4651 72.3308 81.8698 70.8741 79.4733 69.0576C78.0084 67.9472 77.1854 66.4198 76.4623 64.8081C76.2528 64.3414 76.0037 64.3246 75.6013 64.5651C75.3023 64.7438 75.2318 64.923 75.3953 65.2269C76.2548 66.825 75.87 67.4484 74.2834 67.9969C73.2343 68.3596 72.8435 68.9703 72.8925 70.1236C72.9995 72.6403 72.7859 75.1526 72.3662 77.6419C72.3442 77.7725 72.3082 77.9123 72.4461 78.0889C74.3969 76.787 76.3407 76.6782 78.2327 78.3258C78.8127 77.5585 79.5434 77.0404 80.4506 76.7659C82.2032 76.2358 83.8889 76.9792 84.8216 78.69C85.5496 80.0254 86.04 81.5005 86.9942 82.6995C89.0128 85.2363 90.9707 87.8189 92.9333 90.3981C94.5413 92.5111 96.1348 94.6354 97.7218 96.7642C97.9741 97.1027 98.263 97.3673 98.635 97.5618C100.728 98.6558 102.817 99.7568 104.908 100.856C105.08 100.947 105.249 101.046 105.42 101.14C105.683 101.283 105.753 101.469 105.643 101.769C104.834 103.977 103.584 105.92 102.129 107.749C101.869 108.076 101.682 107.982 101.405 107.785C98.3626 105.622 95.4288 103.315 92.6522 100.826C87.5062 96.2118 82.4108 91.5409 77.5344 86.6382C76.97 86.0708 76.418 85.4873 75.4904 85.5678C74.262 85.6745 73.6436 86.7187 74.2988 87.7508C75.4808 89.6129 76.7548 91.4167 77.9357 93.2794C79.6186 95.934 81.2736 98.6068 82.8997 101.296C84.0924 103.27 85.7419 104.581 87.9365 105.335C90.9065 106.355 93.8379 107.491 96.7623 108.637C97.4448 108.905 97.9332 108.827 98.361 108.299C98.7112 107.867 99.0334 107.878 99.4423 108.207C99.8648 108.546 100.385 108.758 100.78 109.241C100.002 110.409 99.0714 111.443 97.9993 112.353C97.8058 112.517 97.5955 112.41 97.3925 112.329C92.2445 110.275 87.0976 108.218 81.9465 106.172C77.9384 104.581 73.9302 102.989 69.9103 101.427C68.716 100.963 68.0262 100.189 67.7229 98.9181C67.1706 96.6031 66.7527 94.2578 66.1583 91.9571C65.9403 91.1135 66.2466 90.7215 66.7761 90.2363C68.0283 89.0889 69.2361 87.8932 70.4748 86.7308C70.9759 86.2607 70.4508 86.0108 70.2727 85.7062C70.0511 85.327 69.805 85.579 69.6073 85.7585C68.119 87.1097 66.699 88.5448 65.1633 89.8317C63.8562 90.9269 62.8759 92.3886 61.3315 93.2085C60.9078 93.4334 60.5293 93.746 59.9642 93.9101C59.9642 93.2933 59.9642 92.7424 59.9642 92.1915C59.9173 92.1797 59.8704 92.1679 59.8235 92.1561C59.4907 92.7815 59.2178 93.4406 58.7897 94.0115C57.6362 95.5498 56.0165 96.4107 54.3418 97.2494C52.7249 98.0592 51.213 98.0592 49.6013 97.2658C48.047 96.5006 46.5484 95.6936 45.4042 94.3502C44.8194 93.6635 44.3719 92.8985 44.0366 91.9355C43.7231 92.6532 43.9605 93.2711 43.9122 93.9641C42.2726 93.1496 40.9498 92.0818 39.9168 90.6448C38.8728 89.1924 38.4391 87.5253 38.1666 85.6845C37.8864 86.8676 38.0428 87.9602 37.9714 89.1359C37.3767 88.8487 36.9627 88.4392 36.5541 88.0492C33.9076 85.5225 32.2801 82.4111 31.3767 78.8964C30.361 74.945 30.2759 70.9099 30.3112 66.8644C30.3197 65.8881 30.3079 65.8993 29.4226 65.5819C27.397 64.8559 26.1628 63.2946 25.1895 61.4864C23.8118 58.9268 23.3432 56.1558 23.4262 53.2841C23.4548 52.2957 23.5721 51.305 24.0581 50.3951C24.4674 49.6287 25.007 49.0078 25.794 48.6362C26.1159 48.4842 26.2109 48.3157 26.1342 47.9555C25.6877 45.8583 25.2063 43.7677 24.874 41.6473C24.4377 38.8635 24.2592 36.0735 24.4255 33.2513C24.5652 30.8782 25.0843 28.6276 26.1273 26.4958C26.2192 26.3079 26.2671 26.0866 26.4677 25.9708C26.6768 26.0055 26.6297 26.1706 26.6316 26.2929C26.6911 30.0729 28.4584 32.9941 31.225 35.4058C32.0666 36.1394 32.9989 36.7504 33.9885 37.2668C34.3398 37.4501 34.4935 37.6856 34.4893 38.0964C34.4712 39.8734 34.479 41.6507 34.4887 43.4279C34.4905 43.7738 34.4108 44.0778 34.2167 44.3635C33.4817 45.4452 32.7622 46.5376 32.0172 47.6124C31.7846 47.9479 31.6674 48.2852 31.6688 48.6976C31.6792 51.9005 31.6782 55.1034 31.6674 58.3063C31.6661 58.6792 31.7833 58.9732 31.9875 59.278C33.541 61.5966 35.1951 63.8498 36.5397 66.3046C37.2644 67.6277 37.8687 68.9909 38.0498 70.4869C38.3123 70.5259 38.3111 70.3415 38.3681 70.2393C39.9859 67.3397 42.4691 65.6598 45.6934 65.0042C46.7241 64.7947 47.7464 64.5436 48.7709 64.304C49.0112 64.2478 49.2658 64.2049 49.4432 63.985C49.2997 63.7086 49.0415 63.7811 48.8234 63.7687C46.055 63.6114 45.7955 61.3498 46.5817 59.6106C46.7775 59.1775 47.1544 58.9248 47.6177 58.8213C48.266 58.6764 48.8662 59.0736 48.7319 59.701C48.4808 60.8731 49.1996 61.1965 50.0115 61.6886C51.9114 62.8402 53.5237 62.0921 55.1548 61.1435C55.37 61.0184 55.4192 60.8196 55.4192 60.5946C55.4192 60.3212 55.4084 60.0474 55.419 59.7745C55.4505 58.9687 56.0273 58.5909 56.781 58.8748C57.0238 58.9662 57.2535 59.0957 57.3966 59.3068C58.0334 60.2464 58.1321 61.2915 57.7524 62.3215C57.4068 63.259 56.5997 63.6488 55.6167 63.6779C55.2666 63.6883 54.9174 63.7123 54.5518 63.9769C55.067 64.3633 55.6631 64.3896 56.2057 64.5222C57.4922 64.8364 58.8073 65.0253 60.0684 65.4539C62.2406 66.1921 63.9178 67.5592 65.2106 69.4286C65.4419 69.7629 65.6662 70.1019 65.9517 70.5247C66.0051 70.4141 66.0439 70.3669 66.0505 70.3155C66.2192 68.9983 66.6835 67.7858 67.3499 66.6459C67.5385 66.3234 67.3962 66.0477 67.2575 65.7636C66.6156 64.4481 65.9828 63.1281 65.3321 61.817C65.0559 61.2606 65.0471 60.7337 65.425 60.1768ZM67.6232 80.3261C69.1732 81.8515 70.6052 83.4975 72.2321 84.9366C73.2596 84.0191 73.2606 84.0181 72.4097 83.1487C69.4885 80.1637 66.5726 77.1733 63.6379 74.2016C63.1975 73.7556 62.9589 73.3026 62.9954 72.6562C63.0359 71.9378 62.807 71.7068 62.099 71.6255C58.8939 71.2577 55.7208 70.7792 52.793 69.293C52.2677 69.0264 51.6868 69.0988 51.1424 69.3293C50.8011 69.4738 50.4651 69.6308 50.1258 69.7801C47.5355 70.9192 44.7543 71.223 41.9978 71.6314C41.093 71.7655 40.9294 71.9199 40.9395 72.8265C40.9746 75.9687 40.9835 79.112 41.0798 82.2525C41.1192 83.5397 41.129 84.8376 41.3453 86.2276C41.4246 85.9392 41.4987 85.7577 41.5222 85.57C41.7766 83.5407 42.0514 81.5134 42.2633 79.4796C42.4693 77.5029 42.7087 75.5282 42.7939 73.5401C42.8088 73.1916 42.9407 73.0038 43.3473 72.9426C45.3126 72.6467 47.2787 72.3423 49.1813 71.7377C49.4109 71.6648 49.6425 71.6726 49.8758 71.7175C50.7025 71.877 51.5481 72.0258 52.3757 71.9012C53.9267 71.6677 55.418 71.8212 56.914 72.2548C57.6818 72.4773 58.4906 72.5585 59.278 72.703C59.2536 72.9283 59.1475 73.0185 59.0483 73.1097C57.7844 74.2721 56.5176 75.4313 55.2556 76.5957C54.8253 76.9927 54.4 77.3956 53.9849 77.8084C53.7117 78.08 53.5723 78.398 53.8719 78.7371C54.1819 79.0879 54.5396 79.113 54.9017 78.81C55.1109 78.635 55.3086 78.446 55.5073 78.2588C57.0415 76.8138 58.5648 75.3571 60.113 73.9272C60.7692 73.321 60.7983 73.3408 61.4277 73.9838C63.4758 76.076 65.5193 78.1726 67.6232 80.3261ZM90.3442 93.5702C89.5606 91.9127 88.81 90.2386 87.9846 88.6021C87.0785 86.8055 84.7457 86.4004 83.2557 87.7331C82.6001 88.3195 82.5607 88.7819 83.1398 89.3243C85.6603 91.6845 88.179 94.0469 90.7127 96.393C91.1617 96.8088 91.5467 97.308 92.2534 97.701C91.5843 96.2525 90.9832 94.9513 90.3442 93.5702ZM27.1873 59.7115C27.7875 60.8268 28.4824 61.8541 29.6862 62.4846C29.8148 61.7993 29.7224 61.2599 29.2919 60.7798C28.7822 60.2113 28.461 59.5099 28.0283 58.8869C27.6805 58.3863 27.686 58.0085 28.2 57.6034C28.5467 57.3301 28.9378 57.0518 28.9218 56.4774C28.8865 55.2117 28.9181 53.9443 28.9074 52.6776C28.9017 52.0074 28.3893 51.4219 27.7177 51.2754C27.1524 51.152 26.5022 51.4732 26.2073 52.0391C26.0539 52.3337 25.9443 52.6473 25.9306 52.9856C25.8371 55.2931 26.1306 57.5299 27.1873 59.7115ZM80.2671 83.0293C80.5684 83.556 80.983 83.9505 81.5729 84.1342C82.3298 84.3699 82.9496 84.1076 83.4798 83.5783C83.9844 83.0746 84.1402 82.5037 83.8079 81.8262C83.4994 81.1971 83.2415 80.5432 82.9347 79.9132C82.5458 79.1146 81.9073 78.7916 81.0205 78.9063C79.6091 79.0888 78.9712 80.1944 79.5456 81.4659C79.7701 81.9629 79.9993 82.4577 80.2671 83.0293ZM73.1902 99.783C73.3907 99.8206 73.6178 99.9532 73.7079 99.6231C73.8859 98.9708 74.1327 98.3496 74.7014 97.7553C74.3529 97.7893 74.1613 97.8022 73.9713 97.8274C73.0812 97.9454 72.2261 98.2201 71.3536 98.417C71.1567 98.4615 70.9496 98.4775 70.8252 98.2834C70.6806 98.0575 70.8858 97.9276 71.0093 97.7902C71.126 97.6603 71.2442 97.5145 71.3931 97.4333C72.571 96.7915 72.7808 95.8647 72.2687 94.6784C72.0265 94.1172 72.0472 93.4617 71.6446 92.8055C70.8261 93.5321 70.0455 94.2183 69.2753 94.9159C69.1522 95.0274 69.1757 95.2043 69.2141 95.3601C69.4603 96.3598 69.7146 97.3576 69.9504 98.3598C70.0183 98.6486 70.1985 98.7701 70.4573 98.8552C71.3443 99.1467 72.2268 99.4514 73.1902 99.783ZM76.4808 79.9049C75.5847 78.7717 73.4872 79.2626 72.7141 80.2863C72.5377 80.5199 72.6262 80.6833 72.7843 80.8473C73.4734 81.5626 74.1667 82.2739 74.8583 82.9868C75.0039 83.1369 75.178 83.1946 75.3873 83.1743C75.9357 83.1212 76.4758 83.1793 77.0088 83.3133C77.1813 83.3567 77.3699 83.4229 77.4517 83.1893C77.5792 82.8251 77.7602 82.4576 77.5683 82.0632C77.228 81.3639 76.9892 80.614 76.4808 79.9049ZM69.3887 60.3117C68.8998 60.5534 68.4214 60.8205 67.9188 61.0292C67.4845 61.2095 67.3676 61.4173 67.5981 61.8664C68.1047 62.8533 68.5463 63.8735 69.0473 64.8635C69.5109 65.7793 69.8745 66.7472 70.4323 67.6486C71.5299 67.2184 72.5208 66.6623 73.5272 66.147C73.4446 65.8918 73.3988 65.703 73.1653 65.5824C72.7475 65.7833 72.3013 65.9759 71.877 66.2086C71.5327 66.3974 71.3203 66.3607 71.1374 65.9878C70.4513 64.5888 69.7488 63.1976 69.0434 61.8082C68.8743 61.4751 68.9648 61.2752 69.279 61.0997C69.6646 60.8844 70.1017 60.7537 70.4471 60.4396C70.2061 59.7438 69.8085 60.1885 69.3887 60.3117ZM79.3696 59.0507C77.2458 60.0764 75.1182 61.0946 73.0019 62.1355C72.6548 62.3062 72.1808 62.4935 72.4244 63.0404C72.67 63.5918 73.0905 63.4392 73.5032 63.2358C75.8107 62.0985 78.1207 60.9662 80.4255 59.8233C80.6063 59.7336 80.8294 59.6632 80.8974 59.4289C80.2426 58.6897 80.1509 58.6635 79.3696 59.0507ZM97.8544 49.8643C98.6361 49.5104 99.4236 49.1685 100.197 48.7969C100.52 48.6418 100.739 48.3641 100.58 47.9862C100.433 47.638 100.15 47.4224 99.7417 47.4984C99.5936 47.526 99.4478 47.6019 99.3171 47.6821C98.3843 48.2553 97.3975 48.7243 96.4161 49.2044C95.487 49.6589 94.5535 50.1052 93.6361 50.5821C93.3284 50.7421 92.9748 50.9768 93.1962 51.4025C93.4109 51.8154 93.7942 51.8628 94.2055 51.666C94.3111 51.6154 94.4157 51.5627 94.5206 51.5108C95.6054 50.9746 96.6902 50.4384 97.8544 49.8643ZM63.0156 87.3396C62.6744 87.6525 62.4127 87.9887 62.7977 88.4372C63.1102 88.8013 63.4885 88.7721 63.9699 88.3628C64.133 88.2241 64.2879 88.0755 64.4431 87.9278C65.5866 86.8407 66.7277 85.7512 67.8725 84.6655C68.6359 83.9416 68.6391 83.9064 67.8876 83.1809C67.8342 83.1294 67.76 83.0994 67.6525 83.0327C66.1259 84.4524 64.6028 85.8687 63.0156 87.3396ZM59.9441 83.0888C61.1803 81.9287 62.4101 80.7617 63.6563 79.6124C64.1006 79.2025 63.7137 78.9797 63.5082 78.6963C63.2868 78.391 63.0603 78.2948 62.7481 78.5884C61.2867 79.9627 59.8205 81.332 58.3534 82.7002C58.0432 82.9895 57.9981 83.2788 58.2937 83.6089C58.5768 83.9251 58.8981 83.9591 59.2288 83.7263C59.4659 83.5594 59.6674 83.3419 59.9441 83.0888ZM63.3132 82.591C62.4232 83.4334 61.5326 84.2752 60.6434 85.1184C60.3273 85.4181 60.2496 85.7484 60.574 86.0848C60.8838 86.406 61.2232 86.394 61.5589 86.1102C61.6332 86.0475 61.7085 85.9856 61.7794 85.9192C63.0008 84.7755 64.2225 83.6321 65.4418 82.4861C65.6402 82.2996 65.8432 82.1142 66.0163 81.9053C66.3959 81.4472 65.9104 81.213 65.7242 80.9175C65.5113 80.5794 65.2993 80.8003 65.1083 80.9716C64.529 81.4914 63.9517 82.0134 63.3132 82.591ZM61.4847 76.6057C61.2328 76.331 61.127 75.6672 60.5516 76.19C59.0538 77.5508 57.5712 78.9283 56.0901 80.3072C55.7786 80.5971 55.6997 80.93 56.038 81.2725C56.3526 81.5909 56.6848 81.6184 57.0137 81.3118C58.4512 79.9715 59.8854 78.6278 61.3149 77.279C61.4792 77.1241 61.6775 76.9541 61.4847 76.6057ZM72.0151 89.7744C72.5769 89.1943 72.5653 89.0372 71.8847 88.21C71.8051 88.2434 71.6994 88.2593 71.6346 88.3193C70.2213 89.6301 68.8092 90.9424 67.4055 92.2634C67.1075 92.5438 67.1658 92.8621 67.4164 93.1464C67.6641 93.4274 67.9646 93.4273 68.256 93.2278C68.4801 93.0744 68.69 92.8966 68.8889 92.7112C69.9146 91.7548 70.9348 90.7924 72.0151 89.7744ZM48.0833 82.5971C48.4365 80.4895 49.0392 78.4257 49.323 76.2353C48.1636 76.6656 47.4333 77.6969 47.4511 78.7447C47.4557 79.0176 47.4539 79.291 47.4674 79.5635C47.539 81.0088 47.4035 82.4645 47.6642 83.9899C47.9223 83.5316 47.9059 83.0858 48.0833 82.5971Z" fill="#201A1A"/>
<path d="M61.2966 35.5055C57.5318 35.3776 53.9685 34.64 50.6276 32.9673C49.8737 32.5899 49.1601 32.1601 48.5338 31.5867C47.56 30.6951 47.252 29.6398 47.6068 28.3569C48.1487 26.3971 49.4932 25.0729 51.042 23.9002C51.9354 23.2237 52.9352 22.7391 53.968 22.3183C54.0549 22.2829 54.1491 22.2354 54.2985 22.3662C53.1191 23.7021 52.056 25.1172 51.7721 27.1061C52.3366 26.423 52.7806 25.8364 53.2751 25.296C55.2559 23.1312 57.7912 21.9475 60.5714 21.1901C62.4368 20.682 64.3743 20.5356 66.2363 20.0124C68.3877 19.4079 69.3608 17.8004 68.8369 15.6463C68.7748 15.391 68.7397 15.1083 68.4813 14.9096C68.1256 15.3835 67.9362 15.9446 67.5247 16.3767C66.3732 17.5862 64.8818 17.9693 63.3156 18.2014C59.6821 18.7399 56.0671 19.3623 52.708 20.9476C50.2674 22.0994 48.1405 23.6501 46.6671 25.9702C45.907 27.167 45.4578 28.4577 45.6013 29.9032C45.7395 31.2957 46.5657 32.2818 47.6107 33.0751C49.4722 34.4883 51.5789 35.3872 53.8765 35.8303C54.0649 35.8667 54.2608 35.8795 54.4804 36.0451C54.1073 36.1993 53.7496 36.2109 53.4042 36.224C50.5387 36.3326 47.7124 36.0563 44.9564 35.2454C41.6964 34.2862 38.6893 32.836 36.1828 30.488C34.5435 28.9524 33.2594 27.1938 32.8358 24.9144C32.6222 23.765 32.6804 22.6244 32.8238 21.4787C32.8502 21.2679 32.8731 21.0567 32.8396 20.8196C32.3667 21.3057 32.1078 21.9101 31.9063 22.5394C31.1086 25.0307 31.7687 27.2667 33.1308 29.3717C34.8042 31.9577 37.1902 33.7138 39.8633 35.1327C40.9346 35.7014 42.0543 36.1554 43.2008 36.5479C43.356 36.601 43.5569 36.5912 43.6429 36.7829C43.586 36.9676 43.4301 36.9391 43.3034 36.9321C40.1735 36.7589 37.082 36.4024 34.2204 34.9813C32.0519 33.9044 30.3515 32.3168 29.3034 30.1362C27.6589 26.7148 28.2597 23.4847 30.5487 20.6008C33.4303 16.9703 37.2294 14.6662 41.6817 13.4359C45.0177 12.5141 48.4219 12.5014 51.8446 12.7032C53.5934 12.8063 55.345 13.0138 57.1002 12.7415C57.745 12.6414 58.3648 12.4742 58.9166 12.129C60.0666 11.4094 60.502 10.3521 60.3161 9.02286C60.2919 8.85024 60.2631 8.67827 60.2396 8.50556C60.2377 8.49162 60.2609 8.47428 60.3416 8.36389C61.3691 9.30249 62.0894 10.4011 62.5561 11.6992C63.0278 13.011 63.1625 14.3438 62.9098 15.7758C63.9567 15.7122 64.7987 15.3415 65.532 14.7424C66.2966 14.1177 66.6674 13.2639 66.7484 12.292C66.8263 11.3565 66.6224 10.4509 66.4007 9.53096C69.235 11.7492 71.0222 14.5177 71.0836 18.3097C73.3802 16.7097 73.4999 14.57 72.8126 12.1895C73.1165 12.1244 73.2399 12.3331 73.3802 12.4652C75.9437 14.8792 77.5464 17.7998 77.9793 21.3166C78.3905 24.6571 77.5476 27.6314 75.2535 30.1318C73.0035 32.5841 70.165 34.0259 66.9722 34.8312C65.1273 35.2965 63.2473 35.4656 61.2966 35.5055ZM59.5665 28.8001C59.4033 29.0054 59.1305 29.1325 59.0991 29.4365C59.2548 29.5283 59.3781 29.4272 59.4948 29.3812C61.8506 28.4511 64.3095 27.9537 66.8066 27.5996C68.6555 27.3374 70.5241 27.1796 72.313 26.5793C74.1684 25.9567 75.5694 24.8906 75.9896 22.8659C76.3204 21.2722 76.1163 19.7209 75.5108 18.2207C75.3927 17.9282 75.331 17.5911 75.0576 17.3635C73.1779 20.1517 73.1779 20.1517 67.7062 22.4669C70.219 22.454 72.5135 21.8549 74.5908 20.5257C74.7762 20.8279 74.6671 21.0273 74.6125 21.2292C74.2251 22.6603 73.1816 23.4646 71.9062 24.0322C70.355 24.7226 68.6713 24.8954 67.032 25.2331C64.2736 25.8014 61.7051 26.7534 59.5665 28.8001ZM50.1556 16.9414C48.2783 17.5697 46.4874 18.3785 44.8625 19.5207C42.9157 20.8892 41.3874 22.5877 40.6946 24.9254C40.368 26.0275 40.2268 27.1455 40.4313 28.2965C40.6257 27.889 40.7435 27.4604 40.9139 27.0538C42.1603 24.0791 44.3744 22.0034 47.1244 20.4443C49.3979 19.1552 51.8807 18.4033 54.3698 17.6658C56.3117 17.0903 58.1689 16.3394 59.5743 14.7855C59.7059 14.64 59.906 14.5254 59.886 14.2342C59.7002 14.2953 59.546 14.3234 59.4137 14.3932C58.4367 14.9089 57.3782 15.1664 56.3097 15.4C54.2731 15.8453 52.2208 16.2288 50.1556 16.9414ZM39.0215 16.1117C35.5171 17.982 34.1042 21.8631 34.8181 23.951C35.431 22.1007 36.4064 20.5635 37.5975 19.1572C38.7979 17.7398 40.1224 16.4487 41.6418 15.2526C40.6777 15.3397 39.8768 15.6709 39.0215 16.1117ZM47.4987 15.4464C47.6727 15.3486 47.9249 15.3644 48.0008 15.1107C44.8274 14.4412 41.1993 17.8128 40.9068 19.893C42.7407 17.8152 45.051 16.6031 47.4987 15.4464ZM71.9232 29.496C70.4667 30.0504 68.9735 30.4907 67.4673 30.8933C69.14 31.1942 70.6376 30.8534 71.9175 29.7176C71.9726 29.6687 72.1118 29.6086 71.9232 29.496Z" fill="#201A1A"/>
<path d="M48.1788 46.9629C49.01 47.6402 49.3522 48.4999 49.3579 49.5092C49.3639 50.5434 49.363 51.5777 49.3643 52.6119C49.3647 52.9752 49.3293 53.325 48.9354 53.4942C48.5301 53.6684 48.2184 53.4979 47.942 53.2106C47.658 52.9153 47.3875 52.6051 47.0861 52.3287C46.4223 51.7198 46.1688 51.7 45.4589 52.2382C44.6365 52.8616 43.7323 53.2953 42.7266 53.5189C40.9163 53.9215 39.233 53.6824 37.7664 52.4785C37.4647 52.2309 36.9836 51.957 37.1405 51.5147C37.2802 51.1206 37.803 51.2308 38.1756 51.1552C38.9618 50.9957 39.5917 51.53 40.3283 51.5944C41.8336 51.726 43.1569 51.3382 44.4098 50.2973C43.2184 49.8163 42.0825 49.5732 40.9354 49.3804C39.2157 49.0914 37.5227 49.16 35.8581 49.7442C35.362 49.9183 34.716 50.1965 34.4159 49.5171C34.1602 48.9382 34.7537 48.6473 35.118 48.32C35.7559 47.7469 36.374 47.1511 37.0994 46.6814C37.4226 46.4721 37.7544 46.3668 38.142 46.3679C40.8936 46.3761 43.6451 46.3779 46.3966 46.3694C47.0487 46.3674 47.6206 46.5668 48.1788 46.9629Z" fill="#201A1A"/>
<path d="M64.4013 51.3922C65.2817 51.054 66.0983 51.0514 66.9611 51.4616C66.4288 52.4299 65.6601 52.9942 64.7162 53.3164C62.238 54.1623 60.0051 53.6022 58.0404 51.9777C57.2543 51.3278 56.4827 50.9773 55.4822 51.2727C55.0005 51.415 54.8388 51.1817 54.8435 50.7357C54.85 50.1118 54.8284 49.4902 54.9112 48.8658C55.0958 47.4738 56.2441 46.3879 57.6524 46.3787C60.3474 46.3611 63.0426 46.3778 65.7377 46.3688C66.2427 46.3671 66.6526 46.5857 67.0166 46.8793C67.7607 47.4795 68.4856 48.1043 69.2001 48.7396C69.4253 48.9398 69.7067 49.1894 69.4874 49.5409C69.273 49.8845 68.9417 50.0198 68.5244 49.9137C67.712 49.7072 66.9058 49.4514 66.0803 49.3265C63.7937 48.9806 61.5888 49.3832 59.4143 50.142C60.0815 51.0999 62.4867 52.0781 64.4013 51.3922Z" fill="#201A1A"/>
</svg>
