<svg width="40" height="40" viewBox="0 0 40 40" fill="none" xmlns="http://www.w3.org/2000/svg">
<path d="M20 1.59998C12.2844 1.59998 9.64999 10.0906 9.62499 10.175L9.52499 10.5L14.625 19.225C14.6469 19.2375 14.6531 19.2406 14.675 19.25C14.8844 19.3031 15.5594 19.4312 16.375 19.575C16.3812 19.575 16.3937 19.575 16.4 19.575C17.2344 19.7219 18.2344 19.8781 19.1 19.95L17.125 5.82498C17.0656 5.38748 16.65 5.05935 16.225 5.12498C15.7875 5.18435 15.4656 5.58748 15.525 6.02498L17.325 18.95L14.35 8.82498C14.225 8.4031 13.775 8.14998 13.35 8.27498C12.9281 8.39998 12.675 8.84998 12.8 9.27498L15 16.7L11.275 10.3C11.7969 8.88435 14.2469 3.19998 20 3.19998C25.7187 3.19998 28.1875 8.87498 28.725 10.325L25.075 16.575L27.175 9.32498C27.2969 8.89998 27.05 8.44685 26.625 8.32498C26.2 8.2031 25.7469 8.44998 25.625 8.87498L22.6 19.325L24.425 5.94998C24.4844 5.51248 24.1625 5.10935 23.725 5.04998C23.2969 4.98748 22.8844 5.31248 22.825 5.74998L20.9 19.95C22.5719 19.8094 24.7219 19.3875 25.325 19.25L25.375 19.225L30.475 10.5L30.375 10.15C30.3469 10.0625 27.6062 1.59998 20 1.59998ZM20 3.99998C19.5562 3.99998 19.2 4.35935 19.2 4.79998V19.975C19.4844 19.9969 19.7562 20 20 20C20.2437 20 20.5156 19.9969 20.8 19.975V4.79998C20.8 4.35935 20.4437 3.99998 20 3.99998ZM24.925 20.95C23.7 21.1969 21.5031 21.6 20 21.6C18.5875 21.6 16.4219 21.2281 15.15 20.975C14.4625 21.8687 13.6 23.2812 13.6 24.8C13.6 26.25 14.4062 28.0812 15.125 29.7C15.3687 30.2469 15.65 30.8687 15.825 31.35C16.5375 31.5625 18.2062 32 20 32C20.4437 32 20.8 32.3594 20.8 32.8C20.8 33.2406 20.4437 33.6 20 33.6C18.1062 33.6 16.3906 33.2 15.525 32.95C15.2875 33.2875 15.0156 33.6344 14.8 33.9C14.1094 34.7531 13.6 35.3594 13.6 36C13.6 37.9719 18.7312 38.4 20 38.4C21.2687 38.4 26.4 37.9719 26.4 36C26.4 35.3594 25.8906 34.7531 25.2 33.9C24.7469 33.3406 24 32.3937 24 32C24 31.65 24.4906 30.5687 24.875 29.7C25.5937 28.0812 26.4 26.25 26.4 24.8C26.4 23.2687 25.5812 21.8437 24.925 20.95Z" fill="#E8C552"/>
</svg>
