<svg width="120" height="120" viewBox="0 0 120 120" fill="none" xmlns="http://www.w3.org/2000/svg">
<path d="M94.4911 60.2717C93.2666 61.5086 92.062 62.707 90.8835 63.9304C90.5849 64.2403 90.3746 64.2754 90.0734 63.9577C89.7923 63.661 89.4848 63.3835 89.1602 63.1351C88.6973 62.7811 88.7623 62.4827 89.1418 62.0986C90.4864 60.7376 91.7972 59.3432 93.1467 57.9872C93.4985 57.6336 93.6546 57.3513 93.3161 56.9005C93.0753 56.5798 92.9716 56.1613 92.6373 55.8715C92.1559 56.0905 91.8234 56.4814 91.4685 56.8326C90.1221 58.1647 88.7782 59.4998 87.4621 60.8615C87.1183 61.2172 86.8863 61.2319 86.5659 60.8724C86.3068 60.5818 86.0256 60.3032 85.7192 60.0643C85.3065 59.7428 85.3966 59.4859 85.7206 59.1644C86.6492 58.2429 87.561 57.3043 88.4759 56.369C88.8989 55.9365 89.2921 55.4722 89.7387 55.0663C90.1672 54.6768 90.2687 54.2934 89.9373 53.7971C89.7888 53.5748 89.6954 53.3157 89.5543 53.0267C89.148 53.2445 88.8839 53.5588 88.5972 53.8389C87.1725 55.2306 85.7453 56.6198 84.3381 58.0291C83.9659 58.4018 83.6653 58.5088 83.2858 58.0585C83.0861 57.8215 82.8506 57.6034 82.5973 57.4252C82.0958 57.0725 82.2038 56.8023 82.602 56.4252C84.0048 55.096 85.378 53.7356 86.7591 52.3836C87.4876 51.6705 87.4897 51.5808 86.8509 50.7153C86.5026 50.8168 86.2694 51.0852 86.0183 51.3232C85.0548 52.2364 84.0826 53.1412 83.1411 54.0768C82.7905 54.4253 82.5741 54.4002 82.2466 54.0418C81.4779 53.2005 81.4635 53.2206 82.3003 52.4286C83.0235 51.7441 83.7475 51.0597 84.4529 50.3571C85.1034 49.7092 85.0979 49.6023 84.5301 48.8311C84.2111 48.8532 84.0314 49.1003 83.8218 49.2942C82.9479 50.1029 82.0815 50.9197 81.2021 51.7223C81.0531 51.8583 80.8527 52.1016 80.6512 51.9413C80.323 51.6803 79.9067 51.4704 79.7459 51.0644C79.6688 50.8693 79.9206 50.6924 80.0713 50.5442C80.7811 49.8461 81.4987 49.156 82.2093 48.4586C82.8241 47.8552 82.8298 47.7586 82.3291 47.0206C82.0636 47.0033 81.92 47.2116 81.7541 47.3622C80.9014 48.1362 80.0478 48.9095 79.2123 49.7019C78.933 49.9668 78.752 50.0182 78.4509 49.7023C77.6171 48.8276 77.6081 48.85 78.4861 47.9696C79.2856 47.168 80.0684 46.3496 80.8567 45.5368C81.856 44.5062 83.0035 44.4104 84.1304 45.3045C86.6078 47.2702 89.0717 49.2531 91.5449 51.2242C92.644 52.1001 93.75 52.9674 94.8592 53.8305C95.0216 53.9569 95.173 54.1283 95.4499 54.124C95.508 53.7854 95.2525 53.6374 95.0559 53.4764C93.3791 52.1034 91.6946 50.7397 90.0172 49.3675C88.1584 47.8469 86.3053 46.3194 84.448 44.7971C84.1462 44.5497 83.8479 44.2952 83.5265 44.0754C82.4574 43.3441 81.3219 43.4199 80.3693 44.3008C79.753 44.8707 79.1694 45.4758 78.5662 46.0598C78.4614 46.1612 78.3914 46.3297 78.19 46.3026C78.0439 46.1327 78.127 45.9299 78.1264 45.7459C78.1206 43.6188 78.1366 41.4916 78.1195 39.3647C78.1041 37.4473 77.2348 36.0814 75.6639 35.4681C75.0791 35.2398 74.4575 35.1406 73.8359 35.0848C72.0116 34.9208 70.2338 35.1052 68.4512 35.5891C64.5734 36.6416 60.6689 37.5966 56.7521 38.4978C56.3407 38.5925 55.9492 38.5953 55.5399 38.4937C51.3564 37.4554 47.1686 36.4341 42.9871 35.3877C41.0372 34.8997 39.0717 34.9244 37.1174 35.2375C34.8649 35.5984 33.688 37.0586 33.6773 39.3453C33.6675 41.4545 33.6659 43.5639 33.6821 45.6731C33.6854 46.1124 33.5768 46.4356 33.2421 46.75C31.9755 47.9397 30.9484 49.301 30.4181 50.9879C30.404 51.0327 30.3373 51.061 30.1963 51.1812C29.9139 49.159 29.6424 47.2149 29.3708 45.2707C29.7578 53.6835 29.3677 62.1041 29.739 70.5123C29.8067 72.0454 29.885 73.5817 30.1721 75.0981C30.5578 70.7257 30.3811 66.342 30.4438 61.9441C30.6975 62.0057 30.6771 62.1913 30.7033 62.323C31.3063 65.3536 32.2032 68.2971 33.2802 71.1907C33.7292 72.397 34.1162 73.6265 34.5318 74.8453C34.6353 75.1488 34.6683 75.4534 34.5547 75.7621C33.5828 78.4022 33.9748 80.905 35.3487 83.2917C35.6002 83.7285 35.6489 84.0925 35.5119 84.5959C34.7297 87.4702 34.2914 90.3974 34.3714 93.3861C34.386 93.9298 34.4567 94.472 34.5104 95.1214C34.86 91.5644 35.4014 88.1482 36.2111 84.6842C36.817 85.0582 37.2598 85.4929 37.7073 85.911C37.8952 86.0865 37.7487 86.3557 37.7041 86.5819C37.1683 89.3029 36.7017 92.0313 36.8355 94.8228C36.8476 95.0749 36.87 95.3266 36.9339 95.5829C37.4452 92.538 37.8267 89.4741 38.4871 86.3839C39.0968 86.5824 39.6155 86.8808 40.1404 87.1587C40.3655 87.278 40.2641 87.5027 40.2396 87.6894C40.083 88.8855 39.9236 90.0812 39.8026 91.2848C40.2286 90.0111 40.499 88.6984 40.7786 87.373C41.2946 87.3134 41.7343 87.5087 42.1897 87.5614C42.4431 87.5907 42.4399 87.8072 42.4097 88.0197C42.0115 90.8178 41.6084 93.6152 41.2253 96.4154C40.9434 98.4759 40.7143 100.542 40.8058 102.77C41.5384 98.1056 42.3574 93.6018 43.2633 89.1138C43.355 88.6597 43.2663 88.0912 43.6066 87.784C43.9438 87.4795 44.4607 87.8028 44.9019 87.7702C45.2846 87.7418 45.6711 87.7643 46.0706 87.7643C46.204 88.0844 46.0413 88.3746 45.9606 88.6634C45.1463 91.5747 44.1097 94.4288 43.5898 97.4159C43.0484 100.527 43.1083 103.596 44.5188 106.519C44.7484 106.995 45.0002 107.452 45.3857 107.901C44.1239 101.305 45.4755 94.9888 46.9951 88.6254C47.675 89.1245 48.4522 89.1713 49.1958 89.4201C47.4091 95.5755 45.6123 101.687 47.1 108.148C47.1887 101.999 48.1622 95.9771 49.6388 89.8637C49.9198 90.2246 49.8194 90.4638 49.8514 90.6774C49.8827 90.886 49.902 91.0963 49.9378 91.401C51.4503 90.9556 52.4249 89.9594 53.352 88.6561C51.8518 88.1379 50.6227 87.3695 49.7167 85.8766C51.9891 86.0869 54.0798 86.4964 56.2123 86.4843C58.3577 86.4722 60.466 86.1467 62.6094 85.9237C61.801 87.2697 60.6169 88.0843 59.1912 88.5629C59.4548 89.6876 61.3792 91.2336 62.3408 91.0319C63.3831 96.6101 64.206 102.206 64.2594 107.96C64.4989 106.983 64.611 106.046 64.6431 105.107C64.7889 100.847 64.2449 96.6595 63.2757 92.5194C63.0498 91.5544 62.8316 90.5876 62.5903 89.5366C63.259 89.5182 63.8565 89.5438 64.4478 89.4608C64.7275 89.4215 64.7298 89.7444 64.7684 89.941C65.0311 91.2795 65.308 92.616 65.5301 93.9615C65.911 96.2692 66.2481 98.5858 66.4357 100.917C66.6172 103.173 66.7423 105.436 66.484 107.698C66.4753 107.773 66.4829 107.851 66.4829 108.085C66.8774 107.026 67.0089 106.068 67.1019 105.109C67.3671 102.373 67.1404 99.6511 66.818 96.9344C66.4957 94.2188 65.9199 91.5488 65.3158 88.8861C65.1964 88.3597 65.3506 88.1862 65.8369 88.1143C66.2204 88.0576 66.6002 87.9491 66.9689 87.8255C67.3345 87.7029 67.5017 87.7988 67.5854 88.1813C68.2391 91.171 68.9559 94.1463 69.5424 97.1516C69.9346 99.1616 70.192 101.189 70.5504 103.206C70.3973 101.764 70.2759 100.318 70.0849 98.8809C69.6115 95.3205 68.8134 91.8173 68.1725 88.2864C68.0905 87.8345 68.1442 87.5662 68.7036 87.633C69.2698 87.7006 69.8335 87.5973 70.3927 87.5108C70.7503 87.4556 70.8839 87.6058 70.9121 87.9496C71.2708 92.3277 71.9819 96.653 72.8831 100.949C72.9346 101.194 72.8723 101.462 73.1039 101.8C72.8797 99.7966 72.65 97.9158 72.463 96.0308C72.2088 93.4692 71.9263 90.909 71.8217 88.3355C71.7724 87.1222 71.8196 87.097 73.1295 86.8104C73.4616 89.0562 73.8629 91.2868 74.4218 93.4912C74.271 91.9003 74.1213 90.3093 73.969 88.7185C73.9095 88.0972 73.8548 87.475 73.7772 86.8559C73.7359 86.5258 73.8107 86.2989 74.1321 86.1439C74.7984 85.8224 75.2965 85.2552 75.9725 84.7571C76.5875 87.4367 77.0458 90.0346 77.4145 92.6513C77.4678 91.6674 77.2508 90.7076 77.1256 89.7424C76.9074 88.0598 76.6408 86.3833 76.3892 84.705C76.3427 84.3951 76.4223 84.1365 76.6051 83.8841C79.0532 80.502 79.1052 77.032 76.9761 73.4848C76.9579 73.4545 76.9627 73.4104 76.9512 73.338C77.2187 73.2851 77.3227 73.5068 77.4554 73.6416C79.2101 75.425 80.8105 77.3458 82.4207 79.2566C83.9429 81.0631 85.4097 82.9165 86.9472 84.7095C87.6723 85.5551 88.6426 86.1446 89.4992 86.8524C93.3374 90.024 97.2787 93.0666 101.198 96.1363C101.486 96.362 101.559 96.5609 101.377 96.9211C101.1 97.4699 100.911 98.0629 100.649 98.7266C98.8048 97.5144 96.8945 96.7692 94.683 97.1159C95.4325 96.2959 96.4289 96.0297 97.6135 95.7616C94.0127 93.1227 90.6384 90.4082 87.2758 87.7475C86.9729 87.868 86.9589 88.0857 86.9031 88.2612C86.4307 89.7485 85.9948 91.248 85.4918 92.7247C85.2338 93.4821 85.3814 94.0583 85.9126 94.6413C87.5321 96.4183 89.276 98.0706 90.977 99.7655C92.4847 101.268 94.0153 102.748 95.5571 104.215C95.931 104.571 96.0215 104.809 95.6593 105.265C94.7478 106.411 94.7666 106.443 93.6704 105.448C92.3853 104.282 91.1185 103.095 89.852 101.924C89.6084 101.962 89.5837 102.161 89.5194 102.312C88.8681 103.837 88.23 105.369 87.573 106.892C87.3286 107.459 87.2076 108.035 87.223 108.654C87.2449 109.533 87.1822 110.415 87.2429 111.29C87.2918 111.995 86.8923 112.39 86.4144 112.878C85.9986 111.95 85.7723 111.031 85.5299 110.118C85.4499 109.817 85.3984 109.508 85.3255 109.204C85.077 108.17 85.1168 107.185 85.5579 106.179C86.3098 104.463 86.9462 102.698 87.6772 100.973C87.9134 100.415 87.8233 100.058 87.4024 99.6365C86.2991 98.532 85.1636 97.4579 84.1368 96.2771C83.2142 95.2163 82.8402 94.0699 83.2428 92.6571C83.8041 90.6869 84.3935 88.7263 85.034 86.7815C85.1923 86.3011 85.1493 85.9725 84.7038 85.6956C84.248 85.4123 83.9194 84.9399 83.3898 84.765C83.1345 84.9415 83.1111 85.213 83.032 85.4438C82.6765 86.4808 82.2699 87.493 81.6555 88.4079C81.4905 88.6536 81.4901 88.9168 81.4886 89.1926C81.4787 91.0048 81.5786 92.8201 81.0276 94.5942C80.3074 96.9134 78.9937 98.7532 76.8594 99.9522C76.5352 100.134 76.4414 100.342 76.416 100.684C76.2865 102.427 75.8793 104.08 74.7101 105.451C73.8979 106.403 72.9405 107.156 71.7155 107.512C70.9788 107.726 70.9776 107.722 70.4651 107.166C70.2641 107.372 70.226 107.651 70.1311 107.9C69.5526 109.419 68.6734 110.706 67.2549 111.556C66.4939 112.012 65.7015 112.2 64.9006 111.613C64.5467 111.354 64.4032 111.698 64.2517 111.883C63.4586 112.854 62.5021 113.633 61.3682 114.139C57.2791 115.962 53.3368 115.805 49.6255 113.134C48.973 112.665 48.4789 112.026 47.9582 111.423C46.8581 112.292 45.7985 112.113 44.536 111.031C43.5247 110.164 42.8038 109.08 42.3388 107.828C42.2651 107.63 42.1709 107.439 42.0591 107.183C41.3887 107.891 40.7075 107.554 40.0695 107.234C37.7254 106.059 36.3774 104.145 36.0887 101.548C35.9905 100.664 35.7452 100.139 34.8936 99.6379C32.1345 98.0137 30.8133 95.4191 30.5675 92.2756C30.4826 91.1887 30.5515 90.0895 30.5566 88.9959C30.5577 88.7596 30.5716 88.5267 30.4343 88.3172C29.3264 86.6263 28.7898 84.7459 28.6217 82.7522C28.4603 80.8376 27.9016 78.9987 27.587 77.1139C27.4683 76.4025 27.366 75.6878 27.2789 74.9719C27.244 74.6844 27.1482 74.5029 26.8446 74.4388C24.5927 73.9636 23.3111 72.4071 22.4499 70.4216C21.2192 67.5843 20.4539 64.6294 20.4028 61.5219C20.3734 59.7326 20.5828 57.979 21.4083 56.3452C22.2843 54.6114 23.9296 53.68 25.8601 53.8577C26.1273 53.8823 26.3944 53.9079 26.6975 53.9365C26.682 53.1406 26.4526 52.4102 26.3007 51.6748C25.4593 47.6036 24.7901 43.5031 24.2736 39.3811C23.8464 35.9716 23.6071 32.5438 23.9988 29.1074C24.1455 27.8202 24.4941 26.5833 25.0076 25.3927C25.0812 25.2222 25.2271 25.0651 25.1474 24.8117C24.2661 24.9986 23.5433 25.4729 22.7611 26.1124C22.6588 25.3904 22.7553 24.7639 22.8939 24.162C23.471 21.6564 24.8444 19.6732 26.947 18.2039C27.405 17.8838 27.7365 17.5159 28.0053 17.0111C28.9854 15.1714 30.546 13.9699 32.4767 13.2536C33.0042 13.0579 33.4174 12.7939 33.8165 12.3867C34.94 11.2405 36.3768 10.6873 37.9509 10.5193C41.3904 10.1523 44.5595 11.0633 47.5919 12.6078C50.9693 14.3281 53.7903 16.8024 56.6216 19.2596C57.457 19.9846 58.2218 20.791 59.0555 21.5953C58.5982 19.5019 55.421 15.1714 50.6063 12.3376C46.8565 10.1305 42.8 9.16501 38.4601 9.46288C38.3932 9.27414 38.5329 9.25378 38.6279 9.1976C41.1777 7.69138 43.9812 6.95613 46.8773 6.54334C49.5693 6.15963 52.2769 6.04056 54.9926 6.28604C57.5267 6.51509 60.024 6.9192 62.405 7.8621C62.7582 8.00195 63.1125 8.04558 63.4876 8.06225C68.5069 8.28525 72.7761 10.1194 76.083 13.9821C76.6154 14.604 77.1173 15.2602 77.458 16.0132C77.6249 16.382 77.8865 16.5749 78.2576 16.7148C80.3331 17.4972 82.1076 18.6984 83.3712 20.5575C84.5084 22.2305 84.5885 23.9597 83.6035 25.746C82.6528 27.4702 81.1581 28.6064 79.5335 29.6129C78.8884 30.0126 78.2165 30.3628 77.4555 30.6995C80.5241 30.2607 84.6262 28.1437 85.37 24.3246C85.6772 24.2684 85.7594 24.5359 85.8884 24.708C87.3294 26.631 87.9296 28.8537 88.1529 31.1989C88.4643 34.4688 88.1062 37.7062 87.6244 40.9345C87.4575 42.0526 87.269 43.1676 87.086 44.2833C87.0574 44.4577 86.9899 44.6372 87.1511 44.7756C87.7661 45.3032 88.386 45.8252 89.077 46.4112C89.3638 45.2311 89.4133 44.1403 89.585 43.0701C89.6561 42.6265 89.8278 42.2567 90.1078 41.917C92.4795 39.0392 94.8619 36.1702 97.2097 33.273C98.0201 32.2729 98.9475 31.8503 100.27 32.0195C101.853 32.222 103.462 32.2137 105.06 32.3063C107.591 32.453 110.122 32.6098 112.654 32.7571C113.102 32.7831 113.552 32.7788 114.001 32.7972C114.306 32.8098 114.474 32.9333 114.543 33.2779C114.878 34.9507 114.881 34.9197 113.176 34.7799C111.407 34.6348 109.631 34.5743 107.857 34.4958C106.414 34.432 104.97 34.4072 103.527 34.3439C102.692 34.3072 102.121 34.681 101.693 35.369C99.6737 38.6185 97.6581 41.8707 95.6113 45.103C95.1461 45.8378 95.1326 46.6584 94.9831 47.4534C94.8211 48.3148 94.7458 49.1921 94.6176 50.0603C94.5529 50.4988 94.6124 50.847 95.0258 51.1186C95.4124 51.3726 95.7483 51.7038 96.0567 51.9596C96.2816 51.9548 96.3348 51.8412 96.4001 51.7476C97.1604 50.6579 98.2057 49.9356 99.3886 49.3693C100.784 48.7012 101.078 47.0577 100.049 45.8609C99.8881 45.6738 99.6436 45.5573 99.542 45.264C99.9125 45.1236 100.237 45.3146 100.559 45.3778C102.391 45.7384 103.398 45.183 103.676 42.9355C103.783 42.0678 103.738 41.1897 103.576 40.2964C104.377 40.8686 104.845 41.741 105.672 42.4362C105.68 41.108 105.439 39.9047 105.203 38.7C105.512 38.6424 105.532 38.8679 105.619 38.9964C106.469 40.2577 107.202 41.6011 108.254 42.7203C108.711 43.2061 109.211 43.6364 109.76 44.0157C110.122 44.2658 110.376 44.2643 110.701 43.9076C111.648 42.8674 112.826 42.2066 114.226 41.9697C114.552 41.9144 114.879 41.8719 115.298 41.9994C114.953 42.4082 114.616 42.7691 114.322 43.1622C112.594 45.4724 110.177 46.7725 107.588 47.8563C104.87 48.9938 102.157 50.15 99.5299 51.4899C98.7972 51.8635 98.1116 52.3085 97.684 53.062C97.1556 53.993 97.0948 54.9324 97.6951 55.8255C98.2705 56.6817 99.1568 56.8539 100.13 56.7303C101.028 56.6161 101.786 56.2751 102.236 55.4404C102.833 54.334 102.453 52.8812 101.321 51.867C101.194 51.7532 101 51.7068 100.937 51.4955C101.248 51.1191 101.563 51.1288 101.913 51.4622C103.099 52.5915 103.806 53.9289 103.742 55.6084C103.736 55.7816 103.741 55.9553 103.741 56.2209C107.586 54.6867 111.391 53.1684 115.235 51.6345C115.436 52.3543 115.451 52.9557 115.498 53.5535C115.526 53.9117 115.238 53.9451 115.015 54.0409C111.767 55.4325 108.491 56.7534 105.198 58.033C104.584 58.2717 103.98 58.5362 103.27 58.8308C104.26 59.7763 105.267 60.4937 106.542 60.7788C107.218 60.9298 107.895 60.9266 108.579 60.8445C112.339 60.393 115.744 63.2904 115.801 66.9831C115.839 69.5008 114.194 71.8567 111.842 72.6508C109.256 73.5237 106.525 72.6948 104.926 70.5721C104.291 69.73 103.845 68.7998 103.627 67.7791C103.309 66.289 102.558 65.0683 101.465 64.0381C100.757 63.3714 100.042 62.7129 99.317 62.039C98.8418 62.3465 98.5014 62.7226 98.1663 63.0964C96.914 64.4936 95.5471 65.7781 94.2427 67.1239C93.9425 67.4336 93.7383 67.4771 93.443 67.1361C93.1886 66.8425 92.9007 66.5686 92.5909 66.3346C92.1553 66.0056 92.1624 65.7398 92.5453 65.3522C93.6706 64.2135 94.7626 63.0419 95.8678 61.8834C95.9217 61.8269 95.9785 61.7731 96.0323 61.7165C97.1654 60.5236 97.1745 60.1521 96.0682 58.7906C95.3982 59.1038 95.0511 59.7762 94.4911 60.2717ZM40.2062 23.0036C42.7301 24.5001 45.0127 26.3438 47.4157 28.0142C50.0304 29.8318 52.8206 31.2566 56.1344 31.8794C55.6636 31.5575 55.3124 31.3195 54.9634 31.0784C51.651 28.7902 48.7061 26.0227 45.4112 23.7161C41.3727 20.8889 36.9544 19.2125 31.9249 19.6098C30.4389 19.7271 29.0262 20.1261 27.7223 20.8832C28.6257 20.7645 29.5276 20.6765 30.4322 20.6089C30.938 20.571 31.1366 20.7436 31.0977 21.2713C30.9918 22.707 31.3539 24.057 31.9365 25.3554C32.8414 27.372 34.2735 28.9441 36.0286 30.2419C33.2128 26.4275 31.9494 23.1 32.513 20.8379C33.2859 20.75 34.0546 20.8865 34.8229 20.9925C35.1068 21.0317 35.1758 21.2555 35.1812 21.5157C35.2037 22.5872 35.5117 23.5933 35.9377 24.5614C36.7254 26.3517 37.8883 27.8571 39.4411 29.0611C37.9617 26.7102 36.6449 24.3063 36.4787 21.3994C37.1422 21.4578 37.6014 21.5818 37.7955 22.2485C37.9858 22.9018 38.3464 23.4977 38.7234 24.0694C41.1183 27.7012 44.3609 30.3482 48.2454 32.2455C49.7208 32.9661 51.2825 33.4317 52.8794 33.8017C50.2244 32.4645 47.6362 31.0164 45.2876 29.1957C42.9296 27.3678 40.9036 25.2136 39.2147 22.6465C39.6596 22.6121 39.8601 22.8754 40.2062 23.0036ZM55.9204 8.5952C54.9973 8.57862 54.0766 8.39507 53.1127 8.51793C53.1723 8.58048 53.1916 8.61856 53.2199 8.62715C53.3318 8.66121 53.4469 8.68455 53.5601 8.7145C58.9402 10.1375 63.5332 12.794 66.7307 17.456C69.8725 22.0365 71.0495 26.9707 68.9175 32.3576C68.8857 32.4379 68.8162 32.5375 68.9835 32.6104C69.074 32.5291 69.1816 32.4487 69.2697 32.3508C71.4756 29.9007 72.082 27.0171 71.4969 23.8486C71.0146 21.2367 70.0604 18.7875 68.7524 16.4759C68.6819 16.3515 68.5481 16.228 68.7014 15.9887C69.7056 17.0592 70.479 18.2832 71.4037 19.3872C71.3906 18.7658 71.1363 18.2379 70.8845 17.7164C69.2347 14.2993 66.4447 12.0867 63.1245 10.4634C60.8896 9.37075 58.4887 8.86013 55.9204 8.5952ZM66.2112 24.8116C66.8466 27.0467 67.165 29.3084 66.7651 31.6334C67.0526 30.7547 67.2846 29.8777 67.383 28.9593C67.899 24.1466 66.4584 19.9936 63.0729 16.576C59.8182 13.2906 55.8788 11.1879 51.3271 10.2832C50.7479 10.1681 50.1562 9.99382 49.5482 10.1831C49.8588 10.3756 50.178 10.5145 50.4999 10.6468C54.9641 12.4808 58.5547 15.3667 61.1272 19.4764C62.8737 22.2663 63.8804 25.2922 63.868 28.5987C63.8616 30.3105 63.5071 31.9807 62.735 33.6847C63.9324 32.2652 64.8001 29.9947 64.8946 28.251C65.0825 24.7843 64.2283 21.5625 62.6452 18.506C62.5651 18.3515 62.3834 18.2047 62.5753 17.9284C64.1627 20.0179 65.434 22.2282 66.2112 24.8116ZM105.05 64.73C105.157 65.1053 105.232 65.4849 105.284 65.8737C105.428 66.9543 105.503 68.0594 106.135 69.0067C107.099 70.4517 108.434 71.2168 110.191 71.0943C111.739 70.9864 112.897 70.2231 113.534 68.7963C114.203 67.2979 113.997 65.8377 113.053 64.5279C112.036 63.1153 110.566 62.4415 108.87 62.6941C106.85 62.9952 105.08 62.6172 103.47 61.3879C102.485 60.6353 101.493 59.8915 100.424 59.0834C101.057 59.7408 101.603 60.3406 102.185 60.9025C103.325 62.0036 104.488 63.0816 105.05 64.73ZM54.6215 25.7146C53.3746 24.7114 52.1121 23.727 50.8843 22.7011C48.5782 20.7743 46.3389 18.7629 43.8432 17.0765C41.047 15.1872 37.9853 14.3662 34.6159 14.9257C33.8902 15.0462 33.1524 15.1719 32.3773 15.6518C33.7901 15.8047 35.0481 15.9504 36.2682 16.3107C39.3217 17.2125 42.017 18.8299 44.639 20.5677C48.204 22.9306 51.7838 25.2615 55.6452 27.1242C56.2546 27.4182 56.8547 27.7316 57.4591 28.036C57.472 28.011 57.4849 27.986 57.4979 27.961C56.5603 27.2303 55.6228 26.4997 54.6215 25.7146ZM56.0018 21.5155C57.9516 23.2877 59.6251 25.2884 60.9671 27.5633C60.5779 26.0787 59.861 24.7623 58.9448 23.5627C57.0341 21.061 54.7278 18.9651 52.1866 17.1218C48.9908 14.8036 45.5733 12.9704 41.5977 12.4141C40.3575 12.2406 39.108 12.245 37.8689 12.48C38.1137 12.5758 38.3594 12.634 38.6051 12.6917C41.3759 13.3424 43.9366 14.4522 46.2116 16.182C48.6226 18.0152 50.8228 20.1 53.1652 22.0148C53.8623 22.5847 54.5054 23.2309 55.3317 23.6425C53.6227 21.1446 51.5498 18.9812 49.1924 16.9004C50.3326 17.1389 53.6226 19.3992 56.0018 21.5155ZM76.4487 20.6389C75.475 16.3928 73.0322 13.3352 69.0142 11.4528C72.1098 15.0157 72.717 15.7869 73.8816 18.5101C75.9454 23.336 75.7789 28.0381 72.8746 32.5261C72.819 32.6121 72.6886 32.6929 72.7921 32.838C73.0422 32.7901 73.1794 32.587 73.3429 32.4294C74.5579 31.2581 75.4556 29.8731 76.0415 28.2953C76.9596 25.823 76.9385 23.29 76.4487 20.6389ZM98.8371 34.2867C96.7601 36.8715 94.6723 39.4477 92.6166 42.0494C92.2627 42.4973 91.7727 42.8872 91.6925 43.5136C91.5143 44.9059 91.3457 46.2995 91.1668 47.6918C91.1487 47.8319 91.1088 47.9764 91.2305 48.0728C91.6347 48.3929 91.9863 48.7871 92.513 49.0389C92.6799 48.552 92.7575 48.0906 92.7729 47.6312C92.8294 45.9435 93.4045 44.467 94.3373 43.0583C96.1787 40.2777 97.9302 37.4374 99.7142 34.6188C99.7993 34.4844 99.9639 34.3627 99.8715 34.1458C99.5443 34.1327 99.2147 34.0426 98.8371 34.2867ZM24.1695 60.9171C23.9136 61.273 24.0026 61.759 23.7114 62.2803C23.3634 60.7565 23.516 59.422 23.8379 58.0845C23.7681 58.1365 23.7263 58.1957 23.691 58.2586C22.93 59.6173 22.8784 61.108 23.0258 62.5857C23.2477 64.8108 23.827 66.9542 24.9346 68.9212C25.4123 69.7696 26.1296 70.3261 27.2088 70.5794C27.2678 69.374 27.3262 68.2387 27.1802 67.0993C27.1566 66.9152 27.0337 66.841 26.8606 66.816C25.6589 66.6428 25.2485 65.7589 25.0528 64.7317C24.8412 63.6208 25.2027 62.5737 25.5121 61.5275C25.7391 60.7601 25.9653 59.9926 26.2141 59.1498C25.1618 59.3877 24.5609 59.9688 24.1695 60.9171ZM52.3025 103.19C52.2953 105.704 52.3388 108.211 53.2476 110.605C52.9311 108.372 52.8486 106.138 53.0956 103.887C53.2736 104.436 53.2777 105.015 53.4983 105.695C53.6708 101.218 53.7327 96.8951 54.0667 92.5806C52.9092 95.9841 52.4157 99.4976 52.3025 103.19ZM51.7857 93.2621C51.8103 93.0317 51.9138 92.8031 51.7786 92.5687C49.7318 98.1053 49.1203 103.689 51.1999 109.362C50.7884 106.46 50.8878 103.544 51.0422 100.626C51.171 98.192 51.5358 95.7828 51.7857 93.2621ZM56.6052 108.695C56.6052 109.99 56.6052 111.285 56.6052 112.58C56.6652 112.58 56.7253 112.58 56.7854 112.58C57.3046 106.067 57.2187 99.5511 56.9521 93.0339C56.8549 93.033 56.7577 93.0322 56.6605 93.0313C56.5577 98.2131 56.6194 103.397 56.6052 108.695ZM80.2821 34.7592C82.4538 34.5106 84.4285 33.892 85.6719 31.884C82.8682 32.5518 80.1789 33.5583 77.4459 34.4524C78.3547 34.7586 79.2617 34.7886 80.2821 34.7592ZM29.4081 32.7744C28.3692 32.4339 27.3369 32.0689 26.2076 31.8511C27.4433 34.463 32.2891 35.3409 34.224 34.4155C32.6178 33.8694 31.0562 33.3385 29.4081 32.7744ZM60.7995 105.601C60.7085 106.413 60.7616 107.233 60.6195 108.041C61.7791 104.856 61.1755 93.9092 59.7383 92.2323C59.8524 93.1502 59.926 94.0243 60.0741 94.8856C60.6782 98.3969 60.8003 101.94 60.7995 105.601ZM33.1315 76.8139C33.2897 75.5081 33.2894 74.208 33.0263 72.7436C32.6946 74.5874 32.4832 76.2681 32.3144 77.955C32.1466 79.6321 32.0353 81.3108 32.1072 83.0009C32.5767 80.9945 32.9516 78.9754 33.1315 76.8139ZM86.2123 34.6507C86.2122 34.6318 86.2183 34.6095 86.2103 34.5948C86.2027 34.5809 86.1763 34.5634 86.1652 34.5673C85.0069 34.9745 83.8116 35.2746 82.6864 35.7781C81.9556 36.105 81.2459 36.4658 80.6006 36.9432C81.2972 36.9032 81.9773 36.8493 82.6477 36.737C84.0739 36.4981 85.3563 35.9876 86.2123 34.6507ZM84.6801 38.5718C84.9642 38.3761 85.2553 38.1872 85.4325 37.8389C83.6261 37.9712 80.0881 38.8539 79.499 39.3359C80.3389 39.3359 81.1361 39.3606 81.931 39.3295C82.8715 39.2928 83.7893 39.1306 84.6801 38.5718ZM26.1452 34.6884C26.02 34.6487 25.9057 34.549 25.7224 34.633C26.9685 36.7122 29.1297 36.6649 31.1183 37.0061C29.6169 35.9623 27.9528 35.2676 26.1452 34.6884ZM31.6838 38.9897C29.9634 38.5736 28.2657 38.051 26.4614 37.804C27.1059 39.3402 30.6985 39.6058 32.0477 39.1337C31.9329 39.089 31.8451 39.0547 31.6838 38.9897ZM31.1094 29.4197C29.7003 28.2734 28.5001 26.9312 27.4101 25.4859C27.9498 28.0043 29.8504 29.2194 31.9784 30.2163C31.7104 29.9679 31.4423 29.7196 31.1094 29.4197ZM81.7192 23.1156C81.7771 22.8211 81.685 22.5615 81.5302 22.2972C81.1588 23.6085 80.7069 24.8727 80.1459 26.1005C81.0498 25.3381 81.5765 24.3804 81.7192 23.1156ZM38.641 96.7239C38.675 96.3618 38.7089 95.9996 38.7429 95.6375C38.4513 96.9024 38.2294 98.17 38.2706 99.4679C38.3918 98.5882 38.513 97.7084 38.641 96.7239Z" fill="#201A1A"/>
<path d="M49.8534 69.4965C50.0247 70.2006 49.9538 70.9032 49.9561 71.6018C49.9577 72.0705 50.1277 72.2836 50.6105 72.2716C51.4301 72.2513 52.2507 72.2699 53.0705 72.2524C53.4032 72.2452 53.6751 72.3163 53.9046 72.5757C54.7541 73.5361 57.1349 73.5549 58.2955 72.7651C58.6784 72.5045 58.6875 72.1301 58.6873 71.7291C58.6853 67.765 58.7067 63.8007 58.6844 59.8366C58.6723 57.684 59.2875 55.7267 60.3373 53.8766C61.3682 52.0598 62.9857 51.2098 64.9999 50.9378C67.7229 50.5701 70.4569 50.6983 73.1857 50.731C74.7911 50.7502 76.3842 50.9956 77.7601 51.9468C78.7976 52.664 79.6302 53.5686 80.3204 54.8352C77.9851 54.136 75.7547 54.0152 73.5098 54.0964C73.4934 54.1666 73.477 54.2367 73.4606 54.3068C74.3699 54.7485 75.2792 55.1903 76.1885 55.632C76.1757 55.6786 76.1629 55.7252 76.1501 55.7718C72.4413 55.5443 68.7126 55.1639 65.0899 57.0707C66.3157 57.8822 67.4628 58.3798 68.7036 58.6658C70.7804 59.1444 72.7275 58.7436 74.5904 57.7852C75.0188 57.5648 76.0028 58.091 76.0587 58.5728C76.0835 58.7873 75.9016 58.8738 75.7756 58.9861C73.1281 61.3476 70.148 61.7312 66.8984 60.4623C66.1492 60.1698 65.4947 59.6966 64.7943 59.3107C63.6037 58.6546 62.7407 59.0192 62.3251 60.3177C62.0497 61.1782 62.1024 62.0616 62.18 62.9319C62.4469 65.9238 62.8917 68.895 63.47 71.8398C63.8097 73.5694 62.8701 74.7151 61.375 75.1567C61.1371 75.2269 60.8756 75.2384 60.6044 75.4566C61.2562 75.5441 61.8461 75.6159 62.4336 75.7035C64.7212 76.0446 66.5119 77.2799 68.1224 78.852C68.8589 79.5708 69.5307 80.3777 70.545 80.749C71.8242 81.2172 73.0919 80.9161 73.8277 79.9564C74.6036 78.9441 74.6039 77.4843 73.8371 76.4013C73.0962 75.355 72.0103 74.8501 70.8411 74.4725C70.6222 74.4018 70.401 74.3382 70.0284 74.225C70.8528 73.7444 71.6155 73.5323 72.4179 73.4557C75.3819 73.1727 77.2922 75.4563 77.3669 78.1707C77.4758 82.1255 74.3861 85.6566 70.3276 86.2799C67.5975 86.6991 65.0593 86.0266 62.6129 84.8785C61.6749 84.4383 60.7722 83.9306 59.9349 83.3176C59.6391 83.101 59.3755 83.0459 59.0214 83.2027C57.1985 84.0098 55.3531 84.0702 53.5163 83.2564C53.0444 83.0474 52.7099 83.2135 52.3338 83.464C49.4877 85.3598 46.3958 86.4762 42.9307 86.3938C38.4892 86.2881 34.9442 82.5458 35.1274 78.1282C35.1736 77.0152 35.4968 75.9756 36.1873 75.0786C37.7456 73.054 40.1319 73.1273 42.1668 74.12C42.1924 74.1324 42.1973 74.187 42.231 74.2677C41.7882 74.4078 41.3405 74.5221 40.9136 74.6894C39.4974 75.2447 38.4229 76.1184 38.0812 77.7035C37.652 79.6945 39.4724 81.4113 41.4436 80.8651C42.5464 80.5595 43.3695 79.8454 44.1239 79.0481C45.5368 77.5547 47.1748 76.4391 49.1775 75.9061C50.0262 75.6803 50.8923 75.5434 51.7908 75.3919C51.4968 75.2969 51.2001 75.2093 50.9091 75.1057C49.2879 74.5286 48.6337 73.3406 49.0403 71.6727C49.2236 70.9207 49.426 70.1705 49.8534 69.4965ZM56.3551 78.6353C56.147 78.5227 56.0779 78.6819 56.0062 78.8198C55.6921 79.4235 55.3845 80.0305 55.0683 80.633C54.893 80.9671 55.0462 81.1608 55.3478 81.2584C55.876 81.4292 56.412 81.4635 56.9535 81.2907C57.5078 81.1137 57.5791 80.966 57.3174 80.452C57.0178 79.8633 56.7139 79.2768 56.3551 78.6353Z" fill="#201A1A"/>
<path d="M94.195 81.1853C93.5698 82.0363 93.5676 82.0392 94.3595 82.6585C94.6656 82.898 94.9845 83.1211 95.3169 83.3658C95.8172 83.0376 96.1101 82.5446 96.4635 82.1156C97.1337 81.3021 97.7806 80.4693 98.4286 79.6378C98.7222 79.261 98.9806 79.1127 99.423 79.4982C101.017 80.8866 100.898 80.2123 99.7278 81.8847C99.091 82.7949 98.3786 83.6534 97.679 84.518C97.4544 84.7955 97.457 84.9683 97.75 85.1807C98.2386 85.5348 98.7063 85.9177 99.1894 86.2936C99.5562 86.1306 99.7382 85.8207 99.9512 85.5531C100.693 84.6214 101.434 83.6887 102.15 82.7376C102.394 82.4137 102.576 82.3225 102.951 82.5809C104.336 83.5368 104.359 83.6076 103.348 84.943C102.736 85.7523 102.136 86.571 101.512 87.3718C101.284 87.6656 101.292 87.8758 101.596 88.0993C101.989 88.3877 102.364 88.7008 102.749 89.0002C103.101 89.274 103.285 88.9865 103.462 88.7633C104.227 87.8005 105 86.8433 105.73 85.8551C106.041 85.4353 106.284 85.3375 106.701 85.7138C107.749 86.6593 107.92 86.3249 106.924 87.7014C106.24 88.6466 105.537 89.5782 104.834 90.5286C105.301 91.0334 105.885 91.3434 106.256 91.8645C105.54 92.6973 105.295 92.7453 104.479 92.1362C101.006 89.5445 97.5503 86.9293 94.0681 84.3503C91.3699 82.3519 88.6357 80.4024 85.8371 78.5458C85.5102 78.3289 85.3881 78.138 85.6587 77.8052C85.7438 77.7006 85.803 77.5734 85.8652 77.452C85.9277 77.3302 86.0031 77.192 85.8533 77.0863C85.7045 76.9813 85.5952 77.0863 85.5085 77.1979C85.4009 77.3364 85.2984 77.4796 85.2042 77.6275C85.07 77.8381 84.905 77.9435 84.6707 77.7888C84.4407 77.637 84.2795 77.4513 84.4654 77.1586C84.5804 76.9775 84.7004 76.7992 84.8089 76.6142C84.8872 76.4806 84.9886 76.3286 84.7981 76.2078C84.6165 76.0926 84.5093 76.2351 84.4099 76.3556C84.3231 76.4607 84.2421 76.5716 84.1689 76.6865C84.018 76.9235 83.858 77.0788 83.5508 76.9C83.2068 76.6998 83.3065 76.4636 83.4561 76.2098C83.5354 76.0753 83.6259 75.9468 83.6976 75.8085C83.7722 75.6649 83.9573 75.498 83.7235 75.3605C83.5163 75.2386 83.4114 75.4415 83.3046 75.573C83.2188 75.6787 83.1538 75.8011 83.0713 75.9097C82.9167 76.1134 82.7351 76.235 82.469 76.097C82.1714 75.9428 82.2502 75.7178 82.3602 75.4996C82.4653 75.291 82.5977 75.0965 82.7101 74.8914C82.7893 74.7469 82.9685 74.5832 82.7563 74.4347C82.5064 74.2596 82.4243 74.5222 82.3131 74.6622C82.1798 74.8298 82.0703 75.0164 81.9364 75.1835C81.7961 75.3586 81.6223 75.3998 81.4215 75.2688C81.2186 75.1364 81.2241 74.9789 81.2989 74.7639C81.4384 74.3627 81.8569 74.0573 81.7487 73.5228C81.3238 73.5846 81.2552 73.9624 81.0439 74.1859C80.8751 74.3644 80.7331 74.6445 80.4256 74.4562C80.1003 74.257 80.251 73.9986 80.3741 73.7416C80.5236 73.4294 80.8481 73.1753 80.772 72.732C80.3025 72.7457 80.2547 73.1533 80.0377 73.3644C79.8508 73.5461 79.7311 73.8696 79.3836 73.6292C79.0424 73.3931 79.252 73.163 79.3992 72.9312C79.5351 72.7171 79.6685 72.5011 79.7928 72.2803C79.8712 72.141 79.9385 71.982 79.7596 71.8678C79.5698 71.7464 79.4767 71.9026 79.3866 72.0293C79.217 72.2678 79.0518 72.5096 78.887 72.7515C78.745 72.9597 78.5744 73.0455 78.3484 72.8772C78.145 72.7257 78.1911 72.5487 78.2984 72.3608C78.4913 72.0228 78.6828 71.6838 78.863 71.339C78.9223 71.2255 78.8931 71.1092 78.7316 71.0121C78.345 71.1451 78.2586 71.5645 78.0316 71.8534C77.8665 72.0636 77.7601 72.3833 77.4046 72.1412C77.0739 71.9161 77.2601 71.6712 77.4002 71.4327C77.5385 71.1972 77.6775 70.9619 77.808 70.7221C77.9036 70.5465 77.9637 70.3647 77.7744 70.1623C77.381 70.3345 77.2638 70.7241 77.052 71.0303C76.9045 71.2435 76.8151 71.601 76.4519 71.4051C76.056 71.1916 76.2467 70.8871 76.3957 70.6017C76.5826 70.2437 76.9297 69.9433 76.8649 69.4433C76.5056 69.4577 76.4356 69.7378 76.2688 69.9071C76.02 70.1596 75.9845 70.8715 75.4343 70.5155C74.8825 70.1585 75.4417 69.7751 75.6149 69.4273C75.7491 69.158 75.9922 68.9248 75.8457 68.5389C75.3838 68.6564 75.3327 69.1075 75.0855 69.3738C74.9193 69.5529 74.842 69.9327 74.4641 69.6834C74.0937 69.439 74.2384 69.1656 74.4174 68.8797C74.6236 68.5502 74.9549 68.2735 74.9512 67.7336C74.2713 67.9756 74.2272 68.7196 73.678 69.0021C73.3164 68.8214 73.0849 68.4771 72.8141 68.1832C71.7164 66.9915 70.6226 65.7962 69.538 64.5927C69.2642 64.2889 68.9701 63.9586 69.1725 63.4981C69.3696 63.0495 69.7885 62.9733 70.2234 62.8747C70.9322 62.7139 71.4792 62.9743 72.0002 63.3968C73.0919 64.2821 74.201 65.1467 75.2743 66.0538C75.6883 66.4038 75.9471 66.4254 76.3136 65.9798C77.1811 64.9249 78.1077 63.9188 78.9943 62.8792C79.2385 62.593 79.458 62.5585 79.7319 62.804C79.9353 62.9864 80.1409 63.1664 80.3428 63.3504C81.2428 64.1705 81.2918 63.8796 80.4559 64.9671C79.7426 65.895 79.0007 66.8023 78.243 67.6945C77.9473 68.0426 77.9584 68.283 78.3155 68.5536C78.843 68.9533 79.3564 69.3718 79.8993 69.8009C80.4098 69.3889 80.7605 68.874 81.159 68.4043C81.5253 67.9725 81.8611 67.5121 82.2534 67.1059C82.8107 66.5289 82.7923 65.8632 82.6545 65.1564C82.6213 64.9861 82.602 64.8102 82.6015 64.6368C82.5968 63.1527 82.5951 61.6686 82.6004 60.1845C82.6011 59.98 82.5398 59.7526 82.7548 59.5505C83.3816 59.9088 83.8502 60.463 84.3902 60.9258C86.2875 62.5519 88.1866 64.1763 90.005 65.8924C90.2836 66.1553 90.4065 66.4226 90.3933 66.8111C90.3693 67.5147 90.3008 68.2113 90.2114 68.9083C90.0281 70.3385 89.1772 71.4065 88.3084 72.4686C87.6658 73.2542 87.0395 74.0534 86.3885 74.8321C86.128 75.1436 86.1603 75.3694 86.4695 75.6136C86.9573 75.9987 87.4296 76.4033 87.9556 76.8386C88.436 76.2655 88.8839 75.7337 89.329 75.1996C89.8913 74.5247 90.4521 73.8486 91.012 73.1717C91.168 72.9831 91.3247 72.7918 91.5898 73.0016C92.1366 73.4342 92.7129 73.8346 93.1932 74.3793C92.2774 75.7598 91.2389 76.9999 90.2331 78.2638C89.6886 78.9479 89.6748 78.937 90.3608 79.4712C90.4071 79.5072 90.4546 79.5415 90.501 79.5773C91.6096 80.434 91.6029 80.4287 92.4944 79.3075C93.2598 78.3449 94.0516 77.4034 94.8127 76.4376C95.0713 76.1095 95.3042 76.04 95.6342 76.3244C95.9593 76.6046 96.2973 76.8715 96.6442 77.1241C96.98 77.3686 96.9475 77.5802 96.7024 77.8922C95.8586 78.9659 95.0453 80.0635 94.195 81.1853ZM84.9741 68.046C84.0491 69.2982 82.9821 70.4423 82.0722 71.7789C82.5851 72.1982 83.066 72.5883 83.5434 72.9825C83.9213 73.2946 84.2082 73.2423 84.5196 72.8466C85.3039 71.8499 86.095 70.8551 86.9418 69.912C87.5439 69.2414 87.8168 68.503 87.7655 67.62C87.7462 67.2889 87.7584 66.9559 87.7373 66.6249C87.7141 66.262 87.64 65.9105 87.3839 65.512C87.2659 66.7541 87.464 67.9133 87.1474 69.0608C86.6512 68.4493 86.0305 68.0526 85.5063 67.5811C85.253 67.6643 85.1603 67.8477 84.9741 68.046Z" fill="#201A1A"/>
<path d="M33.5841 53.0394C34.7922 51.5649 36.3894 50.9581 38.1798 50.8298C41.2969 50.6064 44.4158 50.5888 47.5271 50.9536C49.8487 51.2259 51.3405 52.5622 52.2922 54.6273C53.2468 56.6989 53.5623 58.8731 53.4355 61.1298C53.4301 61.2254 53.4366 61.3273 53.3287 61.3968C53.1491 61.4428 53.1213 61.2735 53.051 61.1717C52.1844 59.9177 51.0043 59.1773 49.496 58.9223C48.6531 58.7797 47.9616 59.1208 47.2872 59.5131C46.1155 60.1946 44.9121 60.7849 43.5626 61.0151C40.9648 61.4581 38.702 60.7877 36.7685 58.9848C36.412 58.6524 36.4699 58.4419 36.7966 58.1404C37.4993 57.4922 37.4905 57.4706 38.3079 57.8917C41.4603 59.5158 44.4451 58.9563 47.5291 57.1438C44.6342 55.4212 41.6453 55.3799 38.559 55.7659C39.0532 55.3772 39.6593 55.2109 40.223 54.9735C40.8101 54.7262 41.4245 54.5439 42.0157 54.2581C38.8895 54.0485 35.7769 53.9839 32.5835 54.6105C32.7967 53.9648 33.1617 53.509 33.5841 53.0394Z" fill="#201A1A"/>
<path d="M99.3286 89.2225C101.048 90.5294 102.734 91.8105 104.477 93.1342C104.066 93.4651 103.716 93.7349 103.38 94.0207C103.144 94.2223 102.907 94.4295 102.702 94.6624C101.895 95.5808 101.901 95.5833 100.905 94.8066C98.5821 92.9959 96.2934 91.1391 93.9208 89.3967C92.6387 88.4551 92.1724 87.2528 92.2655 85.7605C92.2984 85.2342 92.2041 84.7173 92.2053 84.0129C94.711 85.7012 96.9668 87.5004 99.3286 89.2225Z" fill="#201A1A"/>
<path d="M88.2072 85.2131C87.6904 84.3256 87.797 83.4393 88.4474 82.971C89.0576 82.5318 90.062 82.6079 90.5541 83.1305C91.1529 83.7666 91.1147 84.7615 90.4671 85.3967C89.8536 85.9984 88.9194 85.9373 88.2072 85.2131Z" fill="#201A1A"/>
<path d="M110.869 64.7051C109.207 65 107.637 65.4859 106.012 65.7082C105.98 65.7126 105.943 65.682 105.909 65.6679C106.058 64.436 107.248 63.2864 108.682 63.0456C110.072 62.8123 111.724 63.2691 112.459 64.4993C111.955 64.6947 111.411 64.5276 110.869 64.7051Z" fill="#201A1A"/>
</svg>
