<svg width="120" height="120" viewBox="0 0 120 120" fill="none" xmlns="http://www.w3.org/2000/svg">
<g clip-path="url(#clip0_57_37)">
<path d="M55.1331 120.117C53.7964 118.752 52.5173 117.383 51.2315 116.022C50.8295 115.596 50.4771 115.137 50.0832 114.547C51.0467 114.06 50.0832 114.547 51.7556 113.779C53.2776 112.804 54.376 111.917 54.9609 112.09C55.8448 112.35 55.0305 114.303 55.3125 113.437C55.566 112.659 53.8476 115.137 54.9609 112.09C55.5881 112.224 55.8785 111.956 56.2101 111.364C56.4316 110.968 56.3471 110.709 56.1573 110.408C55.1159 108.758 54.0721 107.108 53.0218 105.463C51.7192 103.423 50.406 101.389 49.1048 99.3475C48.7408 98.7763 48.7656 98.736 49.408 98.4949C54.0297 96.76 58.6507 95.0229 63.2743 93.2928C63.5527 93.1886 63.835 93.0427 64.1592 93.0851C64.1782 93.4013 63.951 93.4992 63.8089 93.6387C61.2716 96.1272 58.6538 98.5293 55.9665 100.854C55.5094 101.249 55.4166 101.571 55.7491 102.076C56.5868 103.347 57.3975 104.636 58.2201 105.916C58.2727 105.998 58.3387 106.072 58.3921 106.153C59.0675 107.186 59.0743 107.198 60.1032 106.579C65.7394 103.188 71.6527 100.371 77.8176 98.0871C80.9478 96.9277 84.1411 95.9587 87.4089 95.2613C87.9438 95.1471 88.0679 94.9497 88.0467 94.4013C87.9423 91.7081 88.0265 89.0161 88.1644 86.3233C88.2563 84.5307 88.371 82.7416 88.5619 80.9583C88.8773 78.0112 89.378 75.0947 89.9833 72.1918C90.7908 68.3192 92.2066 64.6373 93.3955 60.8831C94.4691 57.4927 95.1743 54.0293 95.5136 50.4762C95.9474 45.9351 95.5031 41.4785 94.5777 37.0444C94.4187 36.2829 94.4505 36.2246 95.211 36.214C96.0311 36.2026 96.8517 36.2252 97.6716 36.2089C98.0963 36.2005 98.2968 36.3747 98.3986 36.79C98.9615 39.0857 99.347 41.4114 99.5075 43.7665C99.6307 45.5753 99.6763 47.3856 99.5602 49.2056C99.347 52.5479 98.7375 55.8169 97.9618 59.063C97.3258 61.7241 96.4033 64.2964 95.5204 66.8807C94.465 69.9699 93.795 73.1533 93.2011 76.3554C92.0601 82.5076 91.9094 88.7229 92.0141 94.9547C92.0203 95.3257 92.0166 95.6968 92.0143 96.0679C92.005 97.6046 91.3617 98.4319 89.888 98.798C88.582 99.1224 87.2707 99.4268 85.9692 99.7686C81.8272 100.856 77.8162 102.314 73.8987 104.041C69.0156 106.194 64.2763 108.617 59.757 111.461C59.7405 111.472 59.7241 111.487 59.7061 111.49C58.6291 111.655 58.344 112.456 58.1816 113.368C58.1425 113.588 58.1403 113.797 58.2051 114.003C58.4506 114.785 58.3626 115.556 58.0854 116.301C57.7778 117.127 57.9034 117.87 58.403 118.571C58.6223 118.879 58.7572 119.223 58.8212 119.591C58.8569 119.797 58.9228 119.966 59.147 120.092C57.8491 120.117 56.5185 120.117 55.1331 120.117Z" fill="#201A1A"/>
<path d="M44.2901 60.81C42.6546 61.3175 41.1611 62.0479 39.6527 62.7335C39.1853 62.9459 38.9048 62.8728 38.5794 62.5513C37.2181 61.2066 35.8485 59.8704 34.4816 58.5313C34.4129 58.4639 34.3416 58.3992 34.2768 58.3383C34.0273 58.3767 33.966 58.586 33.865 58.7407C31.4316 62.4678 28.9992 66.1955 26.5751 69.9288C25.9514 70.8894 26.2403 71.5892 27.3552 71.8702C28.3674 72.1254 29.41 72.0677 30.4387 72.1407C31.8589 72.2414 33.2862 72.2478 34.7047 72.3643C35.8088 72.4549 36.4613 73.0647 36.6891 74.0523C36.8941 74.9406 36.5098 75.8861 35.708 76.4575C35.0686 76.9133 34.3291 77.0926 33.5697 77.1859C33.1172 77.2415 32.9621 77.4304 32.9671 77.9019C32.984 79.4893 32.9596 79.5092 34.4547 79.8534C36.4491 80.3124 38.4514 80.7366 40.45 81.1771C40.6785 81.2275 40.911 81.2693 41.1314 81.3448C41.8436 81.5888 42.2244 82.229 42.1009 82.9486C41.9971 83.5536 41.3817 83.9858 40.6297 83.9187C39.368 83.8062 38.1092 83.6599 36.8497 83.5229C36.0359 83.4343 35.2225 83.3412 34.4099 83.2421C33.9768 83.1893 33.7452 83.3066 33.781 83.805C33.8174 84.3102 33.8154 84.8217 33.783 85.3274C33.7507 85.8322 33.9969 85.9817 34.4455 85.9792C35.5587 85.973 36.6719 85.9764 37.7851 85.9791C38.4774 85.9807 38.5456 86.0647 38.3481 86.7267C38.0784 87.6305 37.4023 88.1501 36.5674 88.4536C36.1441 88.6074 35.9851 88.815 36.0074 89.2581C36.0406 89.9205 36.021 90.5858 36.0164 91.2498C36.0145 91.5191 36.0928 91.6721 36.3963 91.7281C38.8341 92.1783 41.2146 92.083 43.4897 90.9997C44.7574 90.3961 45.5071 89.4654 45.4429 87.9666C45.3869 86.6604 45.4553 85.3489 45.406 84.0422C45.3874 83.5502 45.5579 83.3718 45.9958 83.2298C49.3453 82.1438 52.5926 80.8106 55.6706 79.0905C56.8621 78.4246 58.0345 77.7321 59.1266 76.8964C61.0479 75.4262 61.9417 73.4784 62.0776 71.1083C62.2004 68.9673 62.369 66.8289 62.5105 64.6889C62.5232 64.497 62.5573 64.3519 62.7559 64.2734C64.6066 63.542 66.4555 62.8061 68.3064 62.0752C68.3548 62.0561 68.4198 62.0791 68.5999 62.0897C68.5999 66.281 68.5999 70.4731 68.5999 74.784C69.3325 74.4074 69.5692 73.7367 70.0995 73.3879C70.2874 73.5366 70.3064 73.7368 70.3672 73.9152C71.1398 76.1809 73.3744 76.7692 75.149 75.1303C76.7356 73.665 77.8323 71.8388 78.7511 69.9051C79.3799 68.5819 79.9433 67.232 80.1718 65.7683C80.3319 64.7424 80.2509 63.7383 79.8546 62.7794C78.8837 60.4297 76.1124 59.8028 74.1916 61.4835C73.7248 61.8919 73.3025 62.3647 72.6048 62.3892C71.1866 62.4391 70.5087 61.4442 71.1952 60.2067C72.0664 58.6362 73.4544 57.6848 75.1803 57.2728C79.1081 56.3353 82.6781 58.6633 83.6962 62.8049C84.1354 64.5919 84.0348 66.3748 83.474 68.1163C82.3704 71.5434 80.7103 74.6618 78.1292 77.2156C76.8776 78.4539 75.4369 79.3967 73.6156 79.6256C71.9855 79.8305 70.597 79.4121 69.4302 78.2348C69.2215 78.0242 69.074 77.5795 68.6639 77.7357C68.2061 77.91 68.3833 78.3685 68.3517 78.717C68.1778 80.638 68.1165 82.5696 67.7911 84.4762C67.28 87.472 65.6227 89.6457 63.0159 91.1342C60.0232 92.8431 56.8241 94.1052 53.6481 95.4113C50.8158 96.5761 48.0052 97.808 45.0468 98.6346C43.0512 99.1923 41.0357 99.6019 38.9372 99.5563C37.7007 99.5295 36.5362 99.2968 35.4136 98.8137C33.2147 97.8674 32.089 96.1753 31.9443 93.7989C31.8527 92.2963 31.8277 90.7945 31.9465 89.2934C31.9874 88.7764 31.8153 88.4103 31.3897 88.0959C29.7232 86.8645 29.1636 84.7327 30.3049 82.9722C30.4789 82.7038 30.4328 82.5139 30.2034 82.315C29.2128 81.4562 28.8607 80.3403 28.9059 79.0641C28.9288 78.4201 28.9162 77.7744 28.956 77.1316C28.9862 76.6443 28.7774 76.408 28.3116 76.3399C27.4011 76.2068 26.4937 76.0173 25.6543 75.6506C23.6793 74.7878 22.2119 73.4464 21.8414 71.2013C21.7007 70.3487 22.0047 69.5821 22.4595 68.8787C24.8018 65.2553 27.1422 61.6306 29.5069 58.0218C29.8547 57.491 29.981 57.125 29.4874 56.5657C28.5796 55.537 28.4723 54.2416 28.7668 52.9665C29.4606 49.9623 30.415 47.0289 31.3605 44.0966C31.5778 43.4224 31.6104 42.7299 31.7655 42.0526C31.9364 41.306 30.939 40.573 30.0447 40.7195C29.8367 40.7536 29.6678 40.7821 29.5085 40.6274C27.8754 39.0421 26.0198 37.6774 24.8084 35.6798C23.6144 33.7111 22.9885 31.5655 22.8761 29.3025C22.5575 22.8868 24.7398 17.4833 29.6134 13.2288C30.2174 12.7015 30.8866 12.2588 31.5939 11.8778C31.7791 11.778 31.9538 11.6336 32.2463 11.7079C32.2858 12.2395 32.3217 12.7897 32.3698 13.3389C32.3952 13.6292 32.4652 13.9169 32.4752 14.2071C32.5237 15.6219 33.368 16.2916 34.6141 16.7636C37.3288 17.7921 40.13 18.4591 42.9692 19.0032C43.1086 19.0299 43.2393 19.0574 43.3982 18.8407C42.634 18.0609 41.856 17.2671 40.9521 16.3447C41.8386 16.2204 42.5543 16.108 43.2731 16.0212C46.6148 15.6176 49.9698 15.6142 53.3276 15.6941C53.5465 15.6993 53.8423 15.8008 53.9501 15.5197C54.0395 15.2866 53.8043 15.1359 53.662 14.9843C53.3012 14.6 52.9218 14.2331 52.5652 13.8451C52.3879 13.6522 52.1506 13.4865 52.1275 13.1255C52.7152 13.0799 53.2902 13.0131 53.8668 12.994C58.1697 12.8518 62.4392 13.1246 66.6893 13.8615C70.3405 14.4946 74.0059 15.0462 77.5874 16.0171C81.7092 17.1344 85.3595 19.0495 88.1243 22.4126C88.4078 22.7575 88.6902 23.1032 89.0584 23.5527C89.2654 22.0727 88.8707 20.7036 89.0757 19.343C92.0203 20.2364 97.6417 30.3724 97.7653 34.9877C97.5382 35.1486 97.2761 35.0811 97.0298 35.0781C92.9466 35.0285 88.8689 35.2054 84.8072 35.58C80.5174 35.9755 76.2453 36.5528 72.0123 37.3713C67.4938 38.2451 62.986 39.1742 58.4665 40.042C54.6924 40.7667 50.8896 41.2957 47.0618 41.6622C44.0102 41.9544 40.9516 42.0862 37.892 42.2197C36.737 42.2701 36.1498 42.6656 35.8071 43.741C34.8302 46.8061 33.8962 49.8843 33.0533 52.9894C32.9926 53.2131 32.9579 53.4439 32.9172 53.642C33.0314 53.8392 33.1921 53.853 33.3473 53.8452C34.8084 53.7715 36.2704 53.7088 37.7298 53.6101C38.9545 53.5273 40.1767 53.4059 41.3991 53.2922C42.8543 53.1569 44.3094 53.0192 45.7625 52.8635C46.0151 52.8364 46.2184 52.8622 46.4141 53.0232C48.1627 54.462 49.9142 55.8973 51.6619 57.3372C51.761 57.4188 51.8939 57.4968 51.8437 57.7507C50.1915 57.7507 48.5223 57.7507 46.8531 57.7507C46.8291 57.8074 46.8051 57.8641 46.7811 57.9208C47.8572 58.8219 48.9334 59.7231 50.0095 60.6242C49.9889 60.682 49.9682 60.7397 49.9476 60.7975C48.0773 60.7975 46.2069 60.7975 44.2901 60.81ZM58.7354 30.844C61.2918 31.2838 63.8583 31.5713 66.5585 31.4399C66.1943 31.0898 65.8225 31.0979 65.4953 31.005C62.2821 30.0923 59.2935 28.6532 56.3716 27.0741C52.0929 24.7618 47.664 22.847 42.8947 21.7998C42.3425 21.6786 41.8069 21.4075 41.1319 21.5048C41.2989 21.6604 41.3966 21.7829 41.5215 21.8633C44.0995 23.5219 46.4759 25.4725 49.1026 27.0627C52.0708 28.8596 55.2321 30.146 58.7354 30.844ZM76.7606 24.4301C73.252 20.7623 66.8743 17.5559 64.14 18.0395C69.15 21.2332 74.2656 24.3549 79.1893 27.7968C78.5702 26.5574 77.7077 25.5136 76.7606 24.4301ZM49.5253 33.6002C49.9911 33.5509 50.4694 33.8371 51.0346 33.5254C45.2715 31.3458 40.1404 28.1545 34.946 25.0773C38.4014 30.2506 43.3298 32.9115 49.5253 33.6002ZM35.8358 33.9594C32.8759 32.2144 30.5432 29.8634 28.9936 26.6763C28.7631 27.167 28.94 27.504 28.9893 27.8427C29.3218 30.1262 30.3058 32.084 32.0203 33.6341C34.7692 36.1196 38.0796 36.739 41.6559 36.4295C39.6619 35.8024 37.7261 35.0433 35.8358 33.9594ZM53.8253 21.6942C56.8242 23.5066 59.9378 25.0796 63.2622 26.2124C63.504 26.2948 63.7471 26.445 64.0143 26.2394C61.4409 23.3665 53.1194 19.3276 50.7151 19.8235C51.7611 20.4523 52.7568 21.0508 53.8253 21.6942ZM61.4202 21.2534C64.3656 22.8724 67.311 24.4914 70.3544 26.1643C69.2369 23.1951 60.4575 18.3366 57.213 18.8812C58.6535 19.6915 60.0007 20.4494 61.4202 21.2534ZM84.403 23.234C82.6656 21.7781 80.6122 20.9795 78.4601 20.3735C81.6137 22.5864 84.603 24.9934 87.4251 27.6218C86.8191 25.9068 85.788 24.4979 84.403 23.234Z" fill="#201A1A"/>
<path d="M76.9381 47.1901C71.4507 48.0072 66.2274 49.5267 61.2533 51.8767C60.7422 52.1181 60.2414 52.3833 59.7484 52.66C59.5238 52.7861 59.3344 52.8396 59.1004 52.6872C57.6725 51.7569 56.1233 51.0599 54.5723 50.3708C54.1516 50.1839 54.0104 49.9077 54.0142 49.4607C54.0284 47.7822 54.0215 46.1033 54.0029 44.4247C53.9983 44.0125 54.1374 43.8014 54.5452 43.6626C61.292 41.3654 68.1592 39.5375 75.1731 38.2545C78.7407 37.602 82.3245 37.097 85.9332 36.7398C88.0682 36.5285 90.2073 36.4126 92.3472 36.2886C92.78 36.2635 92.9792 36.4265 93.067 36.845C93.8226 40.4448 94.1946 44.081 94.1357 47.7598C94.1335 47.8923 94.1062 48.0243 94.0869 48.1875C93.6002 48.2418 93.1982 48.0063 92.7836 47.8951C88.7626 46.8169 84.6632 46.6354 80.5361 46.8166C79.3507 46.8686 78.1711 47.0538 76.9381 47.1901Z" fill="#201A1A"/>
<path d="M72.2225 53.2511C69.6137 53.8098 67.0999 54.5183 64.6466 55.4369C64.4654 55.5047 64.2713 55.5885 64.0847 55.4625C63.2485 54.8982 62.4159 54.3285 61.5408 53.7326C61.9587 53.3541 62.4398 53.1794 62.8902 52.9758C67.4138 50.9306 72.1274 49.535 77.0441 48.8098C79.7378 48.4125 82.4419 48.2628 85.1543 48.3785C88.0097 48.5003 90.8098 49.0135 93.5529 49.8235C93.7407 49.879 93.9493 49.9177 93.9342 50.1845C93.856 51.5627 93.6569 52.9235 93.396 54.3384C92.1858 53.9209 91.0296 53.5858 89.8553 53.3136C86.2401 52.4758 82.588 52.1532 78.8769 52.3781C76.6506 52.513 74.453 52.7987 72.2225 53.2511Z" fill="#201A1A"/>
<path d="M77.2055 65.085C76.6833 65.056 76.3435 65.3253 76.0404 65.6337C75.5233 66.1598 75.543 66.3646 76.1027 66.8216C77.3848 67.8687 77.5964 69.9132 76.534 71.314C75.928 72.113 75.1052 72.6254 74.1479 72.9286C73.7802 73.0451 73.5962 72.966 73.5804 72.5526C73.54 71.4946 73.1824 70.6502 72.0574 70.3182C71.7643 70.2318 71.8339 69.9406 71.8245 69.7154C71.8152 69.4933 71.84 69.2796 72.1086 69.2046C72.2401 69.1679 72.3707 69.1268 72.4995 69.0812C73.3015 68.797 73.6721 68.3133 73.6858 67.4647C73.7013 66.5084 73.6611 65.5508 73.6895 64.595C73.7443 62.7461 75.2689 61.4562 77.0594 61.7141C78.673 61.9465 79.6338 63.7934 78.9081 65.2536C78.7465 65.5786 78.5672 65.6944 78.2237 65.4746C77.9293 65.2862 77.6037 65.1451 77.2055 65.085Z" fill="#201A1A"/>
<path d="M70.6587 84.907C70.6059 85.0151 70.5766 85.0909 70.5255 85.1468C70.4921 85.1833 70.4271 85.191 70.2068 85.2803C70.3811 83.6309 70.6525 82.1143 71.2697 80.6638C71.3172 82.1019 71.0225 83.488 70.6587 84.907Z" fill="#201A1A"/>
</g>
<defs>
<clipPath id="clip0_57_37">
<rect width="120" height="120" fill="white"/>
</clipPath>
</defs>
</svg>
