<svg width="120" height="120" viewBox="0 0 120 120" fill="none" xmlns="http://www.w3.org/2000/svg">
<path d="M39.0001 92.0863C40.24 90.9619 40.7047 89.5439 40.733 87.9677C40.7646 86.2105 40.7554 84.4521 40.7327 82.6946C40.7266 82.2179 40.845 81.9709 41.3414 81.8137C44.2114 80.9043 46.9703 79.7294 49.6501 78.3495C52.9988 76.6254 55.0791 73.9293 56.0907 70.34C56.7107 68.1403 57.1048 65.8994 57.371 63.6353C57.4205 63.2148 57.5465 63 57.9705 62.9417C59.1653 62.7774 60.3544 62.5668 61.5519 62.4286C62.3732 62.3338 62.3832 62.377 62.3832 63.1812C62.3833 69.392 62.3816 75.6029 62.3856 81.8137C62.3857 82.038 62.3142 82.2791 62.4858 82.5242C62.8185 82.3469 62.8854 82.0043 62.9861 81.7151C63.5857 79.9923 63.9692 78.2268 63.9526 76.3909C63.9465 75.7097 63.9953 75.0347 64.1091 74.3753C64.4953 74.2576 64.5872 74.5416 64.7213 74.7376C65.1718 75.396 65.7359 75.9302 66.458 76.2705C67.822 76.9132 69.0705 76.5587 70.0575 75.5679C72.8289 72.7855 74.8677 69.5632 75.397 65.587C75.6319 63.8223 75.2652 62.1315 74.2031 60.6367C72.563 58.328 69.6987 57.7755 67.3229 59.3259C67.0956 59.4743 66.8702 59.6255 66.591 59.8105C66.2048 59.3188 65.8266 58.8544 65.4683 58.375C65.2223 58.0459 65.4856 57.836 65.6881 57.6264C67.6904 55.5546 70.7959 54.9475 73.4588 56.1542C76.2781 57.4317 77.757 59.763 78.3024 62.7014C78.8688 65.7531 78.133 68.6359 76.8113 71.3743C75.5369 74.0146 73.9511 76.4476 71.5979 78.2748C70.3024 79.2809 68.8354 79.8152 67.1697 79.4841C66.6032 79.3715 66.4571 79.5671 66.3278 80.0944C65.5026 83.4619 64.8455 86.8738 63.6813 90.1535C62.439 93.6533 60.4486 96.6957 57.9257 99.3773C57.1028 100.252 56.7799 100.937 57.3812 102.094C57.9416 103.173 58.3038 104.368 58.6593 105.547C58.7808 105.95 58.6934 106.164 58.3169 106.327C57.8161 106.545 57.3176 106.776 56.8439 107.046C56.4229 107.286 56.1988 107.23 56.017 106.756C55.3039 104.898 54.531 103.064 53.7142 101.248C53.0086 99.6789 52.1857 98.1723 51.3923 96.6491C51.1723 96.2269 50.8516 96.1971 50.4623 96.2728C48.7414 96.6075 47.0241 96.9618 45.2993 97.2754C42.6744 97.7525 40.0655 98.3365 37.3984 98.5484C34.5882 98.7716 31.7705 97.7028 30.3147 95.0503C29.5812 93.7139 29.4939 92.3069 29.7607 90.8476C29.9321 89.9096 30.1165 88.9739 30.2893 88.0361C30.3708 87.5938 30.301 87.2408 29.9224 86.8951C28.5913 85.6798 28.3295 84.2241 29.1217 82.5998C29.3111 82.2115 29.2893 81.9849 28.9297 81.7286C27.8459 80.9563 27.4444 79.8578 27.5212 78.5637C27.5547 77.9998 27.5913 77.4323 27.6882 76.8771C27.7725 76.3945 27.6546 76.2014 27.1396 76.1888C25.595 76.1513 24.2219 75.6977 23.2216 74.4301C22.1531 73.0763 21.865 71.5658 22.5329 69.9812C23.2841 68.1992 24.3332 66.5644 25.2803 64.8803C26.4477 62.8043 27.6 60.7197 28.7775 58.6495C28.9787 58.2957 28.9748 58.0399 28.7376 57.699C28.2252 56.9627 27.7685 56.1878 27.2873 55.4298C27.0788 55.1015 27.0253 54.7661 27.1018 54.371C27.9913 49.7755 29.0739 45.2275 30.4555 40.7545C30.6341 40.1763 30.5699 39.8767 30.028 39.525C26.5013 37.2363 24.7179 33.9244 24.451 29.7618C24.2022 25.8836 25.4988 22.5456 28.0894 19.71C29.5378 18.1245 31.3344 16.9678 33.2122 15.9437C33.5206 15.7755 33.8435 15.6332 34.1464 15.456C34.5359 15.2281 34.7667 15.2931 34.9503 15.7346C35.2797 16.5265 35.654 17.3004 36.0255 18.0741C36.3655 18.7821 36.5231 18.8015 37.0268 18.2254C37.8625 17.2694 38.912 16.5982 39.9947 15.9653C40.4092 15.723 40.6578 15.8362 40.9068 16.2174C41.4455 17.042 42.1137 17.7468 42.9546 18.2798C43.2116 18.4427 43.4297 18.4747 43.7086 18.3174C46.7137 16.6232 50.0027 15.8347 53.3721 15.3023C57.0015 14.7288 60.6523 14.4274 64.3259 14.5363C68.4703 14.659 72.5719 15.0775 76.5202 16.4758C79.786 17.6324 82.589 19.4113 84.591 22.3052C85.0243 22.9314 85.4171 23.5839 85.7381 24.2771C85.8185 24.4508 85.8762 24.6373 86.116 24.6796C88.0493 25.0203 89.286 26.3043 90.2404 27.8745C91.844 30.5131 92.8675 33.4018 93.6631 36.3709C94.2294 38.4842 94.511 40.6386 94.6262 42.8292C94.9386 48.7714 93.5984 54.3573 91.1578 59.7277C89.7995 62.7166 88.1399 65.5494 86.6546 68.4726C85.3617 71.0174 84.4626 73.6801 84.0872 76.5093C83.755 79.0133 84.0362 81.4825 84.5706 83.9361C85.1228 86.4715 86.034 88.8682 87.2647 91.148C87.5046 91.5923 87.7771 92.0231 87.9076 92.5925C87.0805 92.868 86.257 93.1407 85.4345 93.4166C80.9538 94.9194 76.9479 97.2548 73.3574 100.315C71.6757 101.749 70.118 103.31 68.6523 104.961C68.3465 105.306 68.1294 105.331 67.8139 104.974C67.4269 104.536 66.9964 104.135 66.5674 103.736C66.3009 103.489 66.279 103.291 66.5268 102.999C68.8865 100.218 71.4977 97.7125 74.4721 95.5886C77.0784 93.7276 79.8829 92.2509 82.8748 91.1192C83.5864 90.8501 83.5872 90.8139 83.2773 90.1071C81.4499 85.939 80.6433 81.5761 80.971 77.0412C81.2157 73.6555 82.2556 70.4696 83.7857 67.4459C85.5216 64.0155 87.5124 60.7171 89.0923 57.2059C89.2761 56.7975 89.4438 56.3817 89.611 55.9661C89.6277 55.9243 89.5883 55.86 89.5742 55.8032C89.3176 55.7965 89.2472 56.0111 89.1329 56.1531C86.5769 59.3316 84.0256 62.514 81.4701 65.693C81.3563 65.8346 81.2329 66.0923 81.0137 65.9239C80.7176 65.6963 80.9732 65.449 81.1089 65.2668C82.0064 64.0615 82.9305 62.8759 83.8294 61.6716C85.7197 59.1389 87.7216 56.6865 89.3773 53.9845C89.4462 53.8721 89.5112 53.7573 89.4881 53.5788C88.0964 55.2971 86.7059 57.0165 85.3125 58.7334C84.0086 60.3401 82.7046 61.9467 81.3911 63.5455C81.2638 63.7005 81.1454 64.0456 80.8566 63.7937C80.6336 63.5992 80.8573 63.3981 80.9778 63.2361C82.5387 61.1374 84.1114 59.0475 85.6668 56.9448C86.5484 55.7531 87.4525 54.5757 88.1967 53.2885C88.2424 53.2094 88.3245 53.1366 88.244 52.9847C87.5304 53.6896 86.9636 54.4973 86.3496 55.2611C84.4901 57.5741 82.545 59.8143 80.622 62.0734C80.5462 62.1625 80.4649 62.2475 80.381 62.3291C80.2787 62.4283 80.1656 62.5131 80.0247 62.3968C79.8893 62.2852 79.932 62.148 80.003 62.0267C80.1011 61.8592 80.207 61.6947 80.3244 61.5403C82.4741 58.7136 84.7209 55.9589 86.6599 52.9764C86.7512 52.8359 86.9085 52.7195 86.8638 52.5077C86.6499 52.4223 86.6049 52.6155 86.5182 52.7232C84.6054 55.0973 82.5249 57.3199 80.404 59.5061C80.3496 59.5622 80.2939 59.6174 80.2345 59.6679C80.0744 59.8039 79.9163 60.0128 79.6865 59.8084C79.4745 59.6198 79.5044 59.3786 79.6658 59.1755C80.1147 58.6105 80.5695 58.0499 81.0366 57.4999C82.6419 55.6095 84.1918 53.6756 85.6331 51.6564C85.7512 51.4909 85.9364 51.3483 85.9055 50.9954C85.3206 51.4438 84.8951 51.9619 84.4542 52.452C82.8609 54.2234 81.204 55.9326 79.5051 57.6019C79.3028 57.8007 79.0955 58.0923 78.7729 57.7868C78.4591 57.4895 78.7134 57.2623 78.9025 57.0396C80.495 55.1653 82.1127 53.3113 83.5452 51.3077C83.7246 51.0568 83.8723 50.7833 84.0747 50.4555C83.7248 50.4361 83.6083 50.6625 83.4621 50.8091C81.8905 52.3849 80.325 53.9669 78.7565 55.5457C78.6466 55.6564 78.5347 55.7693 78.4074 55.8573C78.2339 55.9772 78.0358 56.0102 77.8735 55.8441C77.7236 55.6907 77.781 55.5087 77.8913 55.3619C78.2664 54.8628 78.6537 54.3728 79.0337 53.8773C79.8178 52.8551 80.6078 51.8372 81.3782 50.8047C81.5683 50.5499 81.6925 50.2458 81.8032 49.9385C81.2262 50.396 80.7904 50.9675 80.3576 51.5374C79.4936 52.6753 78.5306 53.7247 77.5373 54.7477C77.3849 54.9047 77.2141 55.1815 76.9586 54.9701C76.698 54.7545 76.9537 54.5406 77.0779 54.3671C77.6784 53.5285 78.2935 52.7002 78.9034 51.8683C78.8613 51.8273 78.8192 51.7864 78.7772 51.7454C77.9518 52.607 77.1264 53.4686 76.3011 54.3303C76.2066 54.4291 76.1203 54.5374 76.0167 54.6254C75.8237 54.7895 75.656 55.1191 75.3461 54.8162C75.0657 54.5421 75.3057 54.303 75.4657 54.0995C76.4071 52.9031 77.3589 51.7148 78.3117 50.5275C78.578 50.1956 78.8571 49.8744 79.061 49.4359C78.7293 49.3925 78.5965 49.6067 78.4484 49.761C77.177 51.0861 75.8302 52.3327 74.4748 53.5694C74.2281 53.7944 73.9387 54.2835 73.5671 53.91C73.2174 53.5585 73.7167 53.2997 73.9154 53.0575C75.0789 51.6387 76.3701 50.3286 77.4868 48.8692C77.6594 48.6435 77.8399 48.4251 77.9817 48.0391C77.4502 48.277 77.1508 48.6047 76.8374 48.9058C75.2744 50.4074 73.7249 51.9233 72.1522 53.4147C71.8995 53.6543 71.6029 54.1624 71.1944 53.7609C70.8035 53.3766 71.33 53.1075 71.5304 52.8557C72.6127 51.4957 73.6662 50.115 74.6651 48.6927C74.7387 48.5878 74.8597 48.4932 74.7844 48.2989C74.4807 48.3674 74.3062 48.6093 74.1056 48.8051C72.4018 50.4687 70.7035 52.1381 68.9952 53.7972C68.8341 53.9537 68.6679 54.298 68.3827 54.0373C68.1297 53.8061 68.3735 53.5675 68.5207 53.374C69.6431 51.8982 70.774 50.4288 71.898 48.9541C72.0375 48.7711 72.208 48.6007 72.1516 48.2724C69.7959 50.9242 67.4402 53.5761 65.0233 56.2969C64.7708 55.8074 65.0004 55.601 65.1506 55.4018C66.5836 53.5005 68.0299 51.6091 69.4637 49.7083C69.788 49.2783 70.1706 48.879 70.3699 48.2155C69.3629 49.1371 68.6168 50.1261 67.8114 51.0586C66.089 53.0525 64.3866 55.0635 62.6691 57.0615C62.5023 57.2555 62.365 57.5364 62.0143 57.4671C61.8384 57.1393 62.0959 56.9575 62.2528 56.7529C64.1411 54.2911 66.0348 51.8335 67.9206 49.3697C68.117 49.1131 68.2717 48.8245 68.4457 48.5508C68.4074 48.5214 68.369 48.492 68.3306 48.4627C67.6469 49.2463 66.9634 50.0301 66.2796 50.8136C64.7394 52.5782 63.184 54.3298 61.665 56.1124C60.8425 57.0777 60.0851 58.0983 59.2911 59.0881C59.1157 59.3068 58.8926 59.6923 58.6183 59.4877C58.2742 59.231 58.6971 58.9846 58.8492 58.7827C61.2565 55.587 63.8098 52.5038 66.1747 49.2754C66.2836 49.1267 66.4561 49.0031 66.4366 48.6778C66.0882 49.0125 65.7601 49.2721 65.499 49.5873C63.2702 52.279 60.897 54.8482 58.7252 57.588C58.6768 57.6491 58.6255 57.7087 58.5698 57.7632C58.4487 57.8815 58.3288 58.0916 58.1395 57.9613C57.9018 57.7977 58.0954 57.6077 58.2006 57.4607C59.1997 56.064 60.2146 54.6797 61.2743 53.327C62.499 51.7638 63.6733 50.1612 64.9262 48.5006C64.5971 48.4995 64.5108 48.6916 64.3993 48.8197C62.7085 50.7636 61.0229 52.712 59.3339 54.6576C59.1805 54.8343 59.0159 55.0018 58.8506 55.1676C58.7375 55.281 58.5962 55.3982 58.4407 55.2832C58.2591 55.1488 58.3337 54.9611 58.4361 54.8127C58.713 54.4116 58.9996 54.017 59.2883 53.6242C60.2472 52.3194 61.2079 51.016 62.1699 49.7137C62.2977 49.5407 62.4386 49.3772 62.4858 48.9949C60.5396 51.1209 58.8117 53.2662 56.9915 55.3874C56.6975 55.0591 56.7947 54.8102 56.9579 54.5858C58.3127 52.7236 59.5856 50.7984 61.1036 49.0605C62.1715 47.8379 63.6511 47.4602 65.1666 47.1932C67.0538 46.8608 68.9729 46.8991 70.8744 46.7272C73.7552 46.4667 76.6183 46.1259 79.306 44.9675C82.5915 43.5516 85.0874 41.333 86.1948 37.8324C86.9331 35.4986 86.881 33.125 86.2813 30.6683C85.9678 30.9237 86.0623 31.1927 86.0478 31.4186C85.8882 33.9081 85.4956 36.341 84.2646 38.5592C82.6294 41.5058 80.0327 43.1843 76.8679 44.0816C74.4155 44.7769 71.8984 45.0298 69.3605 45.1698C67.4553 45.2748 65.5408 45.2812 63.6536 45.6455C60.7825 46.1997 58.565 47.7366 56.853 50.0655C56.1564 51.0132 55.5718 52.0277 55.0719 53.0884C54.8735 53.5094 54.6772 53.641 54.2317 53.3965C52.5205 52.4573 50.7988 51.5368 49.0703 50.6299C48.7103 50.4411 48.6255 50.2147 48.6992 49.8314C49.1218 47.6332 49.6088 45.4425 49.9029 43.2265C50.065 42.0052 50.6456 41.4347 51.7272 40.9826C53.9107 40.0699 56.1767 39.5594 58.4986 39.2179C62.0038 38.7024 65.5608 38.6019 69.0442 37.9231C71.5877 37.4274 74.0363 36.6575 76.2099 35.1812C77.2495 34.4751 78.1851 33.6533 78.9895 32.6863C79.0972 32.5569 79.2503 32.4436 79.2385 32.2389C79.0436 32.063 78.9109 32.2445 78.7819 32.3296C75.7511 34.3279 72.4054 35.5076 68.8545 36.1507C66.6671 36.5469 64.4589 36.7747 62.2449 36.9654C58.2208 37.312 54.219 37.8243 50.3124 38.8898C45.8415 40.1092 41.2854 40.4092 36.6833 40.2106C35.9648 40.1796 35.2412 40.1538 34.5237 40.0823C34.1084 40.0409 33.8779 40.1697 33.7455 40.5883C32.4928 44.5488 31.4269 48.557 30.6191 52.6327C30.5774 52.8429 30.5356 53.0531 30.489 53.2622C30.3274 53.9878 30.3942 54.0933 31.1352 54.0955C34.4359 54.1052 37.7366 54.1068 41.0373 54.1018C41.3798 54.1012 41.6925 54.1468 41.9847 54.3343C43.792 55.494 45.6016 56.6501 47.4107 57.807C47.494 57.8602 47.5803 57.9087 47.6652 57.9595C47.6444 58.0236 47.6235 58.0876 47.6027 58.1517C45.5509 58.1517 43.4992 58.1517 41.423 58.1517C41.4894 58.578 41.7609 58.6528 41.9606 58.7888C42.8157 59.3712 43.6815 59.9377 44.5331 60.525C44.9059 60.7821 45.1846 61.087 44.935 61.6039C44.6707 62.1513 44.4142 62.2899 43.8705 62.0113C42.8635 61.4952 41.8768 60.9395 40.8826 60.3984C40.6628 60.2788 40.4588 60.1201 40.1942 60.1242C40.0034 60.3504 40.0096 60.6068 40.0033 60.858C39.9822 61.6966 39.5668 62.3033 38.8681 62.7172C38.1165 63.1624 37.5084 62.874 37.329 62.0185C37.2932 61.8483 37.2773 61.6516 37.117 61.5511C35.5922 60.5954 34.2316 59.4159 32.7706 58.3735C32.727 58.3423 32.663 58.3396 32.6095 58.3239C32.3741 58.4417 32.2968 58.6769 32.1845 58.8746C30.0256 62.6771 27.8682 66.4806 25.7194 70.2888C24.8911 71.7569 25.6975 73.1707 27.3928 73.1984C29.111 73.2265 30.8301 73.2083 32.5487 73.2067C32.7038 73.2066 32.8659 73.204 33.0125 73.1609C33.5081 73.015 33.9421 73.0411 34.2404 73.5311C34.4993 73.9562 34.4511 74.6699 34.1052 75.0715C33.6921 75.551 33.1547 75.8163 32.5211 75.8537C32.1513 75.8756 31.7792 75.867 31.4083 75.8604C31.0957 75.8549 30.7785 75.8701 30.7714 76.2746C30.7647 76.651 30.55 77.1084 31.1099 77.3264C32.201 77.7512 33.2901 78.1821 34.3702 78.6339C35.3779 79.0554 36.3711 79.5118 37.3749 79.9428C37.6317 80.053 37.7978 80.2054 37.8135 80.499C37.8751 81.6502 37.8492 82.8013 37.8162 83.9524C37.8148 84.0001 37.756 84.0462 37.6998 84.1283C36.9313 83.7547 36.1721 83.3673 35.3976 83.0134C34.2717 82.499 33.1123 82.1157 31.847 82.1456C31.4005 82.1561 30.9709 82.1388 30.7689 82.6406C30.5548 83.1722 30.4979 83.706 30.8612 84.1978C31.3522 84.8624 32.0917 85.0008 32.8406 85.0191C33.3321 85.0311 33.4522 85.1944 33.4542 85.6746C33.4623 87.6162 33.1766 89.5322 32.7891 91.4133C32.561 92.5203 33.3482 93.4453 34.5625 93.589C36.2567 93.7895 37.7112 93.2356 39.0001 92.0863ZM42.0845 27.4657C44.9485 29.6777 48.1439 31.1136 51.7624 31.7247C51.7342 31.451 51.6058 31.4163 51.5121 31.361C50.3834 30.6952 49.3123 29.9448 48.2903 29.1276C46.0514 27.3376 43.8806 25.4468 42.6886 22.7763C42.1877 21.6541 41.607 20.7161 40.6078 20.0303C40.592 20.0194 40.58 20.0029 40.5659 19.9895C40.1073 19.5528 39.9838 19.5527 39.6412 20.1016C38.8273 21.4054 38.718 22.7671 39.3761 24.1709C39.986 25.4721 40.9442 26.4908 42.0845 27.4657ZM34.0155 28.2727C34.5288 29.0867 35.1385 29.8148 35.8848 30.429C38.2001 32.3348 40.8601 33.4621 43.8049 33.9453C44.151 34.002 44.5025 34.1768 44.8717 33.9928C44.7905 33.8077 44.6327 33.7593 44.5031 33.681C42.1348 32.2497 39.9842 30.5518 38.136 28.4839C36.1859 26.3022 34.728 23.8834 34.4596 20.8848C34.4347 20.607 34.5101 20.2981 34.311 20.0411C32.9584 21.3229 32.197 25.3781 34.0155 28.2727ZM27.3194 26.3269C27.1633 28.4209 27.9559 30.1459 29.438 31.5626C30.5908 32.6646 31.8883 33.5545 33.5391 33.9111C29.9772 30.1937 28.4927 25.9911 30.2447 20.9353C28.6527 22.3793 27.5795 24.0698 27.3194 26.3269ZM52.1132 20.1317C53.9264 22.9559 58.6489 26.5723 60.1767 26.3044C60.2132 26.122 60.0837 26.0194 59.9816 25.9058C57.9939 23.6925 56.1596 21.3762 55.0571 18.5692C54.9414 18.2747 54.7467 18.1446 54.4241 18.1896C53.7309 18.2862 53.034 18.3569 52.3422 18.4625C51.3576 18.6127 51.323 18.6994 51.8135 19.5985C51.8975 19.7524 51.9839 19.9051 52.1132 20.1317ZM49.7182 22.4017C49.0971 21.4139 48.5211 20.401 48.0325 19.2847C47.0261 19.586 46.1031 19.9771 45.2446 20.5241C44.9729 20.6971 45.0905 20.884 45.2047 21.0696C45.5012 21.5512 45.8115 22.0224 46.1875 22.4491C48.2056 24.7395 50.7178 26.2969 53.5307 27.4084C53.7201 27.4833 53.9211 27.6029 54.2365 27.3725C52.584 25.865 51.0471 24.2808 49.7182 22.4017ZM62.4513 19.7391C62.2209 19.1804 61.9636 18.6308 61.7697 18.0596C61.6463 17.6963 61.441 17.5684 61.0794 17.5846C60.5531 17.6081 60.0258 17.6104 59.4989 17.6188C58.2608 17.6386 58.1109 17.8645 58.7319 18.9378C60.2351 21.5361 62.3655 23.4994 64.9669 24.9653C65.4296 25.226 65.8942 25.5041 66.4908 25.5287C65.0718 23.6747 63.4873 21.9492 62.4513 19.7391ZM67.5302 21.4738C68.8916 22.8818 70.4628 23.9711 72.2667 24.7346C72.4327 24.4198 72.2664 24.2999 72.1695 24.1676C70.8284 22.3371 69.6102 20.4395 68.9238 18.2503C68.8451 17.9993 68.6928 17.8746 68.4209 17.8437C67.5707 17.7472 66.7255 17.6077 65.8655 17.6112C65.1424 17.6142 65.0735 17.7137 65.3972 18.3864C65.9338 19.5012 66.6374 20.5031 67.5302 21.4738ZM76.734 21.2531C76.6902 20.9845 76.6016 20.714 76.6124 20.4476C76.6317 19.9733 76.4122 19.7421 75.9832 19.6044C75.0937 19.3189 74.2181 18.9893 73.3261 18.7119C73.1107 18.6449 72.8077 18.4694 72.6287 18.7413C72.4837 18.9617 72.6838 19.1881 72.7991 19.3827C73.9311 21.2913 75.4205 22.8623 77.2791 24.0771C77.4436 24.1846 77.6124 24.3636 77.9266 24.1917C77.4634 23.2717 77.0364 22.3378 76.734 21.2531Z" fill="#201A1A"/>
<path d="M66.7832 69.2384C67.3909 68.5145 67.5202 67.7547 67.1514 66.9208C67.0173 66.6178 66.8856 66.3137 66.7509 66.011C65.5279 63.2646 67.236 60.4279 70.2307 60.2328C71.8647 60.1264 73.7566 61.5144 73.9894 62.9885C74.0563 63.4127 74.0678 63.8275 73.6241 64.062C73.1506 64.3124 72.8739 63.9997 72.5934 63.6727C72.1528 63.1592 71.6515 62.7374 70.9172 62.7356C70.2658 62.734 69.7925 63.0381 69.5016 63.5997C69.242 64.1011 69.3872 64.7597 69.8642 65.2C70.1622 65.475 70.5167 65.6901 70.8526 65.9224C72.3032 66.9259 72.5388 68.9402 71.3848 70.2896C70.5544 71.2606 69.481 71.6926 68.2466 71.7463C67.6136 71.7738 67.0126 71.8837 66.4207 72.095C65.8494 72.2991 65.5331 72.1325 65.3631 71.5607C65.1721 70.918 65.4088 70.2628 65.9634 69.8684C66.2328 69.6768 66.4911 69.4694 66.7832 69.2384Z" fill="#201A1A"/>
<path d="M84.9277 62.4288C85.2128 62.0789 85.3922 61.6734 85.8323 61.5449C85.9807 61.7445 85.8611 61.8675 85.7722 61.9903C85.3615 62.558 84.9527 63.1272 84.5311 63.6868C84.4276 63.8241 84.3262 64.0986 84.0889 63.8908C83.8867 63.7137 84.0749 63.5337 84.186 63.3846C84.4184 63.0723 84.6637 62.7697 84.9277 62.4288Z" fill="#201A1A"/>
<path d="M82.3716 66.2693C82.4357 65.774 82.905 65.1481 83.3634 64.8804C83.5424 65.3003 82.9464 66.1771 82.3716 66.2693Z" fill="#201A1A"/>
<path d="M57.7243 56.6752C57.6666 56.758 57.6373 56.8084 57.6016 56.8538C57.48 57.0082 57.3929 57.3171 57.1379 57.1286C56.9088 56.9592 57.1233 56.7484 57.2375 56.5782C57.3342 56.4341 57.4378 56.294 57.5474 56.1596C57.6757 56.0023 57.8019 55.7388 58.0435 55.929C58.2597 56.0991 58.0429 56.2686 57.9332 56.4168C57.8759 56.4942 57.8111 56.5662 57.7243 56.6752Z" fill="#201A1A"/>
<path d="M56.6651 55.8189C56.564 56.028 56.5077 56.2266 56.28 56.2542C56.1658 56.268 56.1039 56.1872 56.0922 56.0846C56.0658 55.8519 56.1996 55.688 56.3529 55.5401C56.4355 55.4604 56.5396 55.3797 56.6531 55.463C56.7644 55.5447 56.7147 55.6679 56.6651 55.8189Z" fill="#201A1A"/>
</svg>
