<svg width="120" height="120" viewBox="0 0 120 120" fill="none" xmlns="http://www.w3.org/2000/svg">
<path d="M94.3504 70.8733C92.0808 66.3796 89.7092 61.9901 87.3743 57.6047C87.0507 57.6723 86.9396 57.8737 86.7921 58.0197C85.4595 59.3383 84.1288 60.659 82.8079 61.9894C82.5249 62.2744 82.2504 62.3694 81.8253 62.318C79.6334 62.053 77.7076 61.0084 75.6773 60.2751C74.8026 59.9592 73.9595 59.5558 72.9473 59.1266C75.3941 57.7147 77.8137 56.5262 80.259 55.0259C77.5121 55.2772 74.9431 55.6188 72.341 55.6454C73.2762 54.989 74.2981 54.5251 75.2965 54.0201C76.3937 53.4651 77.5346 52.9871 78.5928 52.3669C79.3808 51.905 80.146 51.8703 81.0002 52.0128C83.6133 52.4489 86.2319 52.8523 88.8489 53.2646C89.692 53.3974 90.2816 52.6268 90.0417 51.6579C89.845 50.8633 89.5991 50.0801 89.3536 49.2986C88.3946 46.246 87.4178 43.1989 86.4719 40.1422C86.3124 39.6267 86.1016 39.3953 85.5074 39.3868C82.8085 39.3484 80.2211 38.6978 77.6823 37.8284C73.7689 36.4881 70.124 34.5715 66.4977 32.6152C66.2606 32.4873 66.023 32.3606 65.7652 32.2633C66.4769 33.1752 67.3971 33.857 68.2699 34.5845C69.2894 35.4343 70.3392 36.2482 71.3882 37.0619C71.6977 37.3019 71.8363 37.5652 71.7809 37.9637C71.7066 38.4981 71.827 39.05 71.6833 39.6004C61.5586 37.7433 52.7135 32.8511 43.7793 28.1759C43.5449 28.0533 43.5706 27.8225 43.4838 27.5426C43.3392 28.0265 43.0989 27.8308 42.869 27.709C40.7819 26.6031 38.6903 25.5053 36.6093 24.388C34.8723 23.4554 33.1467 22.5016 31.4192 21.5513C31.2546 21.4607 31.05 21.4079 30.9444 21.1457C31.4314 20.4779 32.0361 19.875 32.6196 19.2568C34.2 17.5824 35.6877 15.8174 37.4615 14.3317C39.7894 12.382 42.4321 11.0441 45.3488 10.2297C45.4987 10.1878 45.6471 10.1311 45.885 10.2633C45.6567 10.9462 45.4218 11.6488 45.137 12.5007C48.7462 10.3351 52.4778 9.00314 56.6781 8.87C56.4032 9.82608 55.9512 10.6017 55.5502 11.6021C59.1749 10.1762 62.7728 9.40569 66.6669 9.796C66.2858 10.6523 65.9344 11.4417 65.5106 12.394C68.1654 11.4171 70.7578 10.854 73.5335 11.1585C73.2253 12.0019 72.7039 12.687 72.3117 13.593C75.2238 12.8296 78.0344 12.498 80.9897 12.992C80.551 13.9589 80.1518 14.8389 79.7264 15.7765C80.4224 15.8158 81.0287 15.5853 81.6505 15.5078C82.9369 15.3476 84.22 15.3991 85.5061 15.441C85.8786 15.4531 85.9854 15.6176 85.8505 15.9739C85.6253 16.5683 85.2807 17.1194 85.1464 17.8271C85.6576 17.7483 86.116 17.6819 86.5728 17.6055C86.8563 17.558 87.0019 17.3848 87.0558 17.0962C87.1874 16.3927 87.341 15.6933 87.4843 14.9991C87.7044 14.8967 87.8832 15.0275 88.0523 15.0969C91.5947 16.5496 94.5142 18.7358 96.2301 22.2576C97.8008 25.4813 97.7423 28.73 96.2116 31.9643C94.7872 34.9741 92.5523 37.1842 89.5777 38.6431C89.0458 38.904 88.9258 39.1697 89.1017 39.7275C90.0818 42.8344 91.0301 45.9514 91.9873 49.0655C92.0905 49.4012 92.1504 49.7532 92.2822 50.0766C93.1746 52.2655 92.4325 54.1246 91.0863 55.8285C90.0791 57.1033 90.0447 57.0775 90.7816 58.488C92.7701 62.2942 94.77 66.0945 96.7433 69.9085C97.4812 71.3347 97.6515 72.7788 96.5723 74.1399C95.8818 75.0108 94.9601 75.5554 93.8966 75.8369C93.2766 76.0011 92.6382 76.1038 92.0028 76.1985C91.6799 76.2466 91.5692 76.3487 91.6313 76.6915C91.7564 77.3811 91.7975 78.087 91.9411 78.772C92.294 80.4557 91.6108 81.6522 90.2474 82.5559C90.1339 82.6311 90.0223 82.7091 89.911 82.7875C89.8962 82.7979 89.8887 82.8188 89.8748 82.8394C89.8604 83.0121 89.9981 83.1143 90.0795 83.2417C91.279 85.119 90.761 87.2392 88.7675 88.2468C88.1427 88.5626 87.9821 88.9296 88.039 89.5563C88.1448 90.7213 88.2084 91.8901 88.2893 93.0573C88.531 96.5443 86.3256 99.3561 82.8468 99.9955C81.2364 100.291 79.6619 100.024 78.0901 99.6953C76.5606 99.3757 75.0663 98.9252 73.5648 98.5008C72.7332 98.2657 72.7188 98.2609 72.291 99.0374C70.501 102.286 68.7206 105.539 66.9348 108.79C66.6717 109.269 66.3802 109.734 66.1359 110.222C65.9422 110.609 65.7123 110.664 65.3415 110.461C64.931 110.238 64.5024 110.042 64.0674 109.87C63.6477 109.704 63.5526 109.502 63.7756 109.074C64.533 107.621 65.2317 106.137 65.9986 104.69C66.275 104.168 66.2381 103.876 65.7527 103.482C63.2803 101.476 61.2227 99.0788 59.3683 96.5006C57.8831 94.4358 56.5513 92.2808 55.4944 89.9625C55.373 89.6961 55.2392 89.4409 55.3404 89.1253C55.9036 87.3682 55.9124 85.5554 55.8848 83.7364C55.8648 82.412 55.8809 81.0871 55.8809 79.7353C55.3574 79.6819 54.9766 79.9614 54.556 80.0674C51.4701 80.8453 48.8537 79.9709 46.7522 77.6804C44.0996 74.7894 42.0536 71.5008 40.7762 67.7676C39.8155 64.9595 39.6738 62.1353 40.848 59.3602C42.7354 54.8995 48.5863 53.5066 52.3197 56.5814C52.9426 57.0944 53.4727 57.6902 53.9988 58.2922C54.1631 58.4801 54.294 58.7069 54.399 58.9349C54.6732 59.5297 54.5136 60.1993 54.047 60.5097C53.5046 60.8706 52.8082 60.7785 52.3608 60.2413C51.8335 59.6081 51.2845 59.0068 50.5902 58.5493C47.5233 56.5288 43.8525 57.9369 42.9303 61.4909C42.4542 63.3259 42.6281 65.131 43.2161 66.9055C44.3721 70.3942 46.2822 73.4376 48.8197 76.0735C50.2721 77.5822 52.0963 78.1043 54.1264 77.5119C56.214 76.9027 57.217 75.3206 57.6129 73.2805C57.7513 72.5671 57.7972 71.8471 57.6607 71.1271C57.5948 70.7798 57.6914 70.5763 58.0633 70.4923C59.2183 70.2312 60.0044 69.4561 60.6932 68.555C61.3226 67.7317 61.8957 66.8714 62.4049 65.9682C62.5074 65.7864 62.6355 65.6191 62.7654 65.4249C63.0707 65.939 63.0314 66.7048 62.7128 67.1338C61.9337 68.1832 61.0569 69.1572 60.3572 70.2694C60.0711 70.7243 59.8813 71.1593 60.0652 71.788C60.7539 70.2235 61.8313 69.0054 62.8528 67.734C62.9578 68.3365 63.0871 68.8675 62.5742 69.4038C61.5271 70.4988 60.8926 71.8851 60.1419 73.1852C59.9791 73.4672 59.9899 73.782 60.0766 74.2742C60.9353 72.6567 61.7949 71.2063 62.8322 69.8491C62.9401 70.4832 63.0999 71.0759 62.6488 71.6626C61.695 72.903 60.9714 74.2941 60.1538 75.6236C60.0004 75.873 59.9944 76.1378 60.0736 76.5847C61.0287 75.0412 61.9154 73.6081 62.8022 72.1751C62.923 72.874 63.0997 73.5019 62.6088 74.1593C61.7461 75.3147 61.0059 76.5613 60.2063 77.7643C60.007 78.0643 60.0305 78.3694 60.0752 78.8689C60.974 77.3378 61.902 76.0364 62.8509 74.7399C62.9927 75.4565 63.0675 76.0932 62.5129 76.7031C61.6051 77.7013 60.9422 78.8858 60.2288 80.0282C60.0291 80.348 60.0075 80.6759 60.0847 81.2081C61.0035 79.6757 61.8426 78.2707 62.8856 76.9119C63.0707 77.6457 63.1291 78.2081 62.6031 78.7814C62.0133 79.4242 61.5716 80.1986 61.1661 80.9825C60.9423 81.4152 60.6826 81.8296 60.3325 82.1804C60.1251 82.3882 59.9637 82.6244 60.1332 83.0738C61.3654 81.8921 61.8982 80.3097 62.9906 79.0404C63.1871 79.785 63.2961 80.3817 62.6893 80.9645C62.2774 81.3601 62.0217 81.9208 61.7069 82.4146C61.327 83.0105 60.9296 83.5851 60.312 83.9694C60.0761 84.1162 59.9562 84.3245 60.1753 84.7327C62.1073 83.1469 63.1741 81.0156 64.2727 78.872C64.6443 79.0828 64.8893 79.3728 64.679 79.771C63.7575 81.516 62.7614 83.2167 61.4307 84.6918C61.1968 84.9511 60.9347 85.1962 60.6485 85.3942C60.2988 85.6362 60.3533 85.8432 60.6179 86.0966C61.6048 85.2724 62.4073 84.3032 63.0982 83.2356C63.7846 82.1751 64.4473 81.1002 65.053 79.9564C65.4862 80.2384 65.7159 80.4536 65.4091 81.0004C64.3813 82.8319 63.1544 84.513 61.7863 86.0986C61.5405 86.3834 61.2191 86.6743 61.6588 87.0768C63.057 85.0239 64.8426 83.2932 65.8658 81.018C66.4029 81.2706 66.4651 81.5609 66.2422 82.0357C65.4833 83.6524 64.2747 84.9377 63.1719 86.301C62.9092 86.6257 62.6996 86.9672 62.5614 87.3577C62.4655 87.6287 62.5418 87.8034 62.8621 87.9021C63.2046 86.5514 64.2879 85.7406 65.0858 84.7292C65.7299 83.9128 66.2346 83.0163 66.719 82.068C67.2016 82.2558 67.3092 82.5253 67.114 82.9807C66.5098 84.3905 65.484 85.4954 64.5101 86.6379C64.1651 87.0426 63.8343 87.4465 63.718 87.9835C63.6658 88.2245 63.6333 88.4508 63.9361 88.5933C64.44 86.8822 66.0303 85.9327 66.8242 84.424C67.0577 83.9802 67.3207 83.5519 67.5818 83.0962C68.0458 83.2956 68.1783 83.5797 67.9473 84.0257C67.3324 85.2133 66.5205 86.2607 65.6507 87.2662C65.2901 87.683 64.962 88.1103 64.8101 88.6555C64.7394 88.9092 64.7516 89.1107 65.0037 89.3015C65.6512 87.5367 67.2242 86.4125 68.0187 84.7623C68.1274 84.5366 68.267 84.3258 68.3912 84.1098C68.9486 84.3748 69.0259 84.5673 68.7295 85.1026C68.1604 86.1308 67.4569 87.0674 66.7131 87.9745C66.3911 88.3671 66.0712 88.7592 65.8809 89.2411C65.7704 89.5208 65.8035 89.7264 66.0836 89.8669C66.9121 88.1214 68.4482 86.8683 69.1718 85.0794C69.8414 85.4835 69.8852 85.6428 69.5364 86.223C68.9314 87.2296 68.2259 88.1633 67.4715 89.0616C67.258 89.3158 67.0345 89.5713 66.9674 89.9067C66.921 90.1385 66.9298 90.3764 67.2843 90.5252C67.3133 89.8053 67.7953 89.3664 68.1853 88.8661C68.8661 87.9927 69.5316 87.1067 70.0594 85.9094C70.4007 86.3029 70.6634 86.5947 70.912 86.8981C71.0074 87.0145 70.9858 87.1603 70.91 87.2848C70.5957 87.8012 70.3729 88.3674 70.0132 88.8608C69.5355 89.5161 69.2312 90.2538 69.0934 91.0545C69.0584 91.2579 68.9972 91.4867 69.2404 91.6127C69.3552 91.6249 69.4121 91.5497 69.4139 91.4786C69.4461 90.2033 70.0884 89.1808 70.7693 88.1726C70.8565 88.0435 70.9337 87.9065 71.0042 87.7674C71.3809 87.0248 71.4285 87.0178 72.0218 87.6547C71.1468 88.8562 70.1433 90.0057 70.1087 91.6166C70.1031 91.8771 70.1076 91.8772 70.4256 92.3106C70.3033 90.3989 71.4321 89.1951 72.398 87.912C72.7968 87.9954 72.7968 87.9954 73.1194 88.2862C72.8978 88.7349 72.5615 89.1088 72.2257 89.4797C71.5293 90.249 71.1333 91.1354 71.1438 92.1841C71.1456 92.363 71.0759 92.5827 71.3318 92.6673C71.4934 92.5733 71.4384 92.4204 71.4447 92.2944C71.4852 91.4883 71.7496 90.7771 72.2723 90.1524C72.6477 89.7039 72.9981 89.2327 73.3355 88.7546C73.538 88.4676 73.7481 88.5177 73.9862 88.6678C74.2933 88.8614 74.1348 89.0525 73.9805 89.2461C73.5429 89.7954 73.0891 90.3329 72.6764 90.9003C72.1806 91.5818 72.1057 92.3451 72.2772 93.1756C72.3791 93.1327 72.4405 93.1199 72.441 93.1048C72.4866 91.8789 73.1024 90.9325 73.9021 90.0672C74.0853 89.869 74.2385 89.6318 74.3592 89.3895C74.5552 88.9958 74.7902 89.1004 75.0706 89.2731C75.436 89.498 75.2766 89.6922 75.0746 89.9239C74.6642 90.3945 74.28 90.8879 73.8694 91.3583C73.4247 91.8678 73.2479 92.4773 73.1731 93.1263C73.1456 93.3647 73.1764 93.5992 73.4364 93.7241C73.6075 93.6471 73.5482 93.4891 73.555 93.3664C73.591 92.7186 73.836 92.1574 74.2299 91.6512C74.6614 91.0969 75.1095 90.5536 75.5081 89.9764C75.7259 89.6609 75.9262 89.6976 76.1915 89.8612C76.5088 90.0567 76.4072 90.2823 76.2334 90.4971C75.8283 90.9977 75.4199 91.496 74.9995 91.9838C74.3473 92.7406 74.1397 93.6413 74.4886 94.2719C74.5211 94.26 74.5807 94.2507 74.5821 94.2358C74.6779 93.2383 75.136 92.4317 75.8278 91.7208C76.1514 91.3883 76.4132 90.988 76.6614 90.5923C76.8392 90.3088 77.0259 90.2814 77.2921 90.4274C77.6156 90.6048 77.5228 90.8259 77.3727 91.0627C77.0368 91.5927 76.6278 92.0642 76.2078 92.5268C75.7925 92.9842 75.4834 93.4989 75.3883 94.1165C75.3521 94.3519 75.2733 94.6335 75.7095 94.7783C75.7183 93.0466 77.4258 92.3491 77.9327 90.9271C78.6903 91.0556 78.7795 91.2274 78.442 91.8359C78.1353 92.3887 77.7056 92.842 77.2641 93.2838C76.8962 93.6521 76.6085 94.0599 76.5521 94.5928C76.5305 94.797 76.4846 95.0173 76.7836 95.2248C77.0497 93.6399 78.7701 93.0738 79.0349 91.56C79.7578 91.7595 79.8419 91.9187 79.5766 92.4837C79.274 93.1282 78.8406 93.6785 78.3143 94.1559C78.0358 94.4085 77.7942 94.6846 77.6876 95.0569C77.6343 95.2434 77.5423 95.4332 77.8199 95.5973C78.4988 94.5843 79.5492 93.8465 79.9566 92.6274C80.0237 92.4265 80.0658 92.1112 80.4195 92.2801C80.7114 92.4196 80.7966 92.6415 80.6657 92.9569C80.3259 93.7758 79.8957 94.5348 79.27 95.1723C79.2153 95.228 79.149 95.2767 79.1089 95.3415C78.9976 95.5214 78.6503 95.6781 78.8981 95.9149C79.175 96.1796 79.3487 95.8265 79.5058 95.6686C80.2093 94.962 80.6733 94.1122 80.9326 93.1501C80.9525 93.0765 80.9729 93.0029 80.992 92.933C81.4759 92.9491 81.564 93.0418 81.4641 93.5178C81.2774 94.4067 80.9276 95.2284 80.3793 95.9591C80.3115 96.0494 80.2404 96.1371 80.165 96.2336C80.4486 96.4659 80.6594 96.4082 80.8133 96.1365C81.2577 95.3523 81.6499 94.5456 81.7578 93.6352C81.7872 93.3877 81.7927 93.1437 82.1468 93.2037C82.4667 93.2579 82.5612 93.4597 82.4984 93.7581C82.3492 94.4673 82.1282 95.1525 81.8261 95.8124C81.7395 96.0017 81.5941 96.1775 81.6377 96.4423C81.9163 96.5132 82.0079 96.3054 82.091 96.1202C82.4023 95.4261 82.7262 94.7372 82.8428 93.9725C82.8923 93.6482 82.9367 93.2582 83.4295 93.3812C83.9061 93.5002 83.6395 93.8458 83.5929 94.0926C83.4418 94.8917 83.0722 95.625 82.7915 96.4305C83.1304 96.3621 83.232 96.1533 83.3455 95.9454C83.7139 95.2711 83.9465 94.5481 84.1111 93.8031C84.1832 93.477 84.3522 93.3058 84.6822 93.3817C85.0455 93.4654 84.8879 93.7592 84.8473 93.9586C84.7002 94.6819 84.3526 95.3395 84.0315 96.1832C84.9934 95.5095 85.3303 94.6605 85.6503 93.7466C86.0581 92.5819 85.6362 91.4771 85.5934 90.3468C85.5772 89.9191 85.5081 89.4936 85.469 89.0666C85.4324 88.6657 85.2315 88.507 84.8177 88.5008C83.8861 88.4869 82.9552 88.4264 81.9163 88.3801C82.33 87.4858 82.8684 86.8141 83.493 86.2088C83.6365 86.0697 83.8661 86.1205 84.0602 86.1199C84.9976 86.1169 85.9351 86.1268 86.8723 86.1128C87.6528 86.1012 88.1303 85.7186 88.1532 85.1218C88.179 84.4463 87.5902 83.8316 86.8441 83.8192C85.6923 83.8001 84.5398 83.821 83.3876 83.8235C82.6985 83.825 82.0094 83.8238 81.2991 83.8238C81.3493 83.4318 81.6042 83.4162 81.781 83.3344C84.1009 82.2609 86.4269 81.2003 88.7469 80.1269C89.6437 79.712 89.6408 79.7007 89.4776 78.7323C89.3706 78.0977 89.2436 77.4662 89.1505 76.8297C89.0983 76.4728 88.9276 76.324 88.568 76.3292C87.8651 76.3392 87.1618 76.3167 86.4589 76.3265C86.1088 76.3313 85.8676 76.2147 85.7096 75.8879C85.4327 75.3153 85.0499 74.7922 84.8413 74.0994C85.7566 73.9538 86.612 73.8144 87.4685 73.6823C89.586 73.3555 91.7062 73.0456 93.821 72.7018C94.9381 72.5201 95.0193 72.3281 94.5508 71.2802C94.4951 71.1556 94.4314 71.0346 94.3504 70.8733ZM80.7312 22.3184C79.095 23.3573 77.4224 24.3258 75.5787 24.9977C76.4501 23.9365 77.2938 22.8762 77.9196 21.6638C78.5544 20.4341 78.9996 19.1581 78.8644 17.7148C74.6986 22.1658 70.5401 26.5887 64.8768 29.1846C66.1352 29.1394 67.3658 28.9978 68.5885 28.7879C72.7469 28.0741 76.6279 26.707 79.8991 23.9331C80.746 23.215 81.5374 22.436 82.2045 21.3578C81.6511 21.7197 81.2273 21.9969 80.7312 22.3184ZM71.6442 21.4294C73.8504 19.3511 74.9246 18.0534 75.1939 17.1378C73.0581 18.9078 70.9115 20.6554 68.4836 22.0406C69.2638 21.1362 69.8918 20.1404 70.4854 19.1287C71.0772 18.1201 71.5644 17.0573 71.607 15.8314C69.6447 17.7727 67.7849 19.7874 65.8601 21.738C63.9175 23.7065 61.7269 25.3781 59.3665 26.8295C63.9413 26.1792 68.0541 24.4973 71.6442 21.4294ZM66.0041 18.138C64.7255 19.0174 63.4181 19.8455 61.9697 20.4432C63.4835 18.5575 64.6518 16.5232 65.2469 14.1733C60.8678 17.5371 57.627 22.0852 53.2843 25.4788C58.7626 24.1806 63.5526 21.7152 67.267 17.3993C66.797 17.51 66.4536 17.8298 66.0041 18.138ZM51.7055 13.1405C51.7622 13.0536 51.9143 13.0136 51.8032 12.7701C48.8944 13.8901 46.3802 15.5046 44.7762 18.2664C43.1863 21.004 42.8997 23.9661 43.4117 27.0375C43.486 26.7937 43.5321 26.5453 43.5626 26.2951C43.9094 23.4483 44.9411 20.8798 46.5983 18.5364C48.0319 16.5094 49.7805 14.7966 51.7055 13.1405ZM49.7799 18.5479C48.4539 20.6599 47.4992 22.9053 47.2894 25.531C47.3619 25.3438 47.3998 25.2559 47.4304 25.1656C48.1776 22.9593 49.4487 21.0905 51.0777 19.4429C52.3993 18.1063 53.9027 16.9856 55.3358 15.781C55.5174 15.6283 55.749 15.5041 55.8042 15.1859C55.0496 15.2826 54.5434 15.8446 53.738 16.0777C54.3452 15.0459 54.8858 14.1272 55.4264 13.2085C55.3767 13.1704 55.3269 13.1324 55.2772 13.0943C53.0449 14.4572 51.3063 16.3326 49.7799 18.5479ZM74.7362 30.5187C74.8697 30.522 75.0087 30.5515 75.1359 30.5248C76.8392 30.1669 78.5119 29.6981 80.0658 28.9018C82.1481 27.8349 83.9838 26.4793 85.0448 24.2997C85.4564 23.4542 85.7633 22.5776 85.8581 21.4837C85.5062 21.9082 85.2593 22.2078 85.0107 22.5059C82.9982 24.9183 80.7575 27.0729 78.012 28.6477C76.9307 29.268 75.8316 29.8571 74.7362 30.5187ZM82.511 31.1326C81.309 31.8359 80.0443 32.4196 78.7966 33.036C83.8844 32.9443 90.3507 27.9787 90.2249 24.2158C88.1945 27.1477 85.5699 29.3216 82.511 31.1326ZM54.3432 20.8845C56.9839 18.6744 59.4305 16.2704 61.6264 13.6143C57.4227 15.2664 54.577 18.3398 52.485 22.2031C52.5219 22.2458 52.5588 22.2886 52.5957 22.3313C53.1568 21.8669 53.718 21.4025 54.3432 20.8845ZM39.8935 21.9044C39.8935 22.2545 39.8935 22.6046 39.8935 22.9547C40.0759 22.6865 40.1797 22.4143 40.2776 22.14C41.0821 19.8874 42.4606 18.0306 44.3656 16.6245C45.2385 15.9803 45.3367 15.061 45.775 14.2219C45.4561 14.1696 45.2808 14.3097 45.1017 14.4163C42.2686 16.1018 40.1892 18.3196 39.8935 21.9044ZM39.8034 15.7241C37.8644 17.1585 36.8529 19.0938 36.6294 21.5433C36.7187 21.465 36.7584 21.4465 36.7717 21.4163C37.588 19.573 38.8619 18.1197 40.4499 16.8872C41.1411 16.3507 41.398 15.4333 41.9114 14.7103C41.1047 14.8131 40.4985 15.2663 39.8034 15.7241ZM91.2315 29.1715C90.4027 30.4277 89.4559 31.5834 88.3068 32.565C91.448 30.5998 93.5092 27.9799 93.4608 24.0945C93.2277 24.9714 92.9252 25.8319 92.5672 26.6776C92.2085 27.5251 91.7718 28.3267 91.2315 29.1715ZM68.5484 89.5814C68.3725 89.8146 68.1985 90.0466 68.0911 90.3247C67.9706 90.6369 67.9958 90.8757 68.3611 91.0387C68.4297 90.6586 68.4057 90.2963 68.5875 89.9867C68.7547 89.702 68.9376 89.4265 69.1128 89.1465C69.2864 88.8692 69.459 88.5913 69.632 88.3137C69.6063 88.2982 69.5805 88.2828 69.5547 88.2673C69.2343 88.6818 68.9138 89.0963 68.5484 89.5814Z" fill="#201A1A"/>
<path d="M24.7838 39.4404C23.3573 40.1093 23.364 40.1093 23.3572 41.6561C23.3508 43.123 23.3424 43.0008 24.5775 42.4694C28.2209 40.9018 32.0379 39.971 35.9399 39.3295C40.4642 38.5857 45.0207 38.4064 49.5899 38.5399C52.7851 38.6332 55.965 38.9488 59.1321 39.4149C63.2056 40.0144 67.2131 40.9517 71.2581 41.695C71.5555 41.7497 71.788 41.8253 71.7834 42.245C71.7563 44.6859 71.7626 47.1271 71.7574 49.5683C71.7556 50.4281 71.4471 50.7645 70.4806 50.9122C70.4781 50.4301 70.5075 49.9151 69.9172 49.7149C69.1632 49.4591 68.4229 49.2256 67.7137 49.8532C67.4543 50.0828 67.174 50.3055 66.8322 50.4218C66.2502 50.6197 65.9684 50.4459 65.9507 49.8279C65.9065 48.2863 65.8831 46.744 65.8466 45.2021C65.8421 45.0086 65.852 44.7975 65.7794 44.6268C65.6762 44.3841 65.4129 44.3357 65.1795 44.3566C64.8986 44.3818 64.9535 44.6352 64.9525 44.8183C64.945 46.3611 64.9241 47.9043 64.95 49.4467C64.9651 50.3432 64.7228 51.232 64.8981 52.1328C64.9336 52.3154 64.9107 52.5759 64.6348 52.5574C64.3935 52.5413 64.374 52.3017 64.3606 52.1037C64.222 50.0672 64.1438 48.0289 64.1668 45.9869C64.1723 45.4998 64.1275 45.0121 64.1068 44.5247C64.0942 44.2277 64.033 43.9797 63.6559 43.972C63.2567 43.9638 63.2181 44.2495 63.2155 44.5263C63.2018 45.9714 63.2037 47.4167 63.198 48.8619C63.1948 49.6626 63.1846 50.4632 63.1826 51.2639C63.1812 51.8395 62.8709 52.1781 62.3433 52.3131C61.8758 52.4327 61.4369 52.6715 60.9231 52.6126C60.2585 52.5364 60.087 52.3762 60.0849 51.6812C60.0776 49.279 60.0789 46.8768 60.0717 44.4746C60.0708 44.1827 60.0397 43.8909 60.0204 43.5992C59.9926 43.1795 59.6759 43.0828 59.3583 43.101C59.0139 43.1207 59.1057 43.4456 59.1048 43.6586C59.0955 46.0608 59.1024 48.4631 59.0853 50.8651C59.0832 51.1569 59.2664 51.6408 58.7774 51.6708C58.2324 51.7042 58.3704 51.1789 58.3667 50.8754C58.3365 48.415 58.335 45.9543 58.322 43.4937C58.3183 42.8042 58.2608 42.757 57.5284 42.7967C57.3993 43.0106 57.4539 43.2509 57.4527 43.4795C57.4388 46.155 57.435 48.8306 57.419 51.5061C57.4136 52.4128 57.3481 52.4566 56.4747 52.2676C55.7519 52.1111 55.0491 51.9086 54.3924 51.5463C54.0047 51.3325 53.9918 51.004 53.9878 50.6497C53.96 48.1702 53.9349 45.6906 53.9083 43.2111C53.9065 43.0355 53.9045 42.8596 53.8948 42.6843C53.8792 42.4023 53.6957 42.3398 53.451 42.3404C53.2018 42.341 53.0292 42.4188 53.0168 42.6966C53.0099 42.8526 53.0091 43.0089 53.0083 43.1651C52.9974 45.4695 52.9886 47.7739 52.9737 50.0783C52.9721 50.331 52.9484 50.5854 52.9107 50.8353C52.8839 51.013 52.8092 51.1918 52.5829 51.1775C52.3786 51.1646 52.3555 50.9901 52.3421 50.8322C52.3092 50.4436 52.2614 50.0545 52.2582 49.6653C52.2399 47.439 52.2338 45.2126 52.221 42.9862C52.2192 42.6803 52.2892 42.3357 51.7955 42.3206C51.3278 42.3062 51.3049 42.6167 51.302 42.9411C51.2812 45.245 51.2655 47.5489 51.249 49.8529C51.2455 50.3411 51.221 50.8308 51.2506 51.3171C51.2825 51.8421 51.0939 52.057 50.5484 52.0458C49.9063 52.0327 49.262 52.0937 48.6196 52.1368C47.9264 52.1833 47.7892 52.0728 47.7871 51.3691C47.779 48.7325 47.7785 46.096 47.7721 43.4595C47.7716 43.2458 47.7667 43.0288 47.7297 42.8193C47.69 42.594 47.5251 42.4947 47.2982 42.5209C47.0898 42.545 46.9155 42.6181 46.9043 42.8693C46.8973 43.0253 46.8886 43.1813 46.8866 43.3374C46.8551 45.8137 46.8246 48.2899 46.7937 50.7662C46.7923 50.8833 46.7942 51.0008 46.7858 51.1174C46.7713 51.3188 46.6672 51.4527 46.4595 51.4613C46.2322 51.4708 46.1601 51.3101 46.1481 51.1175C46.1155 50.5916 46.0679 50.0655 46.063 49.5391C46.0441 47.5082 46.0423 45.477 46.0269 43.446C46.0246 43.1533 46.1274 42.7757 45.61 42.7907C45.15 42.804 45.1535 43.1191 45.1527 43.4464C45.1457 46.1025 45.1383 48.7585 45.1279 51.4145C45.1242 52.3657 45.1209 52.3711 44.1719 52.4885C43.9016 52.522 43.6264 52.5191 43.3533 52.5245C42.1253 52.5485 41.9332 52.3637 41.9312 51.1117C41.9276 48.8854 41.9398 46.6589 41.9266 44.4326C41.9251 44.1871 42.0885 43.7737 41.5955 43.7744C41.1361 43.7751 41.0451 44.0784 41.0409 44.4896C41.017 46.8128 40.9724 49.1357 40.9337 51.4588C40.9314 51.5952 40.9276 51.7325 40.9101 51.8675C40.8909 52.0164 40.8129 52.1245 40.6477 52.1302C40.4849 52.1358 40.3862 52.0345 40.3591 51.8917C40.3229 51.7015 40.3037 51.5053 40.3025 51.3114C40.2897 49.2999 40.2821 47.2884 40.2726 45.2768C40.2718 45.1011 40.2764 44.9248 40.2638 44.7498C40.2461 44.504 40.1867 44.2502 39.8844 44.2532C39.6135 44.2558 39.3837 44.3924 39.374 44.7091C39.3442 45.6827 39.3117 46.6565 39.3045 47.6304C39.2922 49.3099 39.2859 50.9896 39.3042 52.669C39.3097 53.1651 39.1537 53.4306 38.6366 53.5008C38.2135 53.5582 37.7983 53.6857 37.3856 53.8034C36.9789 53.9194 36.7681 53.851 36.7562 53.3622C36.7417 52.7597 36.6716 52.1647 36.7106 51.5536C36.8362 49.5859 36.6306 47.621 36.6484 45.6622C35.9182 45.5713 35.7759 45.6792 35.7708 46.3287C35.7566 48.1254 35.7598 49.9222 35.741 51.7188C35.7361 52.186 35.6799 52.653 35.638 53.1193C35.6242 53.2726 35.6056 53.4555 35.3965 53.4618C35.1964 53.4678 35.139 53.296 35.1168 53.1426C35.075 52.8538 35.0383 52.5614 35.0355 52.2702C35.0182 50.4931 35.0125 48.7159 34.999 46.9387C34.9971 46.6903 35.0283 46.4312 34.8656 46.1946C34.3429 46.2496 34.1353 46.5168 34.1 47.0374C33.9689 48.9696 34.0651 50.9028 34.0261 52.8348C34.0193 53.1695 34.1188 53.5386 33.8046 53.88C33.1524 53.4514 32.4618 53.1832 31.6691 53.5655C31.3768 53.2969 31.4154 52.9319 31.4111 52.5939C31.394 51.266 31.3926 49.938 31.3858 48.61C31.3847 48.3985 31.3857 48.1871 31.3857 47.9813C30.654 47.9402 30.5119 48.0548 30.5053 48.6876C30.4913 50.0155 30.4952 51.3436 30.4793 52.6715C30.4719 53.2977 30.3883 53.9111 29.9644 54.4515C29.5865 52.5333 29.8882 50.5746 29.6925 48.6348C29.0809 48.6304 28.8366 48.8685 28.8446 49.448C28.8644 50.8928 28.8459 52.3383 28.8306 53.7834C28.8283 54.0015 28.9059 54.3179 28.6109 54.383C28.3282 54.4455 28.2182 54.1483 28.1427 53.9425C27.889 53.2512 27.4215 52.9464 26.6805 52.914C25.8058 52.8757 25.4231 53.2611 25.6479 54.1044C26.358 56.7675 27.303 59.3471 28.3568 61.8933C29.7436 65.244 31.3462 68.5127 32.2983 72.0325C32.5407 72.9287 32.778 73.8269 32.9184 74.795C32.7915 74.7761 32.7115 74.7831 32.6522 74.7514C32.5324 74.6874 32.4218 74.6052 32.3108 74.5257C31.4379 73.9003 30.3987 73.3844 29.8087 72.5277C29.2212 71.6746 29.0688 70.5317 28.6625 69.5418C27.2544 66.1115 25.7958 62.7018 24.3998 59.2666C22.7778 55.2749 21.6322 51.1434 21.0007 46.88C20.3488 42.4793 20.3478 38.0888 21.4594 33.7494C22.4997 29.6884 24.5945 26.2912 27.9134 23.681C28.1846 23.4677 28.3879 23.5113 28.6514 23.6593C32.26 25.6864 35.9248 27.6087 39.5927 29.5255C43.7473 31.6967 48.0093 33.6357 52.3138 35.4857C52.5924 35.6055 52.8933 35.6943 53.1181 35.9121C53.0208 36.1229 52.87 36.0419 52.7469 36.0298C49.7104 35.7297 46.6638 35.7052 43.6201 35.7906C37.2799 35.9686 31.075 36.9098 25.1454 39.2826C25.037 39.326 24.9307 39.3745 24.7838 39.4404ZM31.0226 30.4809C31.4791 30.2415 31.9355 30.0022 32.4913 29.7107C30.3593 29.7927 28.4214 31.4115 27.8806 33.4784C28.7784 32.3454 29.7454 31.3117 31.0226 30.4809ZM28.648 28.5798C29.039 28.3577 29.4301 28.1356 29.9099 27.863C27.7166 27.9746 25.7701 29.9998 25.4151 31.8091C26.2942 30.4958 27.3046 29.4279 28.648 28.5798ZM32.9819 32.1696C33.4584 31.922 33.9348 31.6744 34.4113 31.4267C33.6963 31.5057 33.1289 31.864 32.641 32.3755C32.7328 32.3184 32.8246 32.2612 32.9819 32.1696Z" fill="#201A1A"/>
<path d="M40.5889 95.4197C42.0355 93.9665 43.3723 92.4659 44.7232 90.9782C45.5366 90.0824 46.3555 89.1911 47.193 88.3181C47.7112 87.7779 48.2389 87.8373 48.9875 88.4637C49.5538 88.9375 49.7101 89.5322 49.2989 90.0535C48.6716 90.8489 47.9819 91.5955 47.31 92.355C45.9781 93.8607 44.6362 95.3575 43.3069 96.8654C42.8274 97.4093 42.8246 97.4836 43.413 97.9147C45.7585 99.6331 48.1157 101.336 50.4699 103.042C50.6938 103.205 50.9485 103.283 51.2214 103.345C52.8029 103.703 53.6881 105.125 53.3355 106.713C53.0075 108.189 51.4295 109.228 49.9679 108.964C49.254 108.836 48.6456 108.51 48.0631 108.11C43.7661 105.161 39.527 102.13 35.2807 99.1085C32.9429 97.4453 30.5948 95.7967 28.2533 94.1387C28.0648 94.0053 27.8915 93.8504 27.7047 93.7004C27.8179 93.309 28.1226 93.1073 28.3596 92.8654C31.6382 89.5193 34.838 86.0987 38.0234 82.6644C38.2219 82.4504 38.4454 82.259 38.6622 82.0624C39.0378 81.7219 39.419 81.8012 39.7696 82.0896C40.1506 82.403 40.196 82.7819 39.8639 83.1599C38.9625 84.1858 38.0544 85.2058 37.1433 86.2232C36.0625 87.43 34.9681 88.6249 33.8975 89.8407C33.6533 90.118 33.3053 90.4005 33.5432 90.862C33.8526 91.4622 34.4323 91.5484 34.9268 91.0174C35.7513 90.132 36.5346 89.2085 37.3473 88.312C38.6319 86.8949 39.921 85.4817 41.2194 84.0773C41.7249 83.5305 42.1356 83.5013 42.6356 83.9244C43.1165 84.3313 43.1968 84.6926 42.7957 85.186C42.1318 86.003 41.4209 86.7821 40.7207 87.5691C39.3845 89.0709 38.0384 90.5638 36.7041 92.0673C36.2653 92.5618 36.2536 92.8915 36.6197 93.2357C37.0251 93.6167 37.4212 93.5879 37.878 93.085C39.7416 91.0336 41.5918 88.97 43.4522 86.9157C43.753 86.5834 44.069 86.2627 44.3989 85.9594C44.8214 85.5708 45.2269 85.7389 45.6013 86.0534C45.9791 86.3706 46.1044 86.7532 45.8053 87.1874C45.2498 87.9939 44.5531 88.683 43.9065 89.4123C42.4695 91.0335 41.0143 92.6386 39.5559 94.2407C39.2403 94.5874 39.1852 94.934 39.4917 95.2802C39.7846 95.6109 40.1385 95.8044 40.5889 95.4197Z" fill="#201A1A"/>
<path d="M30.4693 81.7966C29.5673 82.7735 28.6878 83.715 27.8226 84.6693C27.4229 85.1103 26.9304 85.5058 26.9704 86.2017C26.9799 86.3665 26.8305 86.4759 26.721 86.5845C25.6259 87.6708 24.5204 88.7467 23.437 89.8445C23.1766 90.1083 23.0035 90.111 22.7026 89.8948C20.309 88.1749 17.888 86.4928 15.5012 84.7636C13.3268 83.1881 13.0679 80.8652 14.8595 78.916C17.396 76.1566 19.9645 73.4266 22.5304 70.6945C23.3344 69.8384 23.9712 69.8393 24.7831 70.639C25.2581 71.1069 25.3225 71.5048 24.8857 72.0231C24.0561 73.0076 23.1822 73.9546 22.3261 74.9167C21.1451 76.2438 19.9618 77.5688 18.7836 78.8984C18.4677 79.2549 18.2507 79.6429 18.5864 80.1058C18.924 80.5715 19.3437 80.583 19.8119 80.076C20.6459 79.1728 21.4411 78.2338 22.2618 77.3181C23.5779 75.8497 24.8908 74.3782 26.2273 72.9285C26.7504 72.3611 27.1642 72.3907 27.6631 72.9192C28.0728 73.3532 27.9749 73.7803 27.6366 74.1748C26.8237 75.1229 25.9926 76.0555 25.1664 76.9921C23.9529 78.3678 22.7334 79.7383 21.5246 81.118C21.0421 81.6687 21.1595 82.2438 21.7689 82.4853C22.2255 82.6662 22.4707 82.3527 22.7128 82.0864C23.5267 81.1909 24.3193 80.276 25.1256 79.3736C26.4002 77.9468 27.6725 76.5179 28.9598 75.1027C29.4787 74.5322 29.8486 74.5141 30.3665 74.9661C30.8551 75.3926 30.9136 75.82 30.4749 76.3352C29.7283 77.2118 28.9478 78.0595 28.1803 78.9183C26.9188 80.3297 25.6453 81.7306 24.3999 83.156C23.9157 83.7102 23.9847 84.0578 24.5237 84.4175C24.9153 84.6788 25.2202 84.5599 25.5019 84.2501C26.5132 83.1382 27.5221 82.0241 28.5353 80.9139C29.6669 79.6739 30.7961 78.4315 31.9388 77.2018C32.4188 76.6851 32.8663 76.6735 33.3629 77.1162C33.8223 77.5258 33.8834 77.9867 33.4358 78.504C32.4784 79.6105 31.4796 80.6811 30.4693 81.7966Z" fill="#201A1A"/>
<path d="M17.1685 103.679C15.9221 104.325 14.7543 104.124 14.0357 103.17C13.2792 102.167 13.3805 100.793 14.334 99.8692C17.3901 96.9086 20.4699 93.9726 23.5253 91.0113C26.6921 87.942 29.7979 84.8112 32.9029 81.6795C34.565 80.003 36.2537 78.352 37.965 76.7259C38.9478 75.7921 40.1386 75.4469 41.4797 75.8025C42.6686 76.1177 43.5297 77.1753 43.6118 78.388C43.676 79.3354 43.0211 80.3936 42.1503 80.8079C41.68 81.0316 41.268 81.0051 40.8285 80.7221C40.0403 80.2145 39.3896 80.2279 38.7028 80.8835C37.6734 81.866 36.7026 82.9106 35.7206 83.9419C33.7556 86.0052 31.7879 88.0662 29.8429 90.1484C26.3794 93.8565 22.9409 97.5881 19.4706 101.29C18.7246 102.086 18.0588 102.961 17.1685 103.679Z" fill="#201A1A"/>
<path d="M53.9896 72.9881C53.7426 73.195 53.5004 73.3247 53.2289 73.3761C52.7045 73.4752 52.2892 73.4222 52.1071 72.7821C51.895 72.0364 51.379 71.514 50.6803 71.1602C50.1252 70.8792 49.5618 70.6118 49.0635 70.224C47.2162 68.7865 46.9486 66.0239 48.4725 64.2904C48.9549 63.7417 49.5783 63.531 50.2456 63.3996C50.1095 62.5457 49.1481 61.8986 48.3349 62.0792C47.3918 62.2887 46.845 62.9487 46.434 63.7623C45.9504 64.7194 45.8119 65.7667 45.6334 66.8038C45.6109 66.9341 45.6418 67.0801 45.501 67.2076C45.4472 67.1828 45.36 67.1703 45.3198 67.1201C43.9748 65.4419 44.0464 62.4585 45.4655 60.8629C46.9201 59.2274 49.2429 59.0736 50.9097 60.5273C52.6407 62.0371 53.3436 63.9145 52.8458 66.1923C52.5989 67.3219 52.846 68.3136 53.634 69.1708C54.058 69.6319 54.4818 70.1136 54.6119 70.7432C54.7818 71.5648 54.6596 72.3378 53.9896 72.9881Z" fill="#201A1A"/>
</svg>
