<svg width="120" height="120" viewBox="0 0 120 120" fill="none" xmlns="http://www.w3.org/2000/svg">
<path d="M32.4765 71.1068C30.8172 67.7621 28.9286 64.5868 27.3334 61.2582C25.4899 57.4114 24.1728 53.3968 23.6836 49.1518C23.2905 45.7404 23.3445 42.3376 24.4097 39.0183C25.0674 36.9689 26.1916 35.2514 27.9663 33.9969C28.29 33.7682 28.501 33.5306 28.4437 33.085C28.0397 29.9443 29.4952 27.7154 31.9789 26.0235C32.737 25.5071 33.5594 25.091 34.4358 24.7975C34.7199 24.7024 34.9665 24.5651 35.1281 24.2934C36.9758 21.1863 39.8385 19.4225 43.1525 18.2784C46.0995 17.2609 49.1497 16.7511 52.2483 16.4732C55.0549 16.2215 57.8624 16.1962 60.6697 16.3825C63.0623 16.5414 65.4431 16.8341 67.823 17.13C70.2016 17.4257 72.5813 17.8023 74.9881 17.4439C77.602 17.0546 79.7051 15.8725 81.0219 13.4948C81.0501 13.4439 81.0828 13.3938 81.1221 13.3514C81.1465 13.3252 81.1872 13.3141 81.2932 13.2571C81.6828 14.3394 81.7064 15.4515 81.749 16.5623C81.7927 17.6996 81.5389 18.7937 81.2301 19.8613C81.3268 19.9077 81.3682 19.9459 81.3936 19.9372C82.9426 19.4053 84.3006 18.5677 85.2764 17.2405C86.2997 15.8487 86.1969 14.3537 85.4352 12.8735C85.2067 12.4294 84.9179 12.0163 84.6 11.4962C85.3643 11.4246 86.0259 11.5529 86.6771 11.6763C90.7065 12.4401 93.9039 14.4978 96.0172 18.0257C98.4043 22.0107 98.4519 26.2116 96.7441 30.4565C95.2876 34.0766 92.7184 36.6341 89.1065 38.1171C88.5843 38.3315 88.4875 38.5881 88.5746 39.1345C89.1293 42.6139 89.6393 46.1004 90.1597 49.5851C90.2518 50.2017 90.2803 50.8312 90.418 51.4366C90.5374 51.9618 90.4184 52.3891 90.1451 52.8198C89.7791 53.3966 89.4595 54.0043 89.0714 54.5651C88.7681 55.0033 88.7516 55.3594 89.0266 55.8394C90.7441 58.8378 92.4263 61.8563 94.1228 64.8667C94.3822 65.327 94.6185 65.7959 94.7732 66.3035C95.2929 68.0088 94.6205 69.5789 93.0152 70.3573C92.3251 70.6919 91.5899 70.9105 90.8212 70.9262C90.3215 70.9364 90.1456 71.1088 90.1386 71.62C90.126 72.5366 90.2662 73.4493 90.1715 74.368C90.1342 74.73 90.0746 75.1046 89.8428 75.351C89.2318 76.0004 89.3321 76.7454 89.4829 77.4888C89.7587 78.8484 89.3937 79.9598 88.2906 80.8078C87.9553 81.0656 88.0257 81.3787 88.0976 81.7075C88.4137 83.1535 88.8902 84.5653 89.096 86.0329C89.3948 88.1639 88.3224 90.2176 86.4368 91.2806C85.3896 91.871 84.2635 92.1372 83.0717 92.1397C80.2595 92.1458 77.4471 92.1603 74.6352 92.1295C74.0283 92.1229 73.7401 92.298 73.5523 92.8939C72.3509 96.7078 71.1161 100.511 69.8738 104.312C69.7501 104.691 69.8185 104.921 70.1071 105.177C71.0566 106.019 71.9802 106.89 72.9241 107.738C73.2578 108.038 73.2851 108.283 72.9184 108.582C72.4955 108.927 72.0864 109.293 71.7015 109.679C71.3931 109.989 71.1705 109.939 70.8695 109.657C68.8577 107.776 66.7595 105.997 64.5614 104.334C58.8561 100.018 52.5822 96.7234 46.0272 93.9159C43.5683 92.8628 41.0779 91.8993 38.5654 90.9879C38.4458 90.9445 38.3299 90.8413 38.1612 90.9124C49.003 95.7953 59.4685 101.259 68.4272 109.399C67.6693 110.028 67.0066 110.591 66.3272 111.134C66.0447 111.36 65.8508 111.087 65.6743 110.933C64.2029 109.647 62.675 108.432 61.0972 107.281C56.9748 104.273 52.6617 101.571 48.1616 99.1608C43.4394 96.632 38.603 94.3612 33.5579 92.5506C33.1215 92.394 32.9576 92.2023 33.1365 91.7378C33.7116 90.2448 34.2701 88.7453 34.8196 87.2427C34.9519 86.8809 35.1768 86.9108 35.4692 86.9853C37.2876 87.4489 39.0522 88.0825 40.8177 88.706C44.8146 90.1177 48.726 91.7422 52.5287 93.6161C57.513 96.0722 62.2912 98.87 66.6818 102.297C66.8616 102.437 67.0209 102.625 67.3374 102.648C67.5433 102.032 67.9338 101.487 67.4147 100.769C64.0857 96.1647 60.9424 91.4311 57.7084 86.7604C56.4972 85.0111 55.3206 83.2379 54.1175 81.4829C53.8652 81.1149 53.7342 80.7408 53.7436 80.2851C53.7671 79.153 53.7499 78.0199 53.7476 76.8872C53.7459 76.0334 53.6881 75.9826 52.7786 76.1131C51.2882 76.3272 49.8227 76.2289 48.38 75.7931C46.7402 75.2977 45.3256 74.4238 44.0861 73.2523C43.959 73.1322 43.8239 73.0195 43.6841 72.9146C43.6443 72.8847 43.5748 72.8942 43.5194 72.8857C43.3169 73.0608 43.3927 73.2912 43.3913 73.4945C43.383 74.6272 43.3746 75.7601 43.3921 76.8925C43.399 77.3366 43.254 77.5138 42.7849 77.511C40.2657 77.496 37.7464 77.5025 35.2271 77.5166C34.8859 77.5186 34.7403 77.3849 34.6658 77.0684C34.1805 75.0078 33.4135 73.049 32.4765 71.1068ZM34.9297 35.944C35.1977 35.2737 35.448 34.5956 35.7379 33.9349C36.1634 32.965 36.7071 32.0631 37.4313 31.2834C37.6195 31.0807 37.8272 30.83 38.1937 31.0428C38.1781 31.4012 38.0849 31.8177 38.6794 31.852C38.7324 31.2849 39.0814 31.1342 39.575 31.1706C39.8467 31.1905 40.1204 31.196 40.3798 31.0723C40.5405 30.9957 40.7251 30.9293 40.8696 31.0853C41.0332 31.2619 40.8669 31.4155 40.7831 31.5561C40.5833 31.8912 40.3591 32.2117 40.1577 32.5459C38.1555 35.8687 37.2669 39.5107 37.082 43.3499C37.062 43.764 37.0168 44.1896 37.1333 44.6839C37.4011 44.4023 37.3926 44.116 37.4571 43.8655C38.1821 41.0484 38.9709 38.2513 40.1718 35.5922C40.8801 34.0237 41.6534 32.4878 42.8793 31.2387C43.0344 31.0807 43.162 30.8419 43.4778 30.9511C43.4778 31.1713 43.4778 31.3938 43.4778 31.6565C43.7796 31.6557 44.0634 31.8699 44.2863 31.4413C44.3773 31.2664 44.6989 31.2068 44.9607 31.2464C45.4486 31.3201 45.9379 31.3857 46.4834 31.3225C45.1008 33.1791 43.9757 35.1462 43.2256 37.3172C42.4794 39.4768 41.9709 41.675 41.9902 44.1312C42.2711 43.7657 42.3123 43.4748 42.3966 43.2069C43.366 40.1267 44.5634 37.1428 46.1624 34.3308C46.7049 33.3768 47.3901 32.5243 48.1431 31.7272C48.2484 31.6157 48.3659 31.4752 48.5427 31.5612C48.746 31.66 48.6381 31.8185 48.5932 31.9658C48.5384 32.1452 48.4838 32.3298 48.5636 32.4886C48.8205 32.6172 48.8816 32.3369 49.0987 32.3149C49.1525 32.4469 49.1737 32.7731 49.4297 32.5541C49.9374 32.1199 50.6032 32.3551 51.1533 32.1026C51.3028 32.0339 51.5462 32.0346 51.6571 32.2536C51.6691 32.4206 51.557 32.5126 51.4679 32.6122C49.9773 34.2772 48.9135 36.1962 48.0875 38.2599C47.4464 39.8616 47.0861 41.5389 46.7247 43.2166C46.6884 43.3853 46.6261 43.5886 46.8531 43.6674C47.0701 43.7429 47.232 43.6379 47.3176 43.4263C47.3615 43.318 47.4 43.2073 47.438 43.0967C48.0481 41.3223 48.7485 39.5867 49.6314 37.9277C50.5786 36.148 51.5737 34.4024 53.0668 33.0048C53.2373 32.8453 53.3878 32.5899 53.694 32.7733C53.5108 33.3512 53.7284 33.6322 54.2979 33.6129C54.5457 33.6046 54.7509 33.4957 54.9563 33.3897C55.5132 33.1022 55.9891 33.313 56.5332 33.605C55.335 34.9564 54.3037 36.3706 53.5063 37.9376C52.7047 39.5128 52.0888 41.1605 51.6187 42.866C52.2219 43.0979 52.4091 42.8165 52.5914 42.4114C53.7815 39.7681 55.1449 37.2264 57.0956 35.0493C57.3952 34.7149 57.6851 34.3357 58.1358 34.1981C58.3945 34.4955 58.2089 34.7351 58.1288 34.9781C58.3657 35.0007 58.4051 34.8392 58.4715 34.6986C58.5649 34.501 58.7325 34.3759 58.9438 34.4446C59.5997 34.6578 60.297 34.7809 60.9179 35.2596C60.1195 36.0931 59.4116 36.9429 58.821 37.8847C58.0713 39.0799 57.4642 40.3448 56.9464 41.6543C56.8665 41.8564 56.7825 42.0844 57.0696 42.1986C57.3057 42.2925 57.4862 42.1862 57.6128 41.9809C57.6537 41.9147 57.6819 41.8408 57.7185 41.7719C58.6563 40.0065 59.7726 38.3621 61.0813 36.8511C61.5638 36.294 61.9853 35.7038 62.9339 36.1063C63.6139 36.3949 64.374 36.4899 64.9949 37.0272C64.8026 37.2389 64.6606 37.3972 64.5165 37.5536C63.5576 38.5941 62.7806 39.7616 62.1119 41.004C62.0325 41.1516 61.8906 41.3258 62.0783 41.475C62.2668 41.6249 62.4855 41.6026 62.6671 41.4406C62.7678 41.3507 62.8514 41.2394 62.9323 41.13C63.7589 40.0124 64.714 39.0081 65.6771 38.0108C65.9397 37.7389 66.1968 37.6602 66.6097 37.7736C67.5583 38.0341 68.4342 38.4604 69.3416 38.8145C69.6217 38.9237 69.7254 39.118 69.7248 39.4012C69.7196 42.1937 69.7159 44.9862 69.7133 47.7788C69.7129 48.2105 69.542 48.4843 69.1199 48.673C66.715 49.7487 64.326 50.86 61.9227 51.9394C61.4926 52.1326 61.3056 52.3759 61.3182 52.8689C61.352 54.1961 61.3114 55.525 61.3369 56.8525C61.346 57.3276 61.2307 57.6754 60.8093 57.9295C60.3228 58.2228 60.1265 58.6442 60.14 59.2485C60.1819 61.1224 60.1749 62.9981 60.144 64.8725C60.1359 65.3635 60.3168 65.6194 60.7348 65.8169C61.7405 66.292 62.7295 66.8024 63.7323 67.2836C64.0573 67.4396 64.2133 67.6472 64.2918 68.0215C64.6799 69.8702 65.131 71.7055 65.5234 73.5533C65.6264 74.0383 65.8636 74.274 66.3223 74.4262C68.2297 75.0591 70.124 75.7314 72.0284 76.3738C72.4093 76.5022 72.6221 76.705 72.7693 77.1012C73.3314 78.6142 73.694 80.2006 74.4462 81.6443C74.7162 82.1625 74.9017 82.7278 75.2005 83.2269C75.392 83.5466 75.359 83.7421 75.1306 83.9949C74.6206 84.5595 74.1329 85.1442 73.6286 85.714C73.454 85.9113 73.3417 86.0818 73.6061 86.2988C73.852 86.5007 73.9851 86.3432 74.1389 86.1765C74.6021 85.674 75.0964 85.1978 75.5312 84.6721C76.0705 84.02 76.6352 83.6657 77.4304 84.2589C77.489 84.3026 77.5838 84.2942 77.6526 84.3284C78.1534 84.577 78.7378 84.6372 79.1874 84.9705C79.1831 85.2272 79.0202 85.353 78.899 85.4998C78.4764 86.0115 78.0422 86.5137 77.6282 87.0321C77.4799 87.2177 77.2509 87.4203 77.573 87.6713C77.8444 87.8827 78.0372 87.7661 78.2253 87.5572C78.6042 87.1364 78.9976 86.7277 79.3605 86.2936C79.885 85.6663 80.4023 85.1547 81.3078 85.7029C81.6267 85.896 82.0546 85.9033 82.4265 86.0162C82.6949 86.0977 83.0135 86.0892 83.1977 86.3801C82.8301 87.1796 82.068 87.7223 81.772 88.537C82.1227 88.9499 82.4005 88.9226 82.7064 88.5442C83.1601 87.9829 83.6345 87.4371 84.1218 86.9045C84.4436 86.5526 84.6255 86.6576 84.9294 87.0211C85.3173 87.4851 84.9797 87.9074 84.9683 88.3614C86.0496 87.7125 86.4491 86.8045 86.1725 85.6678C85.9603 84.7954 85.7476 83.9232 85.5338 83.0512C85.4271 82.6162 85.4276 82.0999 85.1809 81.7681C84.8811 81.3649 84.3065 81.6215 83.8543 81.5851C83.491 81.5558 83.3726 81.3956 83.4104 81.0612C83.4542 80.6737 83.4902 80.2854 83.5361 79.8983C83.634 79.072 83.6357 79.0724 84.4604 79.0658C84.9095 79.0622 85.3617 79.0898 85.807 79.0463C86.5427 78.9743 86.8606 78.5124 86.8045 77.6745C86.7488 76.8419 86.6739 76.75 85.7395 76.8033C83.2831 76.9435 80.8271 77.0736 78.3656 77.0242C78.1522 77.0199 77.8951 77.1233 77.6832 76.8078C78.5076 76.1275 79.3257 75.4429 80.1585 74.7767C80.2688 74.6884 80.4523 74.6745 80.6052 74.6593C81.6141 74.5593 82.6241 74.4717 83.6331 74.3735C84.6805 74.2716 85.7271 74.1627 86.774 74.0563C87.1752 74.0155 87.4504 73.8247 87.4437 73.3934C87.4316 72.6128 87.3841 71.8328 87.3699 71.0523C87.3637 70.7063 87.2297 70.5722 86.8756 70.5793C86.2122 70.5926 85.5477 70.573 84.8841 70.5539C84.6559 70.5474 84.3527 70.5589 84.3515 70.2352C84.3486 69.4848 84.2053 68.7288 84.3701 67.9313C84.64 67.9313 84.8714 67.9313 85.1028 67.9313C87.0167 67.9312 88.9306 67.9402 90.8445 67.9275C91.8858 67.9205 92.2797 67.2698 91.8324 66.3225C91.6994 66.0409 91.5293 65.7767 91.3753 65.505C89.5267 62.2443 87.6835 58.9805 85.8226 55.7268C85.5823 55.3066 85.5627 54.9705 85.8249 54.5445C86.387 53.6314 86.8935 52.6839 87.4208 51.7493C87.5686 51.4873 87.6003 51.2251 87.5501 50.9109C87.0481 47.7719 86.5703 44.6289 86.0822 41.4877C85.9608 40.7063 85.8268 39.927 85.6937 39.1165C85.35 39.1602 85.0796 39.1844 84.8128 39.2301C82.3941 39.6441 79.9594 39.7173 77.5222 39.4903C73.9761 39.1602 70.6073 38.155 67.3344 36.7689C64.0113 35.3616 60.7371 33.8364 57.3339 32.6195C52.1588 30.769 46.8897 29.4457 41.3378 29.5475C38.8271 29.5936 36.3478 29.8199 33.9557 30.621C31.9636 31.2882 30.2029 32.2826 29.2261 34.2796C28.8729 35.0017 28.6086 35.756 28.3971 36.5281C27.6242 39.3499 27.5985 42.2332 27.7219 45.1255C27.7385 45.5136 27.8369 45.8982 27.8974 46.2844C28.348 43.4716 28.8198 40.6858 29.5067 37.9432C29.8992 36.3763 30.2434 34.7751 31.2733 33.4582C31.6328 32.9985 32.0211 32.5124 32.5838 32.3261C33.1796 32.1289 33.7819 31.9499 34.3784 31.7509C34.6623 31.6562 35.0004 31.3786 35.4148 31.6873C32.8659 36.0677 32.0476 40.8121 32.4584 45.8124C33.0243 42.4891 33.7986 39.2186 34.9297 35.944ZM41.5561 64.3315C42.2775 66.0084 43.241 67.5438 44.3108 69.0148C45.5787 70.7583 47.1062 72.1752 49.2448 72.7689C51.1615 73.3009 53.0553 73.3005 54.8979 72.4402C55.5271 72.1464 55.8099 71.7176 55.8036 70.9782C55.7696 66.9961 55.7655 63.0134 55.8036 59.0314C55.8108 58.2771 55.6349 57.7718 54.9313 57.4525C54.3964 57.2098 53.9406 56.797 53.3127 56.6251C53.1386 57.2492 53.3344 57.8424 53.1661 58.4114C52.8618 58.3261 52.798 58.0757 52.6799 57.8923C51.9084 56.694 50.8609 55.8103 49.599 55.1754C46.5093 53.6209 42.6814 54.9058 41.2906 57.9745C40.3286 60.0971 40.562 62.1906 41.5561 64.3315ZM86.1532 28.907C83.0372 32.0791 79.1011 33.5816 74.8434 34.4445C76.7301 34.6246 78.6 34.5318 80.4065 34.0349C85.7094 32.5761 89.3874 29.4646 90.4935 23.8341C90.6425 23.0754 90.5786 21.3089 90.3548 20.8013C89.7523 23.9319 88.4468 26.6338 86.1532 28.907ZM70.3106 32.7487C70.101 32.8029 69.8915 32.8571 69.682 32.9114C69.7779 32.999 69.8533 33.0144 69.9291 33.0168C73.97 33.1446 77.8045 32.3484 81.3537 30.3779C84.1643 28.8175 86.2942 26.6018 87.6035 23.6353C87.9897 22.7601 88.2124 21.968 88.1989 21.4165C86.3213 24.9012 83.5195 27.4579 80.0776 29.3445C77.0437 31.0075 73.7858 32.0531 70.3106 32.7487ZM81.4763 22.9408C82.4135 22.0208 83.2985 21.0577 83.9859 19.9239C78.4593 23.8907 72.4643 27.0431 66.5076 30.2685C72.2262 29.3708 77.1325 26.8219 81.4763 22.9408ZM62.8875 20.0611C62.1573 20.2273 61.4817 20.5331 60.8407 20.9074C58.0255 22.5515 56.0518 24.9841 54.4562 27.7655C54.3915 27.8783 54.3186 28.0056 54.3813 28.1508C55.4624 28.7126 55.4762 28.6836 56.1763 27.7593C58.5981 24.5619 61.5497 22.0132 65.2759 20.4309C65.6611 20.2674 66.046 20.1032 66.4311 19.9393C65.2465 19.5912 64.1122 19.7766 62.8875 20.0611ZM67.8724 23.0552C65.0671 24.6154 62.5058 26.4961 60.193 28.8576C61.5174 28.4807 75.9288 20.5901 76.3251 19.9877C73.341 20.6391 70.5726 21.6223 67.8724 23.0552ZM94.4131 20.9607C93.7529 19.3176 92.9606 18.1178 92.1638 17.4953C95.3688 23.7342 93.6979 29.1021 88.8815 33.9238C93.0982 32.7324 96.3618 26.5608 94.4131 20.9607ZM55.7857 19.7459C53.7897 20.4225 52.3806 21.82 51.2013 23.4931C50.5138 24.4685 49.929 25.5037 49.4976 26.619C49.4203 26.8188 49.2586 27.0548 49.5798 27.2236C50.1901 27.5443 50.6295 27.3987 50.9569 26.7937C52.4035 24.1207 54.2117 21.7511 56.7111 19.9622C56.8702 19.8483 57.1149 19.7876 57.1303 19.5095C56.675 19.4031 56.2819 19.6048 55.7857 19.7459ZM52.9076 50.2553C58.0051 48.552 62.7846 46.1904 67.3117 43.3046C67.5625 43.1446 67.6756 42.9699 67.4759 42.5993C62.2658 45.6805 56.6942 48.0084 51.263 50.6335C51.8201 50.6617 52.3215 50.4788 52.9076 50.2553ZM46.172 25.617C46.9993 23.5437 48.2876 21.7679 49.8599 20.1566C49.5752 20.0106 49.4358 20.094 49.294 20.1534C46.6382 21.2681 45.4165 23.5244 44.5855 26.0855C44.4868 26.3899 44.636 26.5433 44.9682 26.5817C45.6966 26.6659 45.743 26.6444 46.172 25.617ZM32.4593 52.9018C35.3483 51.5471 38.2374 50.1925 41.1264 48.8379C38.6536 48.9474 29.8816 53.0466 29.1966 54.3948C30.3335 53.957 31.3539 53.4418 32.4593 52.9018ZM41.321 26.2813C41.8229 24.8639 42.3747 23.4719 43.3305 22.2823C43.5813 21.9702 43.8249 21.6521 44.1018 21.2984C42.3052 21.4518 39.9449 24.5367 40.1339 26.4322C40.5106 26.4774 40.89 26.5409 41.321 26.2813ZM59.7656 43.4289C58.9003 43.7655 58.035 44.1022 57.1697 44.4388C59.846 44.2007 67.8037 40.9475 68.3389 39.9101C68.2743 39.8752 68.188 39.7932 68.1473 39.8117C65.4038 41.0577 62.6654 42.3151 59.7656 43.4289ZM69.2552 78.9392C69.3593 78.7681 69.5848 78.6377 69.4304 78.346C69.1058 78.3728 68.8642 78.5735 68.6443 78.7776C67.5983 79.7481 66.6641 80.8261 65.7014 81.8764C65.5151 82.0797 65.3147 82.3073 65.6421 82.5624C65.9622 82.8119 66.1082 82.4991 66.2564 82.3342C67.2478 81.2309 68.2239 80.1139 69.2552 78.9392ZM73.1071 80.5346C72.9978 80.4979 72.9186 80.5575 72.8468 80.6235C71.6028 81.7677 70.462 83.009 69.3536 84.2708C69.599 84.7375 69.8558 84.7789 70.1691 84.4064C70.294 84.2578 70.4329 84.1209 70.5638 83.9773C71.3888 83.0722 72.2265 82.1781 73.0246 81.25C73.1558 81.0975 73.6039 80.8837 73.1071 80.5346ZM61.7768 74.0273C60.8422 75.0501 60.0695 76.1967 59.2576 77.3137C59.0209 77.6394 59.0674 77.8744 59.4209 78.0546C60.2249 77.3427 62.362 74.0884 62.3415 73.6095C62.102 73.6325 61.9858 73.828 61.7768 74.0273ZM63.7445 79.0407C64.3609 78.2818 65.1021 77.6214 65.6424 76.7274C65.3292 76.73 65.0872 76.7328 64.9084 76.8985C63.923 77.8117 63.002 78.786 62.1745 79.8459C62.0599 79.9928 62.0066 80.1505 62.1828 80.3088C62.3859 80.4912 62.539 80.3908 62.681 80.2354C63.022 79.8621 63.358 79.4842 63.7445 79.0407ZM57.672 74.139C57.9587 73.6975 58.258 73.2636 58.5284 72.8124C58.7941 72.369 59.0303 71.908 59.2794 71.4548C59.2248 71.4265 59.1702 71.3982 59.1156 71.3699C58.2429 72.2907 57.6719 73.3954 57.0541 74.6564C57.2892 74.5771 57.3591 74.5748 57.3899 74.539C57.478 74.4364 57.5503 74.3202 57.672 74.139Z" fill="#201A1A"/>
<path d="M25.1169 80.2012C24.4258 79.7806 23.7208 79.4478 23.234 78.7936C22.282 77.514 22.2196 75.9306 23.1004 74.6412C23.9705 73.3671 25.4742 72.8283 27.0171 73.2377C28.4085 73.6068 29.5186 74.9724 29.5433 76.4811C29.5534 77.0978 29.7624 77.4871 30.2409 77.8428C30.8503 78.2958 31.4177 78.8088 31.9785 79.3229C32.4499 79.755 32.9594 79.9425 33.6163 79.9204C37.8879 79.7764 42.1604 79.6562 46.4331 79.5508C48.0334 79.5114 49.6353 79.5436 51.2361 79.5191C51.7013 79.512 51.9581 79.6095 51.8293 80.1416C51.7937 80.2887 51.8127 80.4531 51.8277 80.6076C51.8588 80.9272 51.7085 81.0773 51.4033 81.1121C49.6607 81.3105 47.9197 81.5229 46.1758 81.7087C43.3856 82.0061 40.5913 82.2659 37.803 82.5799C35.2472 82.8677 32.6964 83.2007 30.1451 83.528C29.7598 83.5774 29.4575 83.4363 29.1609 83.2428C28.3169 82.6921 27.371 82.3861 26.4242 82.0764C26.1453 81.9852 25.9471 82.0244 25.7571 82.2547C25.4345 82.6458 25.0936 83.0222 24.753 83.3981C24.5283 83.6461 24.529 83.8599 24.7764 84.1013C25.3204 84.632 25.6677 85.2705 25.8313 86.0211C25.9287 86.4681 26.5047 86.6035 26.9829 86.2966C27.7055 85.8329 28.4419 85.3823 29.1181 84.8564C29.8137 84.3154 30.6035 84.1141 31.4395 83.9993C33.6981 83.6891 35.957 83.3808 38.2158 83.0722C38.4685 83.0376 38.723 83.0183 38.972 83.088C43.0277 84.2244 47.0839 85.3594 51.1373 86.5042C51.6794 86.6573 51.9867 87.6222 51.6777 88.1132C51.5518 88.3132 51.3744 88.2285 51.2052 88.2053C48.0968 87.7784 45.0069 87.2371 41.9181 86.691C38.8481 86.1482 35.7833 85.5767 32.7159 85.0194C32.3979 84.9616 32.1162 85.0208 31.8282 85.2009C30.4054 86.0906 29.0328 87.0597 27.5623 87.8749C27.083 88.1406 26.6336 88.366 26.0784 88.1226C25.6592 87.9389 25.5913 88.3334 25.4472 88.5537C24.5909 89.863 23.1169 90.5171 21.6688 90.2139C19.943 89.8527 18.7105 88.2265 18.8473 86.4913C18.9853 84.7407 20.5189 83.2322 22.2977 83.1875C22.8734 83.173 23.2379 82.9912 23.5533 82.5299C23.9047 82.0158 24.3285 81.5516 24.7119 81.0587C24.9027 80.8134 25.0931 80.5624 25.1169 80.2012ZM24.3127 86.8513C24.3548 86.6526 24.2964 86.4654 24.246 86.2776C24.0122 85.4081 23.2963 84.8571 22.4088 84.8631C21.5832 84.8686 20.7406 85.487 20.5615 86.2189C20.3464 87.0981 20.7394 87.9393 21.5275 88.401C22.5196 88.9822 24.0539 88.421 24.3127 86.8513ZM27.8721 76.6885C27.8662 76.5721 27.8725 76.4536 27.8524 76.3398C27.6898 75.4207 26.7664 74.7176 25.8666 74.8227C24.7992 74.9474 24.1175 75.7187 24.1679 76.7445C24.213 77.6612 24.9734 78.433 25.8885 78.4909C26.9465 78.5579 27.6619 77.9414 27.8721 76.6885ZM28.1857 79.4724C27.7744 79.7884 27.2093 79.8291 26.7161 80.2834C27.3797 80.5521 27.9803 80.7487 28.5367 81.0321C29.2755 81.4084 29.9086 81.2098 30.5668 80.8213C30.2368 80.2351 29.683 79.9125 29.2554 79.4689C28.9397 79.1415 28.6055 79.0664 28.1857 79.4724Z" fill="#201A1A"/>
<path d="M70.0464 54.4585C71.5217 53.3649 72.9671 52.3003 74.4056 51.2265C74.6675 51.031 74.9337 50.9347 75.2678 50.9407C77.9024 50.9877 80.5419 50.9394 83.1699 51.093C84.3699 51.1632 85.5471 51.6225 86.8665 51.9368C86.0972 52.58 85.4618 53.1763 84.759 53.6783C84.2033 54.0752 83.9366 54.5352 84.0449 55.2056C84.1991 56.1607 83.874 56.8494 83.0784 57.4514C82.0547 58.226 81.1374 59.142 80.1804 60.0039C79.9572 60.2049 79.7478 60.2744 79.4422 60.1638C77.1678 59.3402 74.8869 58.5347 72.6096 57.7189C72.4687 57.6684 72.3414 57.5796 72.2234 57.5169C72.2378 57.2851 72.3965 57.2938 72.5215 57.2591C74.3091 56.7631 76.1395 56.4658 77.9542 56.0965C78.9378 55.8963 79.2996 55.3372 79.073 54.3373C78.995 53.9935 78.7426 54.0462 78.5231 54.0623C77.3957 54.1455 76.2681 54.2312 75.1429 54.34C73.4365 54.5051 71.7321 54.6907 70.0264 54.8637C69.9558 54.8709 69.8812 54.8388 69.817 54.8267C69.7667 54.6248 69.9244 54.5762 70.0464 54.4585Z" fill="#201A1A"/>
<path d="M52.7955 66.1579C53.3988 66.429 53.364 66.9234 53.3607 67.4214C53.3521 68.727 53.362 68.7078 52.0655 68.5067C50.7452 68.302 49.4694 67.9664 48.2898 67.3298C47.4707 66.8879 46.7742 66.3007 46.3166 65.4686C45.4734 63.9352 45.9877 62.1951 47.5281 61.3671C47.5968 61.3301 47.6667 61.2953 47.7366 61.2608C48.6168 60.8266 48.6466 60.4312 47.8471 59.7958C46.6981 58.8827 44.9949 59.1242 43.9842 60.3399C43.5839 60.8213 43.3022 61.3722 43.0114 62.1238C42.7317 61.3117 42.7151 60.6569 42.7893 59.9921C43.1837 56.4602 47.174 55.3592 49.8647 57.546C51.2997 58.7123 52.163 60.2242 52.1975 62.1357C52.2057 62.5913 52.0562 62.971 51.797 63.3285C51.1493 64.2217 51.2608 65.0017 52.1371 65.6962C52.3355 65.8534 52.5513 65.9886 52.7955 66.1579Z" fill="#201A1A"/>
</svg>
