<svg width="400" height="39" viewBox="0 0 400 39" fill="none" xmlns="http://www.w3.org/2000/svg">
<path d="M158.793 23.9241C158.892 24.1669 158.923 24.4396 158.485 24.961C158.263 25.2248 157.925 25.5514 157.407 25.962C156.886 26.3681 156.187 26.8671 155.198 27.4005C154.699 27.6612 154.131 27.934 153.463 28.1677C152.792 28.406 152.038 28.6082 151.152 28.7012C150.704 28.7506 150.237 28.7461 149.744 28.7161C149.255 28.6667 148.74 28.6008 148.212 28.4434C148.145 28.4239 148.079 28.409 148.012 28.3895C147.945 28.367 147.878 28.3445 147.812 28.3205C147.678 28.2756 147.541 28.2291 147.405 28.1752C147.134 28.0598 146.855 27.9444 146.582 27.7871C146.028 27.4844 145.463 27.1083 144.925 26.5913C144.392 26.0774 143.88 25.436 143.457 24.6658C143.403 24.5699 143.352 24.4696 143.301 24.3692L143.224 24.2208C143.2 24.1699 143.181 24.1159 143.159 24.0635C143.069 23.8522 142.98 23.6334 142.894 23.4146C142.825 23.1884 142.755 22.9576 142.688 22.7284C142.65 22.613 142.627 22.4901 142.602 22.3717C142.58 22.2519 142.554 22.129 142.532 22.0106C142.358 21.0366 142.329 20.0117 142.443 18.9912C142.554 17.9708 142.806 16.9549 143.19 15.9839C143.575 15.0144 144.096 14.0824 144.76 13.2372C144.932 13.0349 145.107 12.8312 145.288 12.6274C145.479 12.4401 145.675 12.2438 145.873 12.0684C146.073 11.9021 146.274 11.7268 146.482 11.577C146.588 11.5005 146.696 11.4226 146.804 11.3507L146.963 11.2398L147.132 11.1349C148.014 10.5865 148.982 10.1879 149.986 9.94216C150.991 9.69342 152.032 9.60501 153.091 9.64397C153.355 9.64397 153.619 9.67843 153.882 9.69342C154.147 9.72788 154.414 9.75485 154.677 9.80131C154.941 9.84626 155.208 9.88822 155.469 9.95415C155.732 10.0081 156.003 10.08 156.272 10.1534C157.344 10.4726 158.393 10.9356 159.4 11.5455C160.404 12.1643 161.374 12.9226 162.26 13.8591C163.148 14.7956 163.955 15.9075 164.579 17.2231C165.204 18.5312 165.626 20.0536 165.716 21.639C165.811 23.2154 165.573 24.8232 165.068 26.2617C164.562 27.7002 163.815 28.9574 162.957 30.0243C162.099 31.0912 161.123 31.9767 160.093 32.7125C159.575 33.0811 159.045 33.4108 158.497 33.7059C157.955 33.9981 157.388 34.2589 156.832 34.4582C156.276 34.6919 155.707 34.8493 155.141 35.0231L154.28 35.2254L154.067 35.2763L153.851 35.3108L153.418 35.3827C152.268 35.5595 151.107 35.6359 149.958 35.5595C149.814 35.552 149.668 35.552 149.524 35.537L149.096 35.4861L148.67 35.4411C148.597 35.4292 148.527 35.4247 148.456 35.4142L148.244 35.3752C147.961 35.3213 147.678 35.2718 147.395 35.2179C147.118 35.1445 146.839 35.0755 146.559 35.0036C146.28 34.9422 146.009 34.8388 145.736 34.7504C145.463 34.6575 145.19 34.5735 144.923 34.4552C144.655 34.3428 144.388 34.2364 144.125 34.121C143.864 33.9906 143.607 33.8603 143.346 33.7299L143.152 33.634C143.088 33.5996 143.025 33.5606 142.965 33.5231L142.586 33.2999L142.211 33.0781C142.087 33.0047 141.969 32.9133 141.849 32.8324C141.607 32.663 141.366 32.4982 141.13 32.3259C140.901 32.1416 140.669 31.9543 140.443 31.77C140.209 31.5931 140.003 31.3744 139.783 31.1751C139.567 30.9713 139.347 30.7765 139.151 30.5502C138.947 30.3315 138.746 30.1127 138.546 29.8939C138.359 29.6602 138.171 29.4264 137.984 29.1956C137.894 29.0773 137.796 28.9649 137.711 28.842L137.454 28.4749L137.199 28.1063C137.113 27.9834 137.026 27.865 136.951 27.7347C136.798 27.4769 136.643 27.2237 136.486 26.9675C136.407 26.8446 136.337 26.7097 136.27 26.5794L136.061 26.1808C135.771 25.6623 135.546 25.1064 135.298 24.5699C135.186 24.2972 135.085 24.017 134.977 23.7413C134.926 23.602 134.872 23.4641 134.821 23.3262C134.773 23.1884 134.732 23.046 134.685 22.9052C134.595 22.625 134.51 22.3448 134.42 22.0646C134.351 21.7799 134.278 21.4966 134.208 21.2134C134.17 21.0711 134.135 20.9332 134.1 20.7909C134.074 20.6485 134.045 20.5077 134.017 20.3608C133.963 20.0776 133.913 19.7929 133.858 19.5127C133.509 17.2381 133.515 14.9874 133.846 12.9316C134.192 10.8712 134.856 9.0416 135.661 7.4997C136.47 5.9608 137.415 4.69911 138.375 3.70864C138.852 3.20966 139.335 2.78111 139.808 2.405C140.278 2.02889 140.746 1.72171 141.188 1.45349C142.077 0.932031 142.882 0.602374 143.55 0.398585C144.216 0.191801 144.744 0.110885 145.1 0.0569408C145.457 0.0194798 145.644 0 145.644 0C145.644 0 145.459 0.0344641 145.103 0.0988972C144.754 0.184308 144.236 0.307181 143.587 0.560417C142.943 0.812155 142.167 1.19576 141.327 1.77116C140.911 2.06785 140.473 2.4005 140.034 2.80059C139.595 3.19468 139.153 3.64721 138.715 4.15818C137.841 5.18161 137.002 6.45229 136.309 7.96272C135.616 9.47015 135.085 11.2278 134.86 13.1383C134.643 15.0563 134.736 17.1152 135.145 19.1726C135.206 19.4258 135.266 19.682 135.327 19.9398C135.358 20.0656 135.39 20.193 135.419 20.3234C135.457 20.4492 135.496 20.5766 135.533 20.7025C135.61 20.9557 135.686 21.2089 135.765 21.4667C135.854 21.7109 135.946 21.9612 136.038 22.2144C136.087 22.3373 136.128 22.4631 136.178 22.586L136.337 22.9546C136.445 23.1959 136.547 23.4446 136.661 23.6874C136.906 24.1594 137.128 24.6494 137.411 25.0989L137.615 25.4435C137.682 25.5634 137.749 25.6773 137.825 25.7852C137.974 26.004 138.124 26.2257 138.273 26.4445C138.343 26.5599 138.426 26.6633 138.508 26.7667L138.992 27.396C139.071 27.4994 139.163 27.5923 139.249 27.6912C139.424 27.892 139.599 28.0868 139.773 28.2831C139.958 28.4674 140.142 28.6502 140.329 28.8315C140.51 29.0233 140.714 29.1807 140.908 29.3485C141.109 29.5133 141.296 29.6946 141.509 29.8355C141.718 29.9898 141.925 30.1397 142.134 30.2925C142.348 30.4348 142.568 30.5652 142.784 30.7031C142.894 30.769 143 30.8409 143.114 30.8994L143.45 31.0747L143.791 31.256C143.848 31.286 143.902 31.3174 143.959 31.3444L144.135 31.4208C144.367 31.5197 144.598 31.6231 144.834 31.7235C145.072 31.8074 145.31 31.8958 145.549 31.9797C145.783 32.0726 146.032 32.1341 146.274 32.1985C146.518 32.2644 146.759 32.3454 147.01 32.3873C147.256 32.4338 147.503 32.4832 147.751 32.5327C148.002 32.5671 148.253 32.5986 148.505 32.6331L148.692 32.6555C148.756 32.663 148.819 32.663 148.88 32.6705L149.261 32.6945L149.64 32.717C149.763 32.7215 149.891 32.717 150.017 32.717C151.032 32.732 152.048 32.6136 153.049 32.4098L153.425 32.3289L153.613 32.2914L153.797 32.2375L154.538 32.0262C155.027 31.8494 155.516 31.692 155.989 31.4703C156.473 31.271 156.922 31.0402 157.369 30.7765C157.817 30.5113 158.25 30.2191 158.662 29.8969C159.493 29.2571 160.255 28.5094 160.891 27.6642C161.523 26.8251 162.028 25.8931 162.344 24.9146C162.655 23.9406 162.776 22.9232 162.696 21.9297C162.617 20.9407 162.337 19.9847 161.898 19.1111C161.463 18.2315 160.872 17.4389 160.198 16.7481C159.522 16.0603 158.764 15.4819 157.97 15.0099C157.179 14.5424 156.349 14.1887 155.52 13.9505C155.313 13.8936 155.106 13.8396 154.89 13.7977C154.677 13.7437 154.465 13.7137 154.251 13.6748C154.041 13.6403 153.829 13.6208 153.619 13.5939C153.409 13.5834 153.199 13.5519 152.99 13.5519C152.16 13.5249 151.359 13.5909 150.622 13.7707C149.884 13.955 149.204 14.2307 148.603 14.5993L148.489 14.6682L148.381 14.7417C148.308 14.7911 148.234 14.8406 148.165 14.8915C148.022 14.9904 147.892 15.1103 147.754 15.2137C147.631 15.3291 147.515 15.4429 147.395 15.5508C147.284 15.6767 147.176 15.8041 147.065 15.9269C146.645 16.4439 146.302 17.0433 146.048 17.6606C145.536 18.8998 145.4 20.2005 145.565 21.2509C145.574 21.3168 145.587 21.3813 145.596 21.4472C145.608 21.5116 145.616 21.5776 145.638 21.639C145.673 21.7619 145.704 21.8847 145.736 22.0061C145.781 22.1185 145.826 22.2339 145.867 22.3478C145.876 22.3747 145.885 22.4062 145.898 22.4332L145.936 22.5126L146.016 22.6744C146.232 23.1 146.505 23.4716 146.814 23.7938C147.116 24.1159 147.468 24.3737 147.821 24.5954C148 24.7078 148.183 24.7962 148.365 24.8876C148.457 24.9296 148.548 24.964 148.641 25.006C148.686 25.0255 148.73 25.045 148.778 25.0644C148.823 25.0794 148.87 25.0944 148.915 25.1109C149.28 25.2487 149.648 25.3177 149.999 25.3866C150.355 25.4331 150.694 25.4675 151.022 25.4585C151.68 25.4555 152.309 25.3596 152.872 25.2323C153.44 25.1109 153.952 24.9535 154.416 24.7992C155.341 24.4845 156.066 24.1893 156.635 23.9826C157.203 23.7713 157.621 23.6484 157.922 23.599C158.529 23.4956 158.695 23.6829 158.793 23.9241Z" fill="white"/>
<path d="M111.988 13.0453C112.098 13.0527 112.21 13.0797 112.312 13.1831C112.365 13.2341 112.416 13.2985 112.464 13.3914C112.489 13.4334 112.515 13.4828 112.54 13.5412C112.569 13.5982 112.595 13.6596 112.623 13.7285C112.652 13.7975 112.68 13.8739 112.709 13.9593C112.744 14.0387 112.778 14.1271 112.813 14.2275C112.845 14.3234 112.886 14.4268 112.931 14.5377C112.976 14.6531 113.021 14.7715 113.078 14.8943C113.297 15.3978 113.602 16.0346 114.133 16.6865C114.4 17.0086 114.72 17.3308 115.105 17.599C115.496 17.8672 115.932 18.0905 116.46 18.1819C116.526 18.1939 116.593 18.2059 116.66 18.2209C116.727 18.2284 116.796 18.2284 116.866 18.2359C117.002 18.2553 117.149 18.2404 117.295 18.2478C117.588 18.2239 117.896 18.1789 118.208 18.086C118.824 17.8867 119.473 17.5256 119.991 16.9352C120.248 16.6475 120.484 16.3029 120.674 15.9043C120.859 15.5012 121.005 15.0442 121.093 14.5377C121.268 13.5248 121.211 12.302 120.861 11.0628C120.512 9.83559 119.867 8.58439 118.952 7.69132C118.895 7.63288 118.837 7.57894 118.78 7.525C118.713 7.47255 118.646 7.41861 118.579 7.36466C118.446 7.25678 118.318 7.1339 118.173 7.0425C118.029 6.9466 117.893 6.83571 117.744 6.7473C117.591 6.6589 117.438 6.57049 117.285 6.48208C116.656 6.14793 115.963 5.89469 115.219 5.72687C113.732 5.38522 112.076 5.39721 110.392 5.69989C108.704 6.00708 106.981 6.57798 105.431 7.49053C103.879 8.40458 102.516 9.70823 101.645 11.397C100.786 13.0617 100.453 15.182 100.649 17.2769C100.847 19.3717 101.552 21.4305 102.681 23.0533C103.815 24.7076 105.351 25.9813 107.032 26.8009C108.714 27.6296 110.535 28.0177 112.322 27.9832C114.117 27.9562 115.884 27.5382 117.537 26.8744C118.367 26.5402 119.168 26.1491 119.936 25.7116C120.706 25.2755 121.446 24.787 122.152 24.2731C123.56 23.2377 124.84 22.0943 125.975 20.8941C127.114 19.6938 128.112 18.4471 128.976 17.2154C129.844 15.9837 130.559 14.7565 131.182 13.6132C132.403 11.3041 133.163 9.29016 133.63 7.88312C133.744 7.52949 133.856 7.21931 133.935 6.9421C134.015 6.66639 134.08 6.43263 134.135 6.24383C134.243 5.86922 134.3 5.67292 134.3 5.67292C134.3 5.67292 134.255 5.87222 134.17 6.26031C134.125 6.45211 134.074 6.68887 134.011 6.97357C133.948 7.25378 133.856 7.57594 133.763 7.94006C133.375 9.39056 132.727 11.4809 131.617 13.9248C131.052 15.1371 130.388 16.4482 129.567 17.7788C128.748 19.1065 127.79 20.4685 126.676 21.7992C125.563 23.1313 124.292 24.4199 122.868 25.6127C121.44 26.798 119.848 27.8753 118.094 28.7115C116.342 29.5476 114.422 30.1425 112.401 30.3043C110.376 30.4691 108.262 30.1575 106.25 29.3063C104.241 28.4582 102.316 27.0392 100.806 25.0328C100.048 24.0318 99.4066 22.869 98.9273 21.6343C98.4443 20.3951 98.1103 19.0765 97.939 17.7144C97.7702 16.3523 97.764 14.9483 97.9514 13.5637C98.1389 12.1822 98.5238 10.8216 99.1111 9.58535C99.6959 8.36262 100.456 7.28824 101.301 6.38618C102.143 5.48562 103.072 4.74389 104.025 4.15051C104.979 3.55113 105.957 3.08811 106.941 2.715C107.925 2.34339 108.907 2.07067 109.895 1.87587C111.873 1.49227 113.882 1.44132 115.824 1.87887C116.79 2.10214 117.727 2.44228 118.599 2.9068C118.815 3.03417 119.027 3.16004 119.241 3.2874C119.451 3.41327 119.651 3.56761 119.851 3.70847C120.058 3.84333 120.242 4.01565 120.435 4.16849C120.528 4.2494 120.623 4.33032 120.716 4.41123C120.81 4.49964 120.903 4.59105 120.998 4.67946C121.364 5.04807 121.698 5.43917 121.996 5.84974C122.295 6.26331 122.558 6.69336 122.797 7.13091C123.271 8.00899 123.624 8.92904 123.875 9.85807C124.374 11.7101 124.457 13.6252 124.113 15.3708C123.938 16.2444 123.656 17.0656 123.287 17.7908C122.912 18.5191 122.457 19.1379 121.959 19.6519C120.961 20.6753 119.842 21.2013 118.801 21.45C118.277 21.5654 117.766 21.6044 117.279 21.5924C117.035 21.5699 116.796 21.5624 116.564 21.5114C116.45 21.492 116.336 21.474 116.221 21.447C116.11 21.4155 115.999 21.3856 115.89 21.3541C115.016 21.1009 114.272 20.6184 113.697 20.0924C113.116 19.5665 112.683 18.9881 112.356 18.4322C111.698 17.3158 111.45 16.2984 111.342 15.5282C111.311 15.3364 111.301 15.1521 111.291 14.9872C111.281 14.8179 111.279 14.6651 111.289 14.5227C111.291 14.3849 111.301 14.2545 111.311 14.1391C111.326 14.0237 111.346 13.9203 111.364 13.8289C111.383 13.733 111.403 13.6521 111.425 13.5787C111.447 13.5068 111.476 13.4453 111.501 13.3914C111.552 13.279 111.606 13.2071 111.66 13.1531C111.768 13.0498 111.876 13.0378 111.988 13.0453Z" fill="white"/>
<path d="M69.885 14.6455C69.9583 14.5451 70.044 14.4567 70.1557 14.3998C70.2637 14.3429 70.4003 14.3189 70.5754 14.2964C70.7467 14.2694 70.9503 14.2425 71.2197 14.1346C71.3538 14.0851 71.5066 14.0087 71.6742 13.8933C71.843 13.7749 72.0342 13.6251 72.2155 13.4108C72.3955 13.1995 72.5706 12.9313 72.6923 12.6271C72.7519 12.4743 72.7928 12.317 72.8152 12.1641C72.8313 12.0862 72.8351 12.0098 72.8351 11.9364C72.8351 11.8375 72.8313 11.7371 72.8313 11.6307C72.809 11.4194 72.7904 11.1961 72.7208 10.9624C72.6985 10.844 72.6476 10.7256 72.6128 10.6027C72.5905 10.5413 72.5619 10.4829 72.5396 10.4184C72.5135 10.357 72.4886 10.2956 72.4564 10.2296C72.218 9.72765 71.853 9.19421 71.3625 8.71171C71.1217 8.46896 70.8485 8.2397 70.5493 8.04041C70.2476 7.83662 69.9136 7.64482 69.5548 7.48748C68.8359 7.1803 68.0165 6.98101 67.1138 6.96902C66.2137 6.95404 65.2353 7.12636 64.2619 7.54143C63.7727 7.74821 63.2897 8.01643 62.8192 8.35059C62.3523 8.68474 61.9004 9.08332 61.4944 9.55833C61.0872 10.0303 60.7184 10.5593 60.4229 11.1542C60.1212 11.7446 59.8791 12.3979 59.7102 13.1036C59.3638 14.5032 59.3104 16.0915 59.5612 17.6454C59.8096 19.2023 60.3757 20.7172 61.2175 21.9459C61.4274 22.2561 61.6595 22.5363 61.9004 22.809C62.1487 23.0698 62.3995 23.314 62.6925 23.5373C63.255 23.9898 63.8782 24.3584 64.5388 24.6342C65.2005 24.9144 65.902 25.1062 66.6209 25.214C67.3385 25.3174 68.076 25.3369 68.8111 25.286C70.2886 25.1871 71.7449 24.7795 73.1653 24.1741C76.0098 22.9544 78.632 21.0289 81.1462 19.2562C91.2068 12.1401 98.9009 6.83566 98.9009 6.83566C98.9009 6.83566 91.6389 12.9688 82.0141 20.909C80.8123 21.8995 79.5694 22.9349 78.2446 23.9329C76.9161 24.9263 75.5045 25.8809 73.9699 26.6675C73.2038 27.0586 72.4092 27.4003 71.5798 27.6805C70.7492 27.9562 69.8975 28.16 69.0271 28.2784C68.1592 28.3967 67.2727 28.4312 66.3788 28.3548C65.4861 28.2784 64.5897 28.0941 63.7131 27.7839C62.8316 27.4692 61.9737 27.0242 61.1766 26.4413C60.7755 26.1611 60.3844 25.8194 60.0157 25.4583C59.6568 25.0912 59.3104 24.7031 58.9988 24.2775C57.7436 22.5903 56.9204 20.5419 56.5256 18.4276C56.132 16.3103 56.1506 14.1046 56.6249 12.0487C57.0818 9.99288 58.0453 8.10035 59.2558 6.72777C59.8567 6.0295 60.5086 5.4541 61.1766 4.98658C61.8433 4.51458 62.5274 4.14296 63.2065 3.86275C64.5673 3.29784 65.9219 3.08806 67.1871 3.13301C68.451 3.18396 69.6305 3.50163 70.6697 4.00061C71.1887 4.25385 71.668 4.55653 72.1162 4.88619C72.5706 5.22334 72.9716 5.59945 73.3367 6.00253C74.0617 6.80419 74.6242 7.71375 75.0029 8.68774C75.3865 9.65873 75.5529 10.7091 75.5206 11.6606C75.5144 11.7805 75.502 11.8989 75.4921 12.0143C75.4883 12.0712 75.4821 12.1282 75.4759 12.1866C75.4734 12.2435 75.466 12.302 75.4573 12.3664C75.4188 12.6166 75.3679 12.8579 75.3008 13.0797C75.1742 13.5247 74.9991 13.9083 74.8079 14.238C74.4206 14.8943 73.9786 15.3438 73.5465 15.6585C72.6823 16.2953 71.853 16.4212 71.2322 16.3253C70.6064 16.2264 70.2091 15.9117 70.003 15.654C69.895 15.5236 69.8317 15.4008 69.7932 15.2929C69.7522 15.1895 69.7423 15.0936 69.7423 15.0142C69.7485 14.8568 69.8118 14.7489 69.885 14.6455Z" fill="white"/>
<path d="M82.7359 32.2765C82.1102 31.5003 81.7253 30.7331 84.7709 27.1668C87.8153 23.599 93.7625 19.3599 93.7625 19.3599C93.7625 19.3599 90.075 26.4071 87.0306 29.9749C83.985 33.5412 83.3592 33.0512 82.7359 32.2765Z" fill="white"/>
<path d="M127.752 36.703C126.935 36.2655 126.322 35.774 127.564 32.4025C128.807 29.0265 132.256 24.4817 132.256 24.4817C132.256 24.4817 131.77 30.6148 130.527 33.9908C129.284 37.3668 128.573 37.1435 127.752 36.703Z" fill="white"/>
<path d="M30.945 28.9155C30.5899 28.5858 30.3031 28.2367 30.7004 27.0784C30.8854 26.4835 31.2989 25.7463 31.9656 24.7183C32.1444 24.4741 32.3381 24.2164 32.5541 23.9362C32.6621 23.7983 32.7726 23.6559 32.8881 23.5061C33.0048 23.3607 33.1265 23.2079 33.2593 23.0611C33.5263 22.7659 33.8156 22.4557 34.1235 22.126C34.2004 22.0421 34.2799 21.9612 34.3594 21.8758C34.445 21.7964 34.5282 21.7155 34.6164 21.6345C34.789 21.4742 34.969 21.3049 35.154 21.1326C36.6414 19.7705 38.5237 18.4968 40.5226 17.5693C42.5216 16.6283 44.6285 16.0259 46.517 15.7547C46.9875 15.6932 47.4482 15.6513 47.8865 15.6048C47.9982 15.5973 48.1062 15.5853 48.2142 15.5733C48.3185 15.5659 48.4265 15.5659 48.5321 15.5629C48.7444 15.5584 48.948 15.5554 49.1492 15.5509C49.5489 15.5434 49.9239 15.5284 50.274 15.5584C50.6229 15.5808 50.9482 15.6003 51.2437 15.6168C51.5355 15.6273 51.7999 15.6812 52.0321 15.7082C52.2606 15.7427 52.458 15.7726 52.6169 15.7966C52.9372 15.8431 53.1123 15.8685 53.1123 15.8685C53.1123 15.8685 52.9372 15.9045 52.6169 15.9644C52.458 15.9914 52.263 16.0304 52.0383 16.0723C51.8124 16.1143 51.5553 16.1488 51.2723 16.2297C50.9892 16.2986 50.6775 16.3795 50.3436 16.4634C50.0096 16.5324 49.657 16.6552 49.2857 16.7781C49.1007 16.8365 48.9108 16.898 48.7134 16.9594C48.6178 16.9939 48.5197 17.0193 48.4203 17.0553C48.3223 17.0928 48.2204 17.1317 48.1224 17.1737C47.7213 17.331 47.3054 17.4839 46.882 17.6607C45.1885 18.3814 43.377 19.3869 41.6885 20.5527C39.9949 21.7155 38.4343 23.0431 37.112 24.2508C36.9468 24.4037 36.7842 24.5505 36.629 24.6914C36.552 24.7648 36.4725 24.8337 36.3993 24.9026C36.3273 24.9761 36.2565 25.0495 36.1833 25.1214C35.9039 25.4061 35.6407 25.6669 35.3886 25.9126C35.2583 26.0265 35.1441 26.1538 35.0336 26.2767C34.9218 26.3951 34.8101 26.5105 34.7058 26.6214C34.4959 26.8446 34.296 27.0469 34.1086 27.2312C33.4021 28.0179 32.8595 28.5049 32.4709 28.8316C31.6738 29.4639 31.3013 29.2421 30.945 28.9155Z" fill="white"/>
<path d="M9.9772 4.74854C10.1113 4.53426 10.2603 4.34546 10.5272 4.29151C10.6638 4.26454 10.8289 4.26904 11.0363 4.32298C11.2461 4.37692 11.4932 4.48032 11.8085 4.62566C12.1227 4.77101 12.4852 4.98679 12.9396 5.24003C13.1656 5.37039 13.404 5.52323 13.6709 5.67757C13.9379 5.83041 14.2234 6.00273 14.5351 6.19453C15.7841 6.93476 17.4304 7.89826 19.6752 8.93818C21.9163 9.9736 24.5534 10.9776 27.2998 11.6728C30.04 12.3711 32.8845 12.7502 35.4496 12.7967C36.7309 12.8191 37.9415 12.7697 39.0353 12.6813C39.5816 12.6273 40.0993 12.5824 40.5798 12.509C40.8182 12.4745 41.0529 12.452 41.2751 12.4131C41.4986 12.3741 41.7109 12.3396 41.9108 12.3052C42.3218 12.2437 42.6843 12.1598 43.0047 12.0939C43.3262 12.037 43.5994 11.968 43.8216 11.9141C44.2661 11.8107 44.5119 11.7493 44.5119 11.7493C44.5119 11.7493 44.2822 11.8646 43.8601 12.0759C43.6503 12.1823 43.3895 12.3127 43.0816 12.443C42.7762 12.5779 42.4261 12.7472 42.0325 12.9001C41.8351 12.981 41.629 13.0619 41.4092 13.1488C41.1932 13.2372 40.9647 13.3106 40.7288 13.399C40.2558 13.5759 39.7405 13.7332 39.1967 13.9055C38.1041 14.2232 36.8737 14.5259 35.5514 14.7491C32.9031 15.1972 29.8711 15.3096 26.8839 14.9364C23.8954 14.5693 20.9628 13.7242 18.5243 12.5974C16.0833 11.4661 14.329 10.3108 13.0601 9.32927C12.7422 9.07903 12.4567 8.84228 12.1959 8.61901C11.9352 8.40024 11.7067 8.17847 11.4969 7.97918C11.0735 7.58359 10.7594 7.21198 10.5111 6.90779C10.2603 6.60211 10.0952 6.32939 9.9772 6.09863C9.86298 5.86937 9.80214 5.68057 9.77979 5.51574C9.73634 5.18908 9.84435 4.96731 9.9772 4.74854Z" fill="white"/>
<path d="M0.18476 30.9413C-0.0474171 30.4812 -0.196407 30.0167 0.600691 29.0263C0.995516 28.5243 1.6399 27.9219 2.63565 27.1277C3.13725 26.7486 3.72576 26.3111 4.42105 25.8421C5.12379 25.382 5.92213 24.8681 6.85332 24.3391C8.71198 23.2647 10.9208 22.2413 13.1941 21.4007C15.4662 20.5601 17.8029 19.8963 19.8999 19.4362C21.9982 18.9807 23.8544 18.708 25.1866 18.5536C25.8508 18.4742 26.3847 18.4398 26.7497 18.4053C27.1185 18.3708 27.3196 18.3544 27.3196 18.3544C27.3196 18.3544 26.5561 18.654 25.2909 19.153C24.0319 19.6625 22.2875 20.4072 20.3394 21.3198C18.3939 22.2368 16.2521 23.3382 14.1601 24.489C12.0692 25.6398 10.0343 26.84 8.25135 27.868C4.68799 29.9358 2.85169 31.0566 1.77399 31.4043C0.702501 31.7654 0.41942 31.4013 0.18476 30.9413Z" fill="white"/>
<path d="M199.491 14.4838C199.585 14.7296 199.658 14.9708 199.576 15.275C199.534 15.4278 199.455 15.5927 199.318 15.7815C199.185 15.9688 198.994 16.1875 198.725 16.4093C198.458 16.6356 198.117 16.9083 197.678 17.169C197.456 17.3039 197.217 17.4567 196.948 17.5946C196.673 17.7339 196.378 17.8823 196.054 18.0366C195.73 18.179 195.373 18.3273 194.99 18.4772C194.795 18.5461 194.595 18.6195 194.385 18.6929C194.175 18.7649 193.959 18.8413 193.733 18.9027C193.505 18.9686 193.273 19.0376 193.028 19.1065C192.787 19.1724 192.533 19.2294 192.272 19.2908C192.142 19.3208 192.008 19.3523 191.875 19.3822C191.738 19.4092 191.602 19.4362 191.461 19.4631C191.182 19.5096 190.893 19.574 190.593 19.613C188.207 19.9846 185.426 19.9232 182.702 19.3672C179.978 18.8188 177.323 17.7714 175.105 16.5142C173.992 15.8849 172.988 15.2091 172.111 14.5572C171.675 14.2231 171.266 13.9129 170.897 13.5907C170.712 13.4334 170.531 13.2881 170.363 13.1382C170.198 12.9839 170.039 12.8385 169.886 12.7007C169.581 12.428 169.32 12.1597 169.088 11.9335C168.856 11.7072 168.662 11.5034 168.507 11.3356C168.198 10.9969 168.026 10.8171 168.026 10.8171C168.026 10.8171 168.224 10.952 168.589 11.1962C168.768 11.3191 168.99 11.4734 169.253 11.6338C169.517 11.7956 169.813 11.9904 170.153 12.1822C170.321 12.2781 170.496 12.3785 170.681 12.4864C170.865 12.5928 171.066 12.6932 171.266 12.7996C171.665 13.0228 172.107 13.2266 172.568 13.4529C173.499 13.8784 174.542 14.3085 175.665 14.6801C177.912 15.4278 180.473 15.9343 183.006 16.0842C185.543 16.2445 188.038 16.0647 190.186 15.7305C192.339 15.3934 193.947 14.9453 195.171 14.5917C195.473 14.5003 195.756 14.4149 196.017 14.343C196.276 14.2695 196.512 14.1931 196.734 14.1317C197.176 14.0208 197.533 13.9129 197.834 13.8635C198.14 13.8125 198.378 13.778 198.574 13.7855C198.768 13.7945 198.921 13.832 199.042 13.8979C199.281 14.0208 199.395 14.2426 199.491 14.4838Z" fill="white"/>
<path d="M169.927 37.7502C169.86 37.4924 169.813 37.2392 169.844 36.9785C169.864 36.8451 169.899 36.7147 169.962 36.5754C170.025 36.4345 170.121 36.3042 170.239 36.1348C170.357 35.97 170.516 35.8157 170.697 35.6059C170.785 35.5025 170.893 35.4096 171.001 35.2912C171.107 35.1713 171.227 35.0485 171.354 34.9181C171.475 34.7772 171.612 34.6304 171.755 34.4731C171.824 34.3891 171.898 34.3052 171.971 34.2123C172.048 34.1254 172.124 34.037 172.197 33.9336C172.272 33.8377 172.352 33.7328 172.435 33.6264C172.515 33.523 172.59 33.4002 172.674 33.2848C172.714 33.2264 172.755 33.1664 172.8 33.108C172.839 33.0435 172.877 32.9776 172.918 32.9132C172.994 32.7783 173.089 32.651 173.166 32.5026C173.824 31.3668 174.424 29.9208 174.66 28.3205C174.905 26.7171 174.762 24.922 174.326 23.3876C174.11 22.6204 173.831 21.9191 173.531 21.3003C173.376 21.0021 173.23 20.7099 173.067 20.4611C172.988 20.3338 172.918 20.2034 172.835 20.0925C172.755 19.9771 172.68 19.8707 172.606 19.7659C172.466 19.5516 172.315 19.3868 172.191 19.2294C172.127 19.153 172.069 19.0766 172.012 19.0151C171.955 18.9537 171.901 18.8953 171.853 18.8458C171.659 18.642 171.555 18.5311 171.555 18.5311C171.555 18.5311 171.685 18.5926 171.926 18.7035C171.987 18.7304 172.054 18.7649 172.13 18.7994C172.203 18.8338 172.276 18.8848 172.362 18.9342C172.527 19.0331 172.727 19.138 172.928 19.2909C173.032 19.3673 173.14 19.4437 173.252 19.5291C173.366 19.6085 173.474 19.7134 173.592 19.8093C173.833 20.0041 174.065 20.2454 174.316 20.5076C174.807 21.0395 175.312 21.7003 175.769 22.49C176.223 23.2842 176.621 24.2117 176.91 25.2367C177.199 26.2616 177.374 27.3854 177.39 28.5317C177.406 29.678 177.256 30.8289 176.981 31.8882C176.704 32.9432 176.306 33.9141 175.833 34.7263C175.722 34.9376 175.591 35.1219 175.477 35.3062C175.416 35.3976 175.359 35.4905 175.298 35.5789C175.239 35.6628 175.175 35.7467 175.114 35.8277C174.994 35.9895 174.876 36.1498 174.756 36.2952C174.632 36.4345 174.511 36.5724 174.396 36.7027C174.281 36.8361 174.161 36.9515 174.043 37.0624C173.926 37.1703 173.811 37.2781 173.703 37.377C173.478 37.5688 173.258 37.7337 173.058 37.8835C172.849 38.0184 172.651 38.1368 172.47 38.2401C172.289 38.345 172.111 38.4095 171.952 38.4754C171.637 38.6133 171.357 38.6552 171.131 38.6822C170.909 38.7122 170.725 38.6777 170.579 38.6327C170.432 38.5863 170.321 38.5129 170.239 38.4244C170.067 38.2491 169.994 38.0064 169.927 37.7502Z" fill="white"/>
<path d="M189.516 1.3723C189.819 1.77539 190.05 2.17847 189.58 3.13747C189.354 3.63195 188.915 4.21485 188.219 4.99703C188.038 5.18134 187.838 5.37764 187.622 5.58442C187.514 5.68782 187.399 5.79121 187.285 5.90359C187.167 6.01448 187.044 6.12986 186.91 6.23325C186.649 6.44753 186.366 6.67829 186.062 6.91504C185.985 6.97648 185.909 7.03791 185.829 7.09935C185.746 7.15779 185.667 7.21473 185.581 7.27317C185.412 7.38705 185.241 7.50692 185.063 7.6298C183.629 8.59929 181.869 9.4519 180.037 10.0228C178.207 10.5982 176.319 10.8979 174.641 10.9623C172.963 11.0208 171.5 10.8709 170.471 10.7016C170.213 10.6716 169.982 10.6102 169.778 10.5712C169.577 10.5293 169.406 10.4903 169.263 10.4604C168.984 10.3989 168.831 10.3645 168.831 10.3645C168.831 10.3645 168.986 10.3375 169.269 10.291C169.409 10.2686 169.581 10.2416 169.784 10.2101C169.984 10.1756 170.213 10.1532 170.465 10.0917C171.475 9.89244 172.867 9.55529 174.393 9.02934C175.919 8.4959 177.572 7.75567 179.141 6.90455C180.712 6.05194 182.199 5.08245 183.477 4.21485C183.639 4.10846 183.794 4.00357 183.945 3.90018C184.02 3.85073 184.094 3.80128 184.169 3.75033C184.24 3.69789 184.31 3.64694 184.379 3.59749C184.656 3.3907 184.917 3.2019 185.165 3.02958C185.289 2.94866 185.404 2.85726 185.514 2.77335C185.628 2.68794 185.736 2.60402 185.842 2.5276C186.054 2.37027 186.252 2.22791 186.439 2.10205C187.158 1.54462 187.698 1.23145 188.089 1.03515C188.89 0.666538 189.214 0.973719 189.516 1.3723Z" fill="white"/>
<path d="M241.208 23.9241C241.306 23.6829 241.471 23.4956 242.078 23.599C242.38 23.6484 242.793 23.7713 243.362 23.9826C243.934 24.1893 244.659 24.4845 245.584 24.7992C246.047 24.9535 246.56 25.1109 247.125 25.2323C247.691 25.3596 248.321 25.4555 248.979 25.4585C249.303 25.4675 249.646 25.4331 249.999 25.3866C250.352 25.3177 250.721 25.2487 251.083 25.1109C251.13 25.0944 251.178 25.0794 251.222 25.0644C251.267 25.045 251.314 25.0255 251.359 25.006C251.451 24.964 251.544 24.9296 251.636 24.8876C251.813 24.7962 252.001 24.7078 252.176 24.5954C252.532 24.3737 252.881 24.1159 253.187 23.7938C253.496 23.4716 253.765 23.1 253.981 22.6744L254.061 22.5126L254.103 22.4332C254.115 22.4062 254.124 22.3747 254.134 22.3478C254.175 22.2339 254.22 22.1185 254.264 22.0061C254.296 21.8847 254.328 21.7619 254.362 21.639C254.382 21.5776 254.391 21.5116 254.401 21.4472C254.413 21.3813 254.423 21.3168 254.436 21.2509C254.601 20.2005 254.464 18.8998 253.953 17.6606C253.698 17.0433 253.355 16.4439 252.932 15.9269C252.824 15.8041 252.716 15.6767 252.605 15.5508C252.484 15.4429 252.37 15.3291 252.245 15.2137C252.109 15.1103 251.978 14.9904 251.836 14.8915C251.766 14.8406 251.693 14.7911 251.62 14.7417L251.512 14.6682L251.397 14.5993C250.796 14.2307 250.116 13.955 249.379 13.7707C248.639 13.5909 247.84 13.5249 247.011 13.5519C246.801 13.5519 246.591 13.5834 246.381 13.5939C246.172 13.6208 245.959 13.6403 245.746 13.6748C245.536 13.7137 245.324 13.7437 245.11 13.7977C244.894 13.8396 244.688 13.8936 244.48 13.9505C243.651 14.1887 242.822 14.5424 242.027 15.0099C241.236 15.4819 240.476 16.0603 239.802 16.7481C239.128 17.4389 238.537 18.2315 238.101 19.1111C237.663 19.9847 237.384 20.9407 237.304 21.9297C237.221 22.9232 237.345 23.9406 237.657 24.9146C237.972 25.8931 238.477 26.8251 239.109 27.6642C239.745 28.5094 240.507 29.2571 241.334 29.8969C241.75 30.2191 242.184 30.5113 242.628 30.7765C243.076 31.0402 243.527 31.271 244.011 31.4703C244.484 31.692 244.973 31.8494 245.46 32.0262L246.204 32.2375L246.388 32.2914L246.575 32.3289L246.951 32.4098C247.952 32.6136 248.969 32.732 249.983 32.717C250.107 32.717 250.234 32.7215 250.361 32.717L250.739 32.6945L251.118 32.6705C251.181 32.663 251.245 32.663 251.308 32.6555L251.495 32.6331C251.748 32.5986 251.998 32.5671 252.245 32.5327C252.497 32.4832 252.742 32.4338 252.99 32.3873C253.241 32.3454 253.482 32.2644 253.727 32.1985C253.969 32.1341 254.213 32.0726 254.452 31.9797C254.69 31.8958 254.928 31.8074 255.167 31.7235C255.399 31.6231 255.634 31.5197 255.866 31.4208L256.041 31.3444C256.098 31.3174 256.153 31.286 256.21 31.256L256.546 31.0747L256.886 30.8994C257.001 30.8409 257.106 30.769 257.214 30.7031C257.433 30.5652 257.653 30.4348 257.866 30.2925C258.076 30.1397 258.282 29.9898 258.488 29.8355C258.704 29.6946 258.892 29.5133 259.089 29.3485C259.286 29.1807 259.49 29.0233 259.671 28.8315C259.855 28.6502 260.043 28.4674 260.228 28.2831C260.401 28.0868 260.576 27.892 260.751 27.6912C260.837 27.5923 260.929 27.4994 261.009 27.396L261.493 26.7667C261.575 26.6633 261.658 26.5599 261.727 26.4445C261.876 26.2257 262.027 26.004 262.172 25.7852C262.249 25.6773 262.318 25.5634 262.385 25.4435L262.589 25.0989C262.868 24.6494 263.094 24.1594 263.339 23.6874C263.453 23.4446 263.555 23.1959 263.663 22.9546L263.822 22.586C263.873 22.4631 263.914 22.3373 263.962 22.2144C264.054 21.9612 264.146 21.7109 264.235 21.4667C264.311 21.2089 264.391 20.9557 264.468 20.7025C264.505 20.5766 264.543 20.4492 264.582 20.3234C264.61 20.193 264.641 20.0656 264.671 19.9398C264.734 19.682 264.794 19.4258 264.855 19.1726C265.265 17.1152 265.357 15.0563 265.141 13.1383C264.916 11.2278 264.382 9.47015 263.692 7.96272C262.999 6.45229 262.157 5.18161 261.285 4.15818C260.847 3.64721 260.405 3.19468 259.967 2.80059C259.527 2.4005 259.089 2.06785 258.673 1.77116C257.83 1.19576 257.058 0.812155 256.413 0.560417C255.764 0.307181 255.246 0.184308 254.897 0.0988972C254.541 0.0344641 254.356 0 254.356 0C254.356 0 254.544 0.0194798 254.9 0.0569408C255.256 0.110885 255.784 0.191801 256.451 0.398585C257.119 0.602374 257.923 0.932031 258.812 1.45349C259.254 1.72171 259.722 2.02889 260.192 2.405C260.666 2.78111 261.145 3.20966 261.626 3.70864C262.585 4.69911 263.529 5.9608 264.34 7.4997C265.144 9.0416 265.808 10.8712 266.151 12.9316C266.483 14.9874 266.491 17.2381 266.142 19.5127C266.088 19.7929 266.034 20.0776 265.98 20.3608C265.955 20.5077 265.926 20.6485 265.9 20.7909C265.866 20.9332 265.827 21.0711 265.792 21.2134C265.723 21.4966 265.65 21.7799 265.58 22.0646C265.491 22.3448 265.401 22.625 265.313 22.9052C265.268 23.046 265.227 23.1884 265.179 23.3262C265.126 23.4641 265.075 23.602 265.02 23.7413C264.916 24.017 264.814 24.2972 264.7 24.5699C264.454 25.1064 264.229 25.6623 263.94 26.1808L263.73 26.5794C263.663 26.7097 263.59 26.8446 263.51 26.9675C263.358 27.2237 263.202 27.4769 263.046 27.7347C262.973 27.865 262.887 27.9834 262.801 28.1063L262.547 28.4749L262.29 28.842C262.204 28.9649 262.106 29.0773 262.013 29.1956C261.829 29.4264 261.642 29.6602 261.454 29.8939C261.254 30.1127 261.053 30.3315 260.85 30.5502C260.653 30.7765 260.434 30.9713 260.218 31.1751C259.998 31.3744 259.788 31.5931 259.556 31.77C259.327 31.9543 259.099 32.1416 258.87 32.3259C258.635 32.4982 258.394 32.663 258.152 32.8324C258.031 32.9133 257.913 33.0047 257.787 33.0781L257.41 33.2999L257.035 33.5231C256.972 33.5606 256.913 33.5996 256.848 33.634L256.654 33.7299C256.394 33.8603 256.137 33.9906 255.876 34.121C255.613 34.2364 255.344 34.3428 255.077 34.4552C254.811 34.5735 254.537 34.6575 254.264 34.7504C253.991 34.8388 253.718 34.9422 253.437 35.0036C253.162 35.0755 252.881 35.1445 252.602 35.2179C252.322 35.2718 252.039 35.3213 251.756 35.3752L251.544 35.4142C251.473 35.4247 251.401 35.4292 251.33 35.4411L250.902 35.4861L250.472 35.537C250.33 35.552 250.187 35.552 250.043 35.5595C248.893 35.6359 247.732 35.5595 246.583 35.3827L246.149 35.3108L245.933 35.2763L244.859 35.0231C244.293 34.8493 243.724 34.6919 243.168 34.4582C242.612 34.2589 242.043 33.9981 241.499 33.7059C240.956 33.4108 240.422 33.0811 239.908 32.7125C238.875 31.9767 237.901 31.0912 237.043 30.0243C236.185 28.9574 235.438 27.7002 234.933 26.2617C234.427 24.8232 234.187 23.2154 234.285 21.639C234.374 20.0536 234.796 18.5312 235.422 17.2231C236.045 15.9075 236.852 14.7956 237.736 13.8591C238.626 12.9226 239.592 12.1643 240.601 11.5455C241.607 10.9356 242.657 10.4726 243.728 10.1534C243.998 10.08 244.268 10.0081 244.529 9.95415C244.792 9.88822 245.059 9.84626 245.324 9.80131C245.587 9.75485 245.851 9.72788 246.114 9.69342C246.381 9.67843 246.646 9.64397 246.909 9.64397C247.968 9.60501 249.01 9.69342 250.014 9.94216C251.019 10.1879 251.986 10.5865 252.869 11.1349L253.034 11.2398L253.196 11.3507C253.304 11.4226 253.409 11.5005 253.517 11.577C253.727 11.7268 253.928 11.9021 254.128 12.0684C254.325 12.2438 254.519 12.4401 254.712 12.6274C254.89 12.8312 255.069 13.0349 255.24 13.2372C255.904 14.0824 256.422 15.0144 256.811 15.9839C257.194 16.9549 257.446 17.9708 257.557 18.9912C257.671 20.0117 257.643 21.0366 257.469 22.0106C257.443 22.129 257.42 22.2519 257.395 22.3717C257.373 22.4901 257.347 22.613 257.312 22.7284C257.245 22.9576 257.176 23.1884 257.106 23.4146C257.021 23.6334 256.931 23.8522 256.842 24.0635C256.819 24.1159 256.797 24.1699 256.775 24.2208L256.699 24.3692C256.648 24.4696 256.595 24.5699 256.544 24.6658C256.12 25.436 255.609 26.0774 255.075 26.5913C254.537 27.1083 253.972 27.4844 253.419 27.7871C253.142 27.9444 252.866 28.0598 252.596 28.1752C252.459 28.2291 252.322 28.2756 252.188 28.3205C252.122 28.3445 252.055 28.367 251.988 28.3895C251.921 28.409 251.856 28.4239 251.788 28.4434C251.257 28.6008 250.746 28.6667 250.256 28.7161C249.763 28.7461 249.297 28.7506 248.848 28.7012C247.962 28.6082 247.205 28.406 246.538 28.1677C245.87 27.934 245.297 27.6612 244.802 27.4005C243.814 26.8671 243.115 26.3681 242.593 25.962C242.074 25.5514 241.738 25.2248 241.516 24.961C241.077 24.4396 241.106 24.1669 241.208 23.9241Z" fill="white"/>
<path d="M288.013 13.0453C288.125 13.0378 288.233 13.0498 288.341 13.1531C288.394 13.2071 288.445 13.279 288.5 13.3914C288.525 13.4453 288.551 13.5068 288.576 13.5787C288.596 13.6521 288.618 13.733 288.637 13.8289C288.655 13.9203 288.675 14.0237 288.69 14.1391C288.7 14.2545 288.706 14.3849 288.712 14.5227C288.722 14.6651 288.719 14.8179 288.706 14.9872C288.7 15.1521 288.687 15.3364 288.659 15.5282C288.551 16.2984 288.3 17.3158 287.645 18.4322C287.318 18.9881 286.885 19.5665 286.304 20.0924C285.729 20.6184 284.984 21.1009 284.11 21.3541C283.999 21.3856 283.891 21.4155 283.777 21.447C283.665 21.474 283.551 21.492 283.437 21.5114C283.205 21.5624 282.966 21.5699 282.722 21.5924C282.232 21.6044 281.723 21.5654 281.199 21.45C280.159 21.2013 279.04 20.6753 278.042 19.6519C277.544 19.1379 277.089 18.5191 276.714 17.7908C276.345 17.0656 276.063 16.2444 275.888 15.3708C275.544 13.6252 275.627 11.7101 276.126 9.85807C276.377 8.92904 276.73 8.00899 277.2 7.13091C277.439 6.69336 277.706 6.26331 278.005 5.84974C278.303 5.43917 278.637 5.04807 279.003 4.67946C279.095 4.59105 279.191 4.49964 279.282 4.41123C279.378 4.33032 279.472 4.2494 279.566 4.16849C279.755 4.01565 279.943 3.84333 280.147 3.70847C280.35 3.56761 280.55 3.41327 280.76 3.2874C280.973 3.16004 281.186 3.03417 281.399 2.9068C282.273 2.44228 283.211 2.10214 284.177 1.87887C286.116 1.44132 288.125 1.49227 290.102 1.87587C291.094 2.07067 292.076 2.34339 293.06 2.715C294.042 3.08811 295.022 3.55113 295.976 4.15051C296.929 4.74389 297.854 5.48562 298.7 6.38618C299.541 7.28824 300.305 8.36262 300.886 9.58535C301.477 10.8216 301.862 12.1822 302.049 13.5637C302.237 14.9483 302.231 16.3523 302.059 17.7144C301.89 19.0765 301.554 20.3951 301.074 21.6343C300.594 22.869 299.952 24.0318 299.195 25.0328C297.685 27.0392 295.756 28.4582 293.751 29.3063C291.738 30.1575 289.625 30.4691 287.6 30.3043C285.579 30.1425 283.659 29.5476 281.907 28.7115C280.153 27.8753 278.561 26.798 277.133 25.6127C275.709 24.4199 274.435 23.1313 273.325 21.7992C272.21 20.4685 271.253 19.1065 270.434 17.7788C269.613 16.4482 268.949 15.1371 268.384 13.9248C267.274 11.4809 266.626 9.39056 266.238 7.94006C266.145 7.57594 266.051 7.25378 265.99 6.97357C265.927 6.68887 265.872 6.45211 265.831 6.26031C265.745 5.87222 265.701 5.67292 265.701 5.67292C265.701 5.67292 265.758 5.86922 265.866 6.24383C265.92 6.43263 265.986 6.66639 266.066 6.9421C266.143 7.21931 266.257 7.52949 266.369 7.88312C266.836 9.29016 267.598 11.3041 268.818 13.6132C269.439 14.7565 270.157 15.9837 271.025 17.2154C271.889 18.4471 272.887 19.6938 274.022 20.8941C275.16 22.0943 276.44 23.2377 277.848 24.2731C278.555 24.787 279.292 25.2755 280.061 25.7116C280.833 26.1491 281.634 26.5402 282.463 26.8744C284.117 27.5382 285.884 27.9562 287.679 27.9832C289.466 28.0177 291.284 27.6296 292.968 26.8009C294.65 25.9813 296.182 24.7076 297.32 23.0533C298.449 21.4305 299.154 19.3717 299.348 17.2769C299.548 15.182 299.215 13.0617 298.356 11.397C297.485 9.70823 296.122 8.40458 294.57 7.49053C293.019 6.57798 291.297 6.00708 289.609 5.69989C287.924 5.39721 286.269 5.38522 284.781 5.72687C284.034 5.89469 283.345 6.14793 282.715 6.48208C282.563 6.57049 282.41 6.6589 282.257 6.7473C282.108 6.83571 281.972 6.9466 281.825 7.0425C281.679 7.1339 281.555 7.25678 281.418 7.36466C281.355 7.41861 281.288 7.47255 281.221 7.525C281.163 7.57894 281.106 7.63288 281.049 7.69132C280.13 8.58439 279.489 9.83559 279.14 11.0628C278.786 12.302 278.732 13.5248 278.907 14.5377C278.996 15.0442 279.142 15.5012 279.327 15.9043C279.517 16.3029 279.753 16.6475 280.01 16.9352C280.525 17.5256 281.177 17.8867 281.793 18.086C282.105 18.1789 282.41 18.2239 282.705 18.2478C282.852 18.2404 282.997 18.2553 283.135 18.2359C283.205 18.2284 283.274 18.2284 283.341 18.2209C283.408 18.2059 283.474 18.1939 283.541 18.1819C284.066 18.0905 284.505 17.8672 284.892 17.599C285.281 17.3308 285.601 17.0086 285.868 16.6865C286.399 16.0346 286.703 15.3978 286.923 14.8943C286.98 14.7715 287.025 14.6531 287.066 14.5377C287.114 14.4268 287.155 14.3234 287.188 14.2275C287.222 14.1271 287.257 14.0387 287.292 13.9593C287.32 13.8739 287.349 13.7975 287.375 13.7285C287.404 13.6596 287.432 13.5982 287.461 13.5412C287.486 13.4828 287.508 13.4334 287.534 13.3914C287.585 13.2985 287.636 13.2341 287.685 13.1831C287.791 13.0797 287.899 13.0527 288.013 13.0453Z" fill="white"/>
<path d="M330.115 14.6455C330.189 14.7489 330.252 14.8568 330.256 15.0142C330.258 15.0936 330.248 15.1895 330.207 15.2929C330.169 15.4008 330.105 15.5236 329.997 15.654C329.788 15.9117 329.394 16.2264 328.765 16.3253C328.145 16.4212 327.318 16.2953 326.45 15.6585C326.022 15.3438 325.576 14.8943 325.191 14.238C325.001 13.9083 324.826 13.5247 324.696 13.0797C324.633 12.8579 324.582 12.6166 324.543 12.3664C324.534 12.302 324.527 12.2435 324.521 12.1866C324.518 12.1282 324.512 12.0712 324.506 12.0143C324.496 11.8989 324.486 11.7805 324.48 11.6606C324.448 10.7091 324.614 9.65873 324.995 8.68774C325.373 7.71375 325.939 6.80419 326.664 6.00253C327.026 5.59945 327.43 5.22334 327.884 4.88619C328.333 4.55653 328.809 4.25385 329.331 4.00061C330.37 3.50163 331.546 3.18396 332.813 3.13301C334.079 3.08806 335.429 3.29784 336.793 3.86275C337.473 4.14296 338.157 4.51458 338.821 4.98658C339.488 5.4541 340.14 6.0295 340.745 6.72777C341.955 8.10035 342.919 9.99288 343.376 12.0487C343.85 14.1046 343.865 16.3103 343.475 18.4276C343.08 20.5419 342.254 22.5903 341.002 24.2775C340.69 24.7031 340.344 25.0912 339.981 25.4583C339.616 25.8194 339.225 26.1611 338.824 26.4413C338.027 27.0242 337.165 27.4692 336.287 27.7839C335.411 28.0941 334.514 28.2784 333.622 28.3548C332.728 28.4312 331.841 28.3967 330.973 28.2784C330.103 28.16 329.251 27.9562 328.421 27.6805C327.589 27.4003 326.797 27.0586 326.031 26.6675C324.496 25.8809 323.084 24.9263 321.756 23.9329C320.431 22.9349 319.188 21.8995 317.983 20.909C308.359 12.9688 301.1 6.83566 301.1 6.83566C301.1 6.83566 308.794 12.1401 318.851 19.2562C321.368 21.0289 323.991 22.9544 326.831 24.1741C328.256 24.7795 329.712 25.1871 331.187 25.286C331.924 25.3369 332.661 25.3174 333.38 25.214C334.098 25.1062 334.797 24.9144 335.462 24.6342C336.122 24.3584 336.746 23.9898 337.308 23.5373C337.601 23.314 337.848 23.0698 338.1 22.809C338.338 22.5363 338.573 22.2561 338.783 21.9459C339.625 20.7172 340.191 19.2023 340.439 17.6454C340.686 16.0915 340.637 14.5032 340.289 13.1036C340.121 12.3979 339.879 11.7446 339.578 11.1542C339.282 10.5593 338.913 10.0303 338.506 9.55833C338.096 9.08332 337.648 8.68474 337.178 8.35059C336.711 8.01643 336.224 7.74821 335.739 7.54143C334.763 7.12636 333.787 6.95404 332.887 6.96902C331.984 6.98101 331.161 7.1803 330.443 7.48748C330.087 7.64482 329.753 7.83662 329.447 8.04041C329.152 8.2397 328.879 8.46896 328.634 8.71171C328.148 9.19421 327.779 9.72765 327.544 10.2296C327.512 10.2956 327.487 10.357 327.461 10.4184C327.439 10.4829 327.408 10.5413 327.388 10.6027C327.35 10.7256 327.302 10.844 327.28 10.9624C327.21 11.1961 327.192 11.4194 327.169 11.6307C327.165 11.7371 327.165 11.8375 327.165 11.9364C327.165 12.0098 327.169 12.0862 327.182 12.1641C327.208 12.317 327.249 12.4743 327.308 12.6271C327.426 12.9313 327.605 13.1995 327.785 13.4108C327.966 13.6251 328.154 13.7749 328.323 13.8933C328.494 14.0087 328.647 14.0851 328.781 14.1346C329.048 14.2425 329.254 14.2694 329.425 14.2964C329.6 14.3189 329.737 14.3429 329.845 14.3998C329.956 14.4567 330.042 14.5451 330.115 14.6455Z" fill="white"/>
<path d="M317.265 32.2765C316.642 33.0512 316.016 33.5412 312.971 29.9749C309.926 26.4071 306.239 19.3599 306.239 19.3599C306.239 19.3599 312.182 23.599 315.23 27.1668C318.276 30.7331 317.888 31.5003 317.265 32.2765Z" fill="white"/>
<path d="M272.245 36.703C271.428 37.1435 270.717 37.3668 269.474 33.9908C268.227 30.6148 267.744 24.4817 267.744 24.4817C267.744 24.4817 271.193 29.0265 272.436 32.4025C273.679 35.774 273.065 36.2655 272.245 36.703Z" fill="white"/>
<path d="M369.054 28.9155C368.699 29.2421 368.324 29.4639 367.526 28.8316C367.141 28.5049 366.595 28.0179 365.892 27.2312C365.705 27.0469 365.505 26.8446 365.291 26.6214C365.187 26.5105 365.079 26.3951 364.967 26.2767C364.857 26.1538 364.742 26.0265 364.612 25.9126C364.36 25.6669 364.097 25.4061 363.814 25.1214C363.744 25.0495 363.673 24.9761 363.601 24.9026C363.524 24.8337 363.449 24.7648 363.369 24.6914C363.216 24.5505 363.054 24.4037 362.889 24.2508C361.566 23.0431 360.003 21.7155 358.312 20.5527C356.621 19.3869 354.812 18.3814 353.119 17.6607C352.695 17.4839 352.279 17.331 351.878 17.1737C351.776 17.1317 351.678 17.0928 351.58 17.0553C351.481 17.0193 351.383 16.9939 351.285 16.9594C351.09 16.898 350.9 16.8365 350.715 16.7781C350.344 16.6552 349.991 16.5324 349.657 16.4634C349.319 16.3795 349.011 16.2986 348.728 16.2297C348.445 16.1488 348.188 16.1143 347.962 16.0723C347.734 16.0304 347.54 15.9914 347.381 15.9644C347.063 15.9045 346.888 15.8685 346.888 15.8685C346.888 15.8685 347.063 15.8431 347.384 15.7966C347.543 15.7726 347.74 15.7427 347.968 15.7082C348.201 15.6812 348.465 15.6273 348.757 15.6168C349.052 15.6003 349.378 15.5808 349.724 15.5584C350.077 15.5284 350.452 15.5434 350.851 15.5509C351.053 15.5554 351.255 15.5584 351.468 15.5629C351.573 15.5659 351.678 15.5659 351.786 15.5733C351.894 15.5853 352.002 15.5973 352.114 15.6048C352.552 15.6513 353.011 15.6932 353.484 15.7547C355.372 16.0259 357.479 16.6283 359.475 17.5693C361.477 18.4968 363.359 19.7705 364.847 21.1326C365.032 21.3049 365.209 21.4742 365.384 21.6345C365.47 21.7155 365.556 21.7964 365.641 21.8758C365.721 21.9612 365.796 22.0421 365.876 22.126C366.185 22.4557 366.474 22.7659 366.738 23.0611C366.874 23.2079 366.996 23.3607 367.11 23.5061C367.227 23.6559 367.338 23.7983 367.446 23.9362C367.66 24.2164 367.856 24.4741 368.035 24.7183C368.702 25.7463 369.115 26.4835 369.3 27.0784C369.697 28.2367 369.411 28.5858 369.054 28.9155Z" fill="white"/>
<path d="M390.023 4.74854C390.156 4.96731 390.264 5.18908 390.22 5.51574C390.198 5.68057 390.137 5.86937 390.023 6.09863C389.905 6.32939 389.74 6.60211 389.489 6.90779C389.241 7.21198 388.927 7.58359 388.503 7.97918C388.294 8.17847 388.065 8.40024 387.804 8.61901C387.544 8.84228 387.254 9.07903 386.94 9.32927C385.671 10.3108 383.917 11.4661 381.476 12.5974C379.035 13.7242 376.105 14.5693 373.116 14.9364C370.129 15.3096 367.097 15.1972 364.449 14.7491C363.124 14.5259 361.896 14.2232 360.804 13.9055C360.26 13.7332 359.744 13.5759 359.271 13.399C359.036 13.3106 358.803 13.2372 358.587 13.1488C358.371 13.0619 358.165 12.981 357.968 12.9001C357.574 12.7472 357.224 12.5779 356.916 12.443C356.611 12.3127 356.35 12.1823 356.14 12.0759C355.718 11.8646 355.488 11.7493 355.488 11.7493C355.488 11.7493 355.734 11.8107 356.179 11.9141C356.401 11.968 356.674 12.037 356.996 12.0939C357.316 12.1598 357.679 12.2437 358.086 12.3052C358.289 12.3396 358.502 12.3741 358.724 12.4131C358.947 12.452 359.18 12.4745 359.42 12.509C359.901 12.5824 360.419 12.6273 360.965 12.6813C362.059 12.7697 363.267 12.8191 364.551 12.7967C367.116 12.7502 369.958 12.3711 372.7 11.6728C375.447 10.9776 378.081 9.9736 380.325 8.93818C382.57 7.89826 384.216 6.93476 385.465 6.19453C385.773 6.00273 386.062 5.83041 386.329 5.67757C386.596 5.52323 386.835 5.37039 387.061 5.24003C387.511 4.98679 387.878 4.77101 388.192 4.62566C388.507 4.48032 388.754 4.37692 388.964 4.32298C389.171 4.26904 389.336 4.26454 389.469 4.29151C389.74 4.34546 389.889 4.53426 390.023 4.74854Z" fill="white"/>
<path d="M399.813 30.9413C399.581 31.4013 399.294 31.7654 398.226 31.4043C397.149 31.0566 395.312 29.9358 391.749 27.868C389.966 26.84 387.929 25.6398 385.837 24.489C383.748 23.3382 381.607 22.2368 379.659 21.3198C377.713 20.4072 375.967 19.6625 374.71 19.153C373.444 18.654 372.681 18.3544 372.681 18.3544C372.681 18.3544 372.882 18.3708 373.247 18.4053C373.616 18.4398 374.15 18.4742 374.814 18.5536C376.142 18.708 378.002 18.9807 380.099 19.4362C382.198 19.8963 384.534 20.5601 386.806 21.4007C389.078 22.2413 391.288 23.2647 393.145 24.3391C394.078 24.8681 394.877 25.382 395.579 25.8421C396.275 26.3111 396.863 26.7486 397.365 27.1277C398.357 27.9219 399.005 28.5243 399.4 29.0263C400.197 30.0167 400.048 30.4812 399.813 30.9413Z" fill="white"/>
<path d="M200.51 14.4838C200.606 14.2426 200.72 14.0208 200.958 13.8979C201.08 13.832 201.232 13.7945 201.427 13.7855C201.623 13.778 201.861 13.8125 202.167 13.8635C202.468 13.9129 202.825 14.0208 203.267 14.1317C203.486 14.1931 203.725 14.2695 203.984 14.343C204.245 14.4149 204.526 14.5003 204.83 14.5917C206.054 14.9453 207.659 15.3934 209.811 15.7305C211.963 16.0647 214.458 16.2445 216.995 16.0842C219.528 15.9343 222.089 15.4278 224.334 14.6801C225.455 14.3085 226.498 13.8784 227.433 13.4529C227.893 13.2266 228.335 13.0228 228.735 12.7996C228.935 12.6932 229.136 12.5928 229.318 12.4864C229.501 12.3785 229.679 12.2781 229.848 12.1822C230.188 11.9904 230.481 11.7956 230.748 11.6338C231.011 11.4734 231.231 11.3191 231.412 11.1962C231.775 10.952 231.975 10.8171 231.975 10.8171C231.975 10.8171 231.803 10.9969 231.492 11.3356C231.339 11.5034 231.145 11.7072 230.913 11.9335C230.681 12.1597 230.42 12.428 230.115 12.7007C229.962 12.8385 229.803 12.9839 229.635 13.1382C229.47 13.2881 229.289 13.4334 229.104 13.5907C228.735 13.9129 228.326 14.2231 227.89 14.5572C227.013 15.2091 226.009 15.8849 224.896 16.5142C222.678 17.7714 220.023 18.8188 217.299 19.3672C214.575 19.9232 211.794 19.9846 209.408 19.613C209.108 19.574 208.819 19.5096 208.54 19.4631C208.399 19.4362 208.263 19.4092 208.126 19.3822C207.993 19.3523 207.859 19.3208 207.729 19.2908C207.468 19.2294 207.214 19.1724 206.969 19.1065C206.728 19.0376 206.492 18.9686 206.268 18.9027C206.042 18.8413 205.822 18.7649 205.616 18.6929C205.406 18.6195 205.205 18.5461 205.011 18.4772C204.624 18.3273 204.271 18.179 203.943 18.0366C203.619 17.8823 203.324 17.7339 203.053 17.5946C202.784 17.4567 202.545 17.3039 202.323 17.169C201.883 16.9083 201.543 16.6356 201.274 16.4093C201.007 16.1875 200.816 15.9688 200.679 15.7815C200.546 15.5927 200.467 15.4278 200.425 15.275C200.343 14.9708 200.416 14.7296 200.51 14.4838Z" fill="white"/>
<path d="M230.073 37.7502C230.006 38.0064 229.933 38.2491 229.762 38.4244C229.676 38.5129 229.568 38.5863 229.422 38.6327C229.275 38.6777 229.091 38.7122 228.865 38.6822C228.643 38.6552 228.364 38.6133 228.048 38.4754C227.889 38.4095 227.712 38.345 227.531 38.2401C227.349 38.1368 227.152 38.0184 226.942 37.8835C226.742 37.7337 226.522 37.5688 226.298 37.377C226.186 37.2781 226.074 37.1703 225.958 37.0624C225.84 36.9515 225.719 36.8361 225.605 36.7027C225.487 36.5724 225.369 36.4345 225.245 36.2952C225.121 36.1498 225.006 35.9895 224.886 35.8277C224.823 35.7467 224.762 35.6628 224.699 35.5789C224.641 35.4905 224.584 35.3976 224.523 35.3062C224.406 35.1219 224.275 34.9376 224.167 34.7263C223.69 33.9141 223.297 32.9432 223.02 31.8882C222.741 30.8289 222.594 29.678 222.61 28.5317C222.623 27.3854 222.801 26.2616 223.091 25.2367C223.38 24.2117 223.774 23.2842 224.232 22.49C224.689 21.7003 225.194 21.0395 225.681 20.5076C225.935 20.2454 226.167 20.0041 226.408 19.8093C226.526 19.7134 226.634 19.6085 226.748 19.5291C226.86 19.4437 226.968 19.3673 227.072 19.2909C227.274 19.138 227.473 19.0331 227.639 18.9342C227.722 18.8848 227.798 18.8338 227.871 18.7994C227.947 18.7649 228.014 18.7304 228.074 18.7035C228.313 18.5926 228.446 18.5311 228.446 18.5311C228.446 18.5311 228.341 18.642 228.148 18.8458C228.099 18.8953 228.046 18.9537 227.989 19.0151C227.93 19.0766 227.873 19.153 227.81 19.2294C227.683 19.3868 227.533 19.5516 227.39 19.7659C227.317 19.8707 227.241 19.9771 227.162 20.0925C227.082 20.2034 227.013 20.3338 226.933 20.4611C226.771 20.7099 226.624 21.0021 226.465 21.3003C226.17 21.9191 225.89 22.6204 225.671 23.3876C225.239 24.922 225.096 26.7171 225.34 28.3205C225.576 29.9208 226.176 31.3668 226.834 32.5026C226.911 32.651 227.003 32.7783 227.082 32.9132C227.123 32.9776 227.162 33.0435 227.2 33.108C227.245 33.1664 227.286 33.2264 227.327 33.2848C227.41 33.4002 227.486 33.523 227.565 33.6264C227.649 33.7328 227.724 33.8377 227.801 33.9336C227.873 34.037 227.953 34.1254 228.03 34.2123C228.103 34.3052 228.176 34.3891 228.242 34.4731C228.389 34.6304 228.523 34.7772 228.646 34.9181C228.773 35.0485 228.894 35.1713 228.999 35.2912C229.107 35.4096 229.212 35.5025 229.304 35.6059C229.485 35.8157 229.644 35.97 229.762 36.1348C229.88 36.3042 229.972 36.4345 230.035 36.5754C230.098 36.7147 230.137 36.8451 230.153 36.9785C230.188 37.2392 230.14 37.4924 230.073 37.7502Z" fill="white"/>
<path d="M210.485 1.3723C210.786 0.973719 211.111 0.666538 211.909 1.03515C212.302 1.23145 212.843 1.54462 213.561 2.10205C213.749 2.22791 213.945 2.37027 214.159 2.5276C214.263 2.60402 214.372 2.68794 214.483 2.77335C214.597 2.85726 214.711 2.94866 214.835 3.02958C215.084 3.2019 215.344 3.3907 215.621 3.59749C215.691 3.64694 215.76 3.69789 215.831 3.75033C215.903 3.80128 215.98 3.85073 216.056 3.90018C216.206 4.00357 216.361 4.10846 216.52 4.21485C217.801 5.08245 219.285 6.05194 220.858 6.90455C222.429 7.75567 224.079 8.4959 225.607 9.02934C227.133 9.55529 228.525 9.89244 229.536 10.0917C229.788 10.1532 230.016 10.1756 230.216 10.2101C230.416 10.2416 230.591 10.2686 230.731 10.291C231.014 10.3375 231.17 10.3645 231.17 10.3645C231.17 10.3645 231.017 10.3989 230.734 10.4604C230.595 10.4903 230.423 10.5293 230.222 10.5712C230.019 10.6102 229.788 10.6716 229.529 10.7016C228.5 10.8709 227.038 11.0208 225.356 10.9623C223.682 10.8979 221.791 10.5982 219.963 10.0228C218.132 9.4519 216.371 8.59929 214.937 7.6298C214.76 7.50692 214.584 7.38705 214.419 7.27317C214.334 7.21473 214.25 7.15779 214.171 7.09935C214.092 7.03791 214.016 6.97648 213.939 6.91504C213.635 6.67829 213.352 6.44753 213.087 6.23325C212.954 6.12986 212.833 6.01448 212.716 5.90359C212.598 5.79121 212.486 5.68782 212.378 5.58442C212.16 5.37764 211.962 5.18134 211.781 4.99703C211.084 4.21485 210.646 3.63195 210.42 3.13747C209.951 2.17847 210.182 1.77539 210.485 1.3723Z" fill="white"/>
</svg>
