<svg width="40" height="40" viewBox="0 0 40 40" fill="none" xmlns="http://www.w3.org/2000/svg">
<g clip-path="url(#clip0_59_103)">
<path d="M26.65 31.6666H25.8166V8.33336H26.6833C27.1433 8.33336 27.5166 7.96 27.5166 7.5C27.5166 7.40836 27.5016 7.32164 27.475 7.24C27.3416 5.06336 25.5266 3.33336 23.3166 3.33336C23.3166 1.495 21.8216 0 19.9834 0C18.145 0 16.65 1.495 16.65 3.33336C14.3534 3.33336 12.4834 5.20336 12.4834 7.5C12.4834 7.96 12.8567 8.33336 13.3167 8.33336H14.1501V31.6667H13.3167C12.8567 31.6667 12.4834 32.0401 12.4834 32.5001C12.4834 34.7967 14.3534 36.6667 16.65 36.6667C16.65 38.5051 18.145 40.0001 19.9834 40.0001C21.8217 40.0001 23.3167 38.5051 23.3167 36.6667C25.6134 36.6667 27.4834 34.7967 27.4834 32.5001C27.4834 32.04 27.11 31.6666 26.65 31.6666ZM15.8166 8.33336H24.15V8.365C21.815 10.235 18.8984 11.3666 15.8166 11.61V8.33336ZM24.1484 28.3634C21.8134 30.23 18.8934 31.3634 15.815 31.605V28.275H15.8166C15.8883 28.27 15.9566 28.2516 16.0283 28.2466C16.6883 28.1916 17.3433 28.1083 17.9866 27.98C18.0683 27.9634 18.1466 27.94 18.2283 27.9234C18.8116 27.7984 19.3833 27.64 19.9466 27.4584C20.0833 27.4134 20.2216 27.3717 20.3566 27.325C20.9633 27.11 21.5566 26.865 22.1333 26.585C22.2449 26.5316 22.3499 26.47 22.4599 26.4134C22.9666 26.1517 23.4599 25.8667 23.9349 25.555C24.0033 25.51 24.0799 25.4766 24.1483 25.43V28.3634H24.1484ZM24.15 18.3466C24.0966 18.39 24.0416 18.43 23.9884 18.4716C23.4567 18.885 22.9034 19.27 22.3184 19.6066C22.2867 19.625 22.2517 19.64 22.22 19.6583C21.64 19.9866 21.0334 20.2716 20.4116 20.5216C20.3366 20.5516 20.2633 20.5866 20.1883 20.6166C19.5699 20.8533 18.9299 21.0433 18.2799 21.2016C18.1633 21.23 18.0466 21.2583 17.9283 21.285C17.2833 21.425 16.6266 21.5266 15.9616 21.585C15.9133 21.59 15.8666 21.59 15.8183 21.595V18.2834C18.8349 18.0684 21.7199 17.0834 24.1516 15.44V18.3466H24.15Z" fill="#E8C552"/>
</g>
<defs>
<clipPath id="clip0_59_103">
<rect width="40" height="40" fill="white"/>
</clipPath>
</defs>
</svg>
