<svg width="40" height="40" viewBox="0 0 40 40" fill="none" xmlns="http://www.w3.org/2000/svg">
<path d="M28 4.9375H22.2187C21.1875 4.92187 21.2187 6.46875 22.2187 6.46875H27.9844V7.23437H22.25C21.2031 7.23437 21.2344 8.76562 22.25 8.76562H28V9.53125V9.5625H22.25C21.2031 9.5625 21.2344 11.1094 22.25 11.1094H28V11.875H22.25C21.2187 11.875 21.2344 13.4062 22.25 13.4062H28V14.1719H22.25C21.2187 14.1719 21.2187 15.7187 22.25 15.7031H28V16.4844H22.25C21.2187 16.4687 21.2187 18.0156 22.25 18.0156H28V18.7812H22.25C21.2187 18.7812 21.2187 20.3125 22.25 20.3125H28V21.0781H22.25C21.2187 21.0781 21.2344 22.625 22.25 22.625H28V37.5469C27.9844 39.8281 31.4687 39.7969 31.4687 37.5469V2.64062C31.4687 1.60937 30.6094 0.296875 29.1875 0.296875L22.2187 0.28125C21.1875 0.296875 21.2187 1.82812 22.2187 1.82812H27.9844V2.59375H22.2187C21.1875 2.59375 21.2187 4.14062 22.2187 4.125H27.9844V4.9375H28Z" fill="#E8C552"/>
<path d="M21.3281 35.0938C21.125 36.3594 21.5625 38.625 22.4531 39.4531C23.3906 40.3125 24.5 39.2188 24.0469 38.3281C23.5781 37.4531 23 36.9687 23.4844 34.875L21.3281 35.0938Z" fill="#E8C552"/>
<path d="M19.4844 27.7344V17.5625L17.5625 0.828125C17.5 0.375 17.2344 0.265625 16.9688 0.265625C16.7187 0.265625 16.4375 0.359375 16.3906 0.828125L14.5156 17.5625V27.7344C10.9688 25.8906 8.3125 28.7656 8.29688 31.375C8.3125 33.7031 10.0312 35.625 12.4844 35.625C14.9375 35.6094 16.6094 33.4688 16.6094 31.375V21.1562H17.3906V31.375C17.3906 33.7969 19.3594 35.5938 21.4531 35.5938C24.0938 35.5938 25.7656 33.7344 25.7656 31.3906C25.7813 28.75 23.0312 25.8906 19.4844 27.7344ZM12.4375 33.5C11.2812 33.5 10.3594 32.5625 10.3438 31.4063C10.3594 30.2656 11.2812 29.3281 12.4375 29.3281C13.5938 29.3281 14.5313 30.25 14.5313 31.4063C14.5313 32.5625 13.5938 33.5 12.4375 33.5ZM21.625 33.5C20.4844 33.5 19.5469 32.5625 19.5469 31.4063C19.5469 30.2656 20.4688 29.3281 21.625 29.3281C22.7813 29.3281 23.7188 30.25 23.7188 31.4063C23.7188 32.5625 22.7969 33.5 21.625 33.5Z" fill="#E8C552"/>
</svg>
